<?xml version="1.0" encoding="UTF-8" standalone="no"?>
<!-- Created with Inkscape (http://www.inkscape.org/) -->

<svg
   xmlns:dc="http://purl.org/dc/elements/1.1/"
   xmlns:cc="http://creativecommons.org/ns#"
   xmlns:rdf="http://www.w3.org/1999/02/22-rdf-syntax-ns#"
   xmlns:svg="http://www.w3.org/2000/svg"
   xmlns="http://www.w3.org/2000/svg"
   xmlns:sodipodi="http://sodipodi.sourceforge.net/DTD/sodipodi-0.dtd"
   xmlns:inkscape="http://www.inkscape.org/namespaces/inkscape"
   width="796.04657"
   height="287.70709"
   id="svg5697"
   version="1.1"
   inkscape:version="0.48.4 r9939"
   sodipodi:docname="altura_arvore.svg">
  <defs
     id="defs5699" />
  <sodipodi:namedview
     inkscape:document-units="mm"
     pagecolor="#ffffff"
     bordercolor="#666666"
     borderopacity="1.0"
     inkscape:pageopacity="0.0"
     inkscape:pageshadow="2"
     inkscape:zoom="1.2279853"
     inkscape:cx="465.52351"
     inkscape:cy="75.07306"
     inkscape:current-layer="layer1"
     id="namedview5701"
     showgrid="false"
     inkscape:window-width="1301"
     inkscape:window-height="744"
     inkscape:window-x="339"
     inkscape:window-y="1104"
     inkscape:window-maximized="1"
     units="mm"
     fit-margin-top="5"
     fit-margin-bottom="5"
     fit-margin-left="2"
     fit-margin-right="2" />
  <metadata
     id="metadata5703">
    <rdf:RDF>
      <cc:Work
         rdf:about="">
        <dc:format>image/svg+xml</dc:format>
        <dc:type
           rdf:resource="http://purl.org/dc/dcmitype/StillImage" />
        <dc:title />
      </cc:Work>
    </rdf:RDF>
  </metadata>
  <g
     inkscape:label="Layer 1"
     inkscape:groupmode="layer"
     id="layer1"
     transform="translate(48.86252,0.79630075)">
    <path
       sodipodi:type="arc"
       style="fill:#ffffff;fill-opacity:1;stroke:#000000;stroke-width:1.77165353;stroke-linecap:round;stroke-linejoin:round;stroke-miterlimit:4;stroke-opacity:1;stroke-dasharray:none;stroke-dashoffset:0"
       id="path2985"
       sodipodi:cx="215.16249"
       sodipodi:cy="74.534515"
       sodipodi:rx="22.223356"
       sodipodi:ry="22.223356"
       d="m 237.38585,74.534515 c 0,12.273621 -9.94974,22.223357 -22.22336,22.223357 -12.27362,0 -22.22336,-9.949736 -22.22336,-22.223357 0,-12.27362 9.94974,-22.223356 22.22336,-22.223356 12.27362,0 22.22336,9.949736 22.22336,22.223356 z"
       transform="matrix(0.86200893,0,0,0.86200893,-158.15082,121.96055)" />
    <path
       sodipodi:type="arc"
       style="fill:#ffffff;fill-opacity:1;stroke:#000000;stroke-width:1.77165353;stroke-linecap:round;stroke-linejoin:round;stroke-miterlimit:4;stroke-opacity:1;stroke-dasharray:none;stroke-dashoffset:0"
       id="path2985-7"
       sodipodi:cx="215.16249"
       sodipodi:cy="74.534515"
       sodipodi:rx="22.223356"
       sodipodi:ry="22.223356"
       d="m 237.38585,74.534515 c 0,12.273621 -9.94974,22.223357 -22.22336,22.223357 -12.27362,0 -22.22336,-9.949736 -22.22336,-22.223357 0,-12.27362 9.94974,-22.223356 22.22336,-22.223356 12.27362,0 22.22336,9.949736 22.22336,22.223356 z"
       transform="matrix(0.86200893,0,0,0.86200893,-32.252272,121.96055)" />
    <path
       sodipodi:type="arc"
       style="fill:#ffffff;fill-opacity:1;stroke:#000000;stroke-width:1.77165353;stroke-linecap:round;stroke-linejoin:round;stroke-miterlimit:4;stroke-opacity:1;stroke-dasharray:none;stroke-dashoffset:0"
       id="path2985-7-4"
       sodipodi:cx="215.16249"
       sodipodi:cy="74.534515"
       sodipodi:rx="22.223356"
       sodipodi:ry="22.223356"
       d="m 237.38585,74.534515 c 0,12.273621 -9.94974,22.223357 -22.22336,22.223357 -12.27362,0 -22.22336,-9.949736 -22.22336,-22.223357 0,-12.27362 9.94974,-22.223356 22.22336,-22.223356 12.27362,0 22.22336,9.949736 22.22336,22.223356 z"
       transform="matrix(0.86200893,0,0,0.86200893,-63.72689,46.701376)" />
    <path
       sodipodi:type="arc"
       style="fill:#ffffff;fill-opacity:1;stroke:#000000;stroke-width:1.77165353;stroke-linecap:round;stroke-linejoin:round;stroke-miterlimit:4;stroke-opacity:1;stroke-dasharray:none;stroke-dashoffset:0"
       id="path2985-7-4-9"
       sodipodi:cx="215.16249"
       sodipodi:cy="74.534515"
       sodipodi:rx="22.223356"
       sodipodi:ry="22.223356"
       d="m 237.38585,74.534515 c 0,12.273621 -9.94974,22.223357 -22.22336,22.223357 -12.27362,0 -22.22336,-9.949736 -22.22336,-22.223357 0,-12.27362 9.94974,-22.223356 22.22336,-22.223356 12.27362,0 22.22336,9.949736 22.22336,22.223356 z"
       transform="matrix(0.86200893,0,0,0.86200893,-126.67619,46.701376)" />
    <path
       sodipodi:type="arc"
       style="fill:#ffffff;fill-opacity:1;stroke:#000000;stroke-width:1.77165353;stroke-linecap:round;stroke-linejoin:round;stroke-miterlimit:4;stroke-opacity:1;stroke-dasharray:none;stroke-dashoffset:0"
       id="path2985-7-4-9-3"
       sodipodi:cx="215.16249"
       sodipodi:cy="74.534515"
       sodipodi:rx="22.223356"
       sodipodi:ry="22.223356"
       d="m 237.38585,74.534515 c 0,12.273621 -9.94974,22.223357 -22.22336,22.223357 -12.27362,0 -22.22336,-9.949736 -22.22336,-22.223357 0,-12.27362 9.94974,-22.223356 22.22336,-22.223356 12.27362,0 22.22336,9.949736 22.22336,22.223356 z"
       transform="matrix(0.86200893,0,0,0.86200893,30.697026,121.96055)" />
    <path
       sodipodi:type="arc"
       style="fill:#ffffff;fill-opacity:1;stroke:#000000;stroke-width:1.77165353;stroke-linecap:round;stroke-linejoin:round;stroke-miterlimit:4;stroke-opacity:1;stroke-dasharray:none;stroke-dashoffset:0"
       id="path2985-7-4-9-3-2"
       sodipodi:cx="215.16249"
       sodipodi:cy="74.534515"
       sodipodi:rx="22.223356"
       sodipodi:ry="22.223356"
       d="m 237.38585,74.534515 c 0,12.273621 -9.94974,22.223357 -22.22336,22.223357 -12.27362,0 -22.22336,-9.949736 -22.22336,-22.223357 0,-12.27362 9.94974,-22.223356 22.22336,-22.223356 12.27362,0 22.22336,9.949736 22.22336,22.223356 z"
       transform="matrix(0.86200893,0,0,0.86200893,-0.77760671,46.701376)" />
    <path
       sodipodi:type="arc"
       style="fill:#ffffff;fill-opacity:1;stroke:#000000;stroke-width:1.77165353;stroke-linecap:round;stroke-linejoin:round;stroke-miterlimit:4;stroke-opacity:1;stroke-dasharray:none;stroke-dashoffset:0"
       id="path2985-7-4-9-3-2-4"
       sodipodi:cx="215.16249"
       sodipodi:cy="74.534515"
       sodipodi:rx="22.223356"
       sodipodi:ry="22.223356"
       d="m 237.38585,74.534515 c 0,12.273621 -9.94974,22.223357 -22.22336,22.223357 -12.27362,0 -22.22336,-9.949736 -22.22336,-22.223357 0,-12.27362 9.94974,-22.223356 22.22336,-22.223356 12.27362,0 22.22336,9.949736 22.22336,22.223356 z"
       transform="matrix(0.86200893,0,0,0.86200893,-63.72689,-4.6020578)" />
    <path
       sodipodi:type="arc"
       style="fill:#ffffff;fill-opacity:1;stroke:#000000;stroke-width:1.77165353;stroke-linecap:round;stroke-linejoin:round;stroke-miterlimit:4;stroke-opacity:1;stroke-dasharray:none;stroke-dashoffset:0"
       id="path2985-7-4-9-3-2-4-0"
       sodipodi:cx="215.16249"
       sodipodi:cy="74.534515"
       sodipodi:rx="22.223356"
       sodipodi:ry="22.223356"
       d="m 237.38585,74.534515 c 0,12.273621 -9.94974,22.223357 -22.22336,22.223357 -12.27362,0 -22.22336,-9.949736 -22.22336,-22.223357 0,-12.27362 9.94974,-22.223356 22.22336,-22.223356 12.27362,0 22.22336,9.949736 22.22336,22.223356 z"
       transform="matrix(0.86200893,0,0,0.86200893,-95.201522,121.96055)" />
    <path
       style="fill:none;stroke:#000000;stroke-width:1.12439156px;stroke-linecap:butt;stroke-linejoin:miter;stroke-opacity:1"
       d="M 73.64591,98.848011 106.89499,71.750143"
       id="path4485"
       inkscape:connector-type="polyline"
       inkscape:connector-curvature="0"
       inkscape:connection-start="#path2985-7-4-9"
       inkscape:connection-start-point="d4"
       inkscape:connection-end="#path2985-7-4-9-3-2-4"
       inkscape:connection-end-point="d4" />
    <path
       style="fill:none;stroke:#000000;stroke-width:1.12439156px;stroke-linecap:butt;stroke-linejoin:miter;stroke-opacity:1"
       d="m 121.7451,91.794062 0,-12.98997"
       id="path4487"
       inkscape:connector-type="polyline"
       inkscape:connector-curvature="0"
       inkscape:connection-start="#path2985-7-4"
       inkscape:connection-start-point="d4"
       inkscape:connection-end="#path2985-7-4-9-3-2-4"
       inkscape:connection-end-point="d4" />
    <path
       style="fill:none;stroke:#000000;stroke-width:1.12490118;stroke-linecap:butt;stroke-linejoin:miter;stroke-miterlimit:4;stroke-opacity:1;stroke-dasharray:none"
       d="M 169.84427,98.848009 136.59521,71.750145"
       id="path4489"
       inkscape:connector-type="polyline"
       inkscape:connector-curvature="0"
       inkscape:connection-start="#path2985-7-4-9-3-2"
       inkscape:connection-start-point="d4"
       inkscape:connection-end="#path2985-7-4-9-3-2-4"
       inkscape:connection-end-point="d4" />
    <path
       style="fill:none;stroke:#000000;stroke-width:1.12439156px;stroke-linecap:butt;stroke-linejoin:miter;stroke-opacity:1"
       d="M 208.77578,168.53197 192.08761,128.62879"
       id="path4491"
       inkscape:connector-type="polyline"
       inkscape:connector-curvature="0"
       inkscape:connection-start="#path2985-7-4-9-3"
       inkscape:connection-start-point="d4"
       inkscape:connection-end="#path2985-7-4-9-3-2"
       inkscape:connection-end-point="d4" />
    <path
       style="fill:none;stroke:#000000;stroke-width:1.12439156px;stroke-linecap:butt;stroke-linejoin:miter;stroke-opacity:1"
       d="M 114.35187,128.62879 97.663697,168.53197"
       id="path4493"
       inkscape:connector-type="polyline"
       inkscape:connector-curvature="0"
       inkscape:connection-start="#path2985-7-4"
       inkscape:connection-start-point="d4"
       inkscape:connection-end="#path2985-7-4-9-3-2-4-0"
       inkscape:connection-end-point="d4" />
    <path
       style="fill:none;stroke:#000000;stroke-width:1.12439156px;stroke-linecap:butt;stroke-linejoin:miter;stroke-opacity:1"
       d="m 129.13833,128.62879 16.68816,39.90318"
       id="path4495"
       inkscape:connector-type="polyline"
       inkscape:connector-curvature="0"
       inkscape:connection-start="#path2985-7-4"
       inkscape:connection-start-point="d4"
       inkscape:connection-end="#path2985-7"
       inkscape:connection-end-point="d4" />
    <path
       style="fill:none;stroke:#000000;stroke-width:1.12439156px;stroke-linecap:butt;stroke-linejoin:miter;stroke-opacity:1"
       d="M 51.402568,128.62879 34.714399,168.53197"
       id="path4497"
       inkscape:connector-type="polyline"
       inkscape:connector-curvature="0"
       inkscape:connection-start="#path2985-7-4-9"
       inkscape:connection-start-point="d4"
       inkscape:connection-end="#path2985"
       inkscape:connection-end-point="d4" />
    <path
       sodipodi:type="arc"
       style="fill:#ffffff;fill-opacity:1;stroke:#000000;stroke-width:1.77165353;stroke-linecap:round;stroke-linejoin:round;stroke-miterlimit:4;stroke-opacity:1;stroke-dasharray:none;stroke-dashoffset:0"
       id="path2985-7-4-9-3-4"
       sodipodi:cx="215.16249"
       sodipodi:cy="74.534515"
       sodipodi:rx="22.223356"
       sodipodi:ry="22.223356"
       d="m 237.38585,74.534515 c 0,12.273621 -9.94974,22.223357 -22.22336,22.223357 -12.27362,0 -22.22336,-9.949736 -22.22336,-22.223357 0,-12.27362 9.94974,-22.223356 22.22336,-22.223356 12.27362,0 22.22336,9.949736 22.22336,22.223356 z"
       transform="matrix(0.7483747,0,0,0.7483747,150.49726,60.304338)" />
    <path
       sodipodi:type="arc"
       style="fill:#ffffff;fill-opacity:1;stroke:#000000;stroke-width:1.77165353;stroke-linecap:round;stroke-linejoin:round;stroke-miterlimit:4;stroke-opacity:1;stroke-dasharray:none;stroke-dashoffset:0"
       id="path2985-7-4-9-3-2-0"
       sodipodi:cx="215.16249"
       sodipodi:cy="74.534515"
       sodipodi:rx="22.223356"
       sodipodi:ry="22.223356"
       d="m 237.38585,74.534515 c 0,12.273621 -9.94974,22.223357 -22.22336,22.223357 -12.27362,0 -22.22336,-9.949736 -22.22336,-22.223357 0,-12.27362 9.94974,-22.223356 22.22336,-22.223356 12.27362,0 22.22336,9.949736 22.22336,22.223356 z"
       transform="matrix(0.7483747,0,0,0.7483747,118.69288,3.8676145)" />
    <path
       style="fill:none;stroke:#000000;stroke-width:0.97616875px;stroke-linecap:butt;stroke-linejoin:miter;stroke-opacity:1"
       d="M 303.35281,101.59246 287.88166,74.138986"
       id="path4491-1"
       inkscape:connector-type="polyline"
       inkscape:connector-curvature="0"
       inkscape:connection-start="#path2985-7-4-9-3-4"
       inkscape:connection-start-point="d4"
       inkscape:connection-end="#path2985-7-4-9-3-2-0"
       inkscape:connection-end-point="d4" />
    <path
       sodipodi:type="arc"
       style="fill:#ffffff;fill-opacity:1;stroke:#000000;stroke-width:1.77165353;stroke-linecap:round;stroke-linejoin:round;stroke-miterlimit:4;stroke-opacity:1;stroke-dasharray:none;stroke-dashoffset:0"
       id="path2985-7-3"
       sodipodi:cx="215.16249"
       sodipodi:cy="74.534515"
       sodipodi:rx="22.223356"
       sodipodi:ry="22.223356"
       d="m 237.38585,74.534515 c 0,12.273621 -9.94974,22.223357 -22.22336,22.223357 -12.27362,0 -22.22336,-9.949736 -22.22336,-22.223357 0,-12.27362 9.94974,-22.223356 22.22336,-22.223356 12.27362,0 22.22336,9.949736 22.22336,22.223356 z"
       transform="matrix(0.7483747,0,0,0.7483747,176.00265,130.43022)" />
    <path
       style="fill:none;stroke:#000000;stroke-width:1.01624465;stroke-linecap:butt;stroke-linejoin:miter;stroke-miterlimit:4;stroke-opacity:1;stroke-dasharray:none"
       d="M 317.20563,131.71805 331.3386,170.576"
       id="path3053"
       inkscape:connector-type="polyline"
       inkscape:connector-curvature="0"
       inkscape:connection-end-point="d4"
       inkscape:connection-end="#path2985-7-3"
       inkscape:connection-start-point="d4"
       inkscape:connection-start="#path2985-7-4-9-3-4" />
    <path
       sodipodi:type="arc"
       style="fill:#ffffff;fill-opacity:1;stroke:#000000;stroke-width:1.77165353;stroke-linecap:round;stroke-linejoin:round;stroke-miterlimit:4;stroke-opacity:1;stroke-dasharray:none;stroke-dashoffset:0"
       id="path2985-5"
       sodipodi:cx="215.16249"
       sodipodi:cy="74.534515"
       sodipodi:rx="22.223356"
       sodipodi:ry="22.223356"
       d="m 237.38585,74.534515 c 0,12.273621 -9.94974,22.223357 -22.22336,22.223357 -12.27362,0 -22.22336,-9.949736 -22.22336,-22.223357 0,-12.27362 9.94974,-22.223356 22.22336,-22.223356 12.27362,0 22.22336,9.949736 22.22336,22.223356 z"
       transform="matrix(0.76575798,0,0,0.76575798,234.6185,129.13457)" />
    <path
       sodipodi:type="arc"
       style="fill:#ffffff;fill-opacity:1;stroke:#000000;stroke-width:1.77165353;stroke-linecap:round;stroke-linejoin:round;stroke-miterlimit:4;stroke-opacity:1;stroke-dasharray:none;stroke-dashoffset:0"
       id="path2985-7-45"
       sodipodi:cx="215.16249"
       sodipodi:cy="74.534515"
       sodipodi:rx="22.223356"
       sodipodi:ry="22.223356"
       d="m 237.38585,74.534515 c 0,12.273621 -9.94974,22.223357 -22.22336,22.223357 -12.27362,0 -22.22336,-9.949736 -22.22336,-22.223357 0,-12.27362 9.94974,-22.223356 22.22336,-22.223356 12.27362,0 22.22336,9.949736 22.22336,22.223356 z"
       transform="matrix(0.76575798,0,0,0.76575798,346.45936,129.13457)" />
    <path
       sodipodi:type="arc"
       style="fill:#ffffff;fill-opacity:1;stroke:#000000;stroke-width:1.77165353;stroke-linecap:round;stroke-linejoin:round;stroke-miterlimit:4;stroke-opacity:1;stroke-dasharray:none;stroke-dashoffset:0"
       id="path2985-7-4-6"
       sodipodi:cx="215.16249"
       sodipodi:cy="74.534515"
       sodipodi:rx="22.223356"
       sodipodi:ry="22.223356"
       d="m 237.38585,74.534515 c 0,12.273621 -9.94974,22.223357 -22.22336,22.223357 -12.27362,0 -22.22336,-9.949736 -22.22336,-22.223357 0,-12.27362 9.94974,-22.223356 22.22336,-22.223356 12.27362,0 22.22336,9.949736 22.22336,22.223356 z"
       transform="matrix(0.76575798,0,0,0.76575798,318.49915,56.306019)" />
    <path
       sodipodi:type="arc"
       style="fill:#ffffff;fill-opacity:1;stroke:#000000;stroke-width:1.77165353;stroke-linecap:round;stroke-linejoin:round;stroke-miterlimit:4;stroke-opacity:1;stroke-dasharray:none;stroke-dashoffset:0"
       id="path2985-7-4-9-9"
       sodipodi:cx="215.16249"
       sodipodi:cy="74.534515"
       sodipodi:rx="22.223356"
       sodipodi:ry="22.223356"
       d="m 237.38585,74.534515 c 0,12.273621 -9.94974,22.223357 -22.22336,22.223357 -12.27362,0 -22.22336,-9.949736 -22.22336,-22.223357 0,-12.27362 9.94974,-22.223356 22.22336,-22.223356 12.27362,0 22.22336,9.949736 22.22336,22.223356 z"
       transform="matrix(0.76575798,0,0,0.76575798,262.57872,56.306019)" />
    <path
       sodipodi:type="arc"
       style="fill:#ffffff;fill-opacity:1;stroke:#000000;stroke-width:1.77165353;stroke-linecap:round;stroke-linejoin:round;stroke-miterlimit:4;stroke-opacity:1;stroke-dasharray:none;stroke-dashoffset:0"
       id="path2985-7-4-9-3-1"
       sodipodi:cx="215.16249"
       sodipodi:cy="74.534515"
       sodipodi:rx="22.223356"
       sodipodi:ry="22.223356"
       d="m 237.38585,74.534515 c 0,12.273621 -9.94974,22.223357 -22.22336,22.223357 -12.27362,0 -22.22336,-9.949736 -22.22336,-22.223357 0,-12.27362 9.94974,-22.223356 22.22336,-22.223356 12.27362,0 22.22336,9.949736 22.22336,22.223356 z"
       transform="matrix(0.76575798,0,0,0.76575798,402.3798,129.13457)" />
    <path
       sodipodi:type="arc"
       style="fill:#ffffff;fill-opacity:1;stroke:#000000;stroke-width:1.77165353;stroke-linecap:round;stroke-linejoin:round;stroke-miterlimit:4;stroke-opacity:1;stroke-dasharray:none;stroke-dashoffset:0"
       id="path2985-7-4-9-3-2-9"
       sodipodi:cx="215.16249"
       sodipodi:cy="74.534515"
       sodipodi:rx="22.223356"
       sodipodi:ry="22.223356"
       d="m 237.38585,74.534515 c 0,12.273621 -9.94974,22.223357 -22.22336,22.223357 -12.27362,0 -22.22336,-9.949736 -22.22336,-22.223357 0,-12.27362 9.94974,-22.223356 22.22336,-22.223356 12.27362,0 22.22336,9.949736 22.22336,22.223356 z"
       transform="matrix(0.76575798,0,0,0.76575798,374.41959,56.306019)" />
    <path
       sodipodi:type="arc"
       style="fill:#ffffff;fill-opacity:1;stroke:#000000;stroke-width:1.77165353;stroke-linecap:round;stroke-linejoin:round;stroke-miterlimit:4;stroke-opacity:1;stroke-dasharray:none;stroke-dashoffset:0"
       id="path2985-7-4-9-3-2-4-6"
       sodipodi:cx="215.16249"
       sodipodi:cy="74.534515"
       sodipodi:rx="22.223356"
       sodipodi:ry="22.223356"
       d="m 237.38585,74.534515 c 0,12.273621 -9.94974,22.223357 -22.22336,22.223357 -12.27362,0 -22.22336,-9.949736 -22.22336,-22.223357 0,-12.27362 9.94974,-22.223356 22.22336,-22.223356 12.27362,0 22.22336,9.949736 22.22336,22.223356 z"
       transform="matrix(0.76575798,0,0,0.76575798,318.49915,2.5719601)" />
    <path
       sodipodi:type="arc"
       style="fill:#ffffff;fill-opacity:1;stroke:#000000;stroke-width:1.77165353;stroke-linecap:round;stroke-linejoin:round;stroke-miterlimit:4;stroke-opacity:1;stroke-dasharray:none;stroke-dashoffset:0"
       id="path2985-7-4-9-3-2-4-0-95"
       sodipodi:cx="215.16249"
       sodipodi:cy="74.534515"
       sodipodi:rx="22.223356"
       sodipodi:ry="22.223356"
       d="m 237.38585,74.534515 c 0,12.273621 -9.94974,22.223357 -22.22336,22.223357 -12.27362,0 -22.22336,-9.949736 -22.22336,-22.223357 0,-12.27362 9.94974,-22.223356 22.22336,-22.223356 12.27362,0 22.22336,9.949736 22.22336,22.223356 z"
       transform="matrix(0.76575798,0,0,0.76575798,290.53893,129.13457)" />
    <path
       style="fill:none;stroke:#000000;stroke-width:0.99884325px;stroke-linecap:butt;stroke-linejoin:miter;stroke-opacity:1"
       d="M 439.61196,101.59034 470.9907,71.438441"
       id="path4485-9"
       inkscape:connector-type="polyline"
       inkscape:connector-curvature="0"
       inkscape:connection-start="#path2985-7-4-9-9"
       inkscape:connection-start-point="d4"
       inkscape:connection-end="#path2985-7-4-9-3-2-4-6"
       inkscape:connection-end-point="d4" />
    <path
       style="fill:none;stroke:#000000;stroke-width:0.99884325px;stroke-linecap:butt;stroke-linejoin:miter;stroke-opacity:1"
       d="m 483.26154,96.363707 0,-19.698635"
       id="path4487-8"
       inkscape:connector-type="polyline"
       inkscape:connector-curvature="0"
       inkscape:connection-start="#path2985-7-4-6"
       inkscape:connection-start-point="d4"
       inkscape:connection-end="#path2985-7-4-9-3-2-4-6"
       inkscape:connection-end-point="d4" />
    <path
       style="fill:none;stroke:#000000;stroke-width:0.99929595;stroke-linecap:butt;stroke-linejoin:miter;stroke-miterlimit:4;stroke-opacity:1;stroke-dasharray:none"
       d="M 526.91114,101.59034 495.53239,71.43844"
       id="path4489-4"
       inkscape:connector-type="polyline"
       inkscape:connector-curvature="0"
       inkscape:connection-start="#path2985-7-4-9-3-2-9"
       inkscape:connection-start-point="d4"
       inkscape:connection-end="#path2985-7-4-9-3-2-4-6"
       inkscape:connection-end-point="d4" />
    <path
       style="fill:none;stroke:#000000;stroke-width:0.99884325px;stroke-linecap:butt;stroke-linejoin:miter;stroke-opacity:1"
       d="M 561.0412,170.31857 545.28298,129.27282"
       id="path4491-6"
       inkscape:connector-type="polyline"
       inkscape:connector-curvature="0"
       inkscape:connection-start="#path2985-7-4-9-3-1"
       inkscape:connection-start-point="d4"
       inkscape:connection-end="#path2985-7-4-9-3-2-9"
       inkscape:connection-end-point="d4" />
    <path
       style="fill:none;stroke:#000000;stroke-width:0.99884325px;stroke-linecap:butt;stroke-linejoin:miter;stroke-opacity:1"
       d="m 477.16054,129.27282 -15.75822,41.04575"
       id="path4493-7"
       inkscape:connector-type="polyline"
       inkscape:connector-curvature="0"
       inkscape:connection-start="#path2985-7-4-6"
       inkscape:connection-start-point="d4"
       inkscape:connection-end="#path2985-7-4-9-3-2-4-0-95"
       inkscape:connection-end-point="d4" />
    <path
       style="fill:none;stroke:#000000;stroke-width:0.99884325px;stroke-linecap:butt;stroke-linejoin:miter;stroke-opacity:1"
       d="m 489.36254,129.27282 15.75822,41.04575"
       id="path4495-3"
       inkscape:connector-type="polyline"
       inkscape:connector-curvature="0"
       inkscape:connection-start="#path2985-7-4-6"
       inkscape:connection-start-point="d4"
       inkscape:connection-end="#path2985-7-45"
       inkscape:connection-end-point="d4" />
    <path
       style="fill:none;stroke:#000000;stroke-width:0.99884325px;stroke-linecap:butt;stroke-linejoin:miter;stroke-opacity:1"
       d="m 421.24011,129.27282 -15.75822,41.04575"
       id="path4497-0"
       inkscape:connector-type="polyline"
       inkscape:connector-curvature="0"
       inkscape:connection-start="#path2985-7-4-9-9"
       inkscape:connection-start-point="d4"
       inkscape:connection-end="#path2985-5"
       inkscape:connection-end-point="d4" />
    <path
       sodipodi:type="arc"
       style="fill:#ffffff;fill-opacity:1;stroke:#000000;stroke-width:1.77165353;stroke-linecap:round;stroke-linejoin:round;stroke-miterlimit:4;stroke-opacity:1;stroke-dasharray:none;stroke-dashoffset:0"
       id="path2985-7-4-6-6"
       sodipodi:cx="215.16249"
       sodipodi:cy="74.534515"
       sodipodi:rx="22.223356"
       sodipodi:ry="22.223356"
       d="m 237.38585,74.534515 c 0,12.273621 -9.94974,22.223357 -22.22336,22.223357 -12.27362,0 -22.22336,-9.949736 -22.22336,-22.223357 0,-12.27362 9.94974,-22.223356 22.22336,-22.223356 12.27362,0 22.22336,9.949736 22.22336,22.223356 z"
       transform="matrix(0.76575798,0,0,0.76575798,474.7621,57.162151)" />
    <path
       sodipodi:type="arc"
       style="fill:#ffffff;fill-opacity:1;stroke:#000000;stroke-width:1.77165353;stroke-linecap:round;stroke-linejoin:round;stroke-miterlimit:4;stroke-opacity:1;stroke-dasharray:none;stroke-dashoffset:0"
       id="path2985-7-4-9-3-2-9-5"
       sodipodi:cx="215.16249"
       sodipodi:cy="74.534515"
       sodipodi:rx="22.223356"
       sodipodi:ry="22.223356"
       d="m 237.38585,74.534515 c 0,12.273621 -9.94974,22.223357 -22.22336,22.223357 -12.27362,0 -22.22336,-9.949736 -22.22336,-22.223357 0,-12.27362 9.94974,-22.223356 22.22336,-22.223356 12.27362,0 22.22336,9.949736 22.22336,22.223356 z"
       transform="matrix(0.76575798,0,0,0.76575798,530.68254,57.162151)" />
    <path
       sodipodi:type="arc"
       style="fill:#ffffff;fill-opacity:1;stroke:#000000;stroke-width:1.77165353;stroke-linecap:round;stroke-linejoin:round;stroke-miterlimit:4;stroke-opacity:1;stroke-dasharray:none;stroke-dashoffset:0"
       id="path2985-7-4-9-3-2-4-6-4"
       sodipodi:cx="215.16249"
       sodipodi:cy="74.534515"
       sodipodi:rx="22.223356"
       sodipodi:ry="22.223356"
       d="m 237.38585,74.534515 c 0,12.273621 -9.94974,22.223357 -22.22336,22.223357 -12.27362,0 -22.22336,-9.949736 -22.22336,-22.223357 0,-12.27362 9.94974,-22.223356 22.22336,-22.223356 12.27362,0 22.22336,9.949736 22.22336,22.223356 z"
       transform="matrix(0.76575798,0,0,0.76575798,502.72231,2.5719601)" />
    <path
       style="fill:none;stroke:#000000;stroke-width:0.99884325px;stroke-linecap:butt;stroke-linejoin:miter;stroke-opacity:1"
       d="M 647.28396,99.087783 659.72524,74.797128"
       id="path4487-8-0"
       inkscape:connector-type="polyline"
       inkscape:connector-curvature="0"
       inkscape:connection-start="#path2985-7-4-6-6"
       inkscape:connection-start-point="d4"
       inkscape:connection-end="#path2985-7-4-9-3-2-4-6-4"
       inkscape:connection-end-point="d4" />
    <path
       style="fill:none;stroke:#000000;stroke-width:0.99929595;stroke-linecap:butt;stroke-linejoin:miter;stroke-miterlimit:4;stroke-opacity:1;stroke-dasharray:none"
       d="M 687.68546,99.087785 675.24417,74.797126"
       id="path4489-4-8"
       inkscape:connector-type="polyline"
       inkscape:connector-curvature="0"
       inkscape:connection-start="#path2985-7-4-9-3-2-9-5"
       inkscape:connection-start-point="d4"
       inkscape:connection-end="#path2985-7-4-9-3-2-4-6-4"
       inkscape:connection-end-point="d4" />
    <path
       style="fill:none;stroke:#000000;stroke-width:1.0629921;stroke-linecap:butt;stroke-linejoin:miter;stroke-miterlimit:4;stroke-opacity:1;stroke-dasharray:1.06299213, 1.06299213;stroke-dashoffset:0"
       d="m 240.45385,40.226644 0,218.814176"
       id="path6034"
       inkscape:connector-curvature="0"
       sodipodi:nodetypes="cc" />
    <path
       sodipodi:type="arc"
       style="fill:#ffffff;fill-opacity:1;stroke:#000000;stroke-width:1.77165353;stroke-linecap:round;stroke-linejoin:round;stroke-miterlimit:4;stroke-opacity:1;stroke-dasharray:none;stroke-dashoffset:0"
       id="path2985-7-4-9-3-2-4-0-95-2"
       sodipodi:cx="215.16249"
       sodipodi:cy="74.534515"
       sodipodi:rx="22.223356"
       sodipodi:ry="22.223356"
       d="m 237.38585,74.534515 c 0,12.273621 -9.94974,22.223357 -22.22336,22.223357 -12.27362,0 -22.22336,-9.949736 -22.22336,-22.223357 0,-12.27362 9.94974,-22.223356 22.22336,-22.223356 12.27362,0 22.22336,9.949736 22.22336,22.223356 z"
       transform="matrix(0.76575798,0,0,0.76575798,260.21781,182.96035)" />
    <path
       style="fill:none;stroke:#000000;stroke-width:1px;stroke-linecap:butt;stroke-linejoin:miter;stroke-opacity:1"
       d="m 446.9475,201.03961 -13.61347,24.1665"
       id="path6635"
       inkscape:connector-type="polyline"
       inkscape:connector-curvature="0"
       inkscape:connection-start="#path2985-7-4-9-3-2-4-0-95"
       inkscape:connection-start-point="d4"
       inkscape:connection-end="#path2985-7-4-9-3-2-4-0-95-2"
       inkscape:connection-end-point="d4" />
    <path
       style="fill:none;stroke:#000000;stroke-width:0.99921262;stroke-linecap:butt;stroke-linejoin:miter;stroke-miterlimit:4;stroke-opacity:1;stroke-dasharray:0.9992126, 0.9992126;stroke-dashoffset:0"
       d="m 375.66548,40.226642 0,218.814178"
       id="path6034-5"
       inkscape:connector-curvature="0"
       sodipodi:nodetypes="cc" />
    <path
       style="fill:none;stroke:#000000;stroke-width:0.99921262;stroke-linecap:butt;stroke-linejoin:miter;stroke-miterlimit:4;stroke-opacity:1;stroke-dasharray:0.9992126, 0.9992126;stroke-dashoffset:0"
       d="m 604.08855,40.226645 0,218.814175"
       id="path6034-4"
       inkscape:connector-curvature="0"
       sodipodi:nodetypes="cc" />
    <text
       xml:space="preserve"
       style="font-size:28px;font-style:normal;font-variant:normal;font-weight:normal;font-stretch:normal;text-align:center;line-height:125%;letter-spacing:0px;word-spacing:0px;text-anchor:middle;fill:#000000;fill-opacity:1;stroke:none;font-family:DejaVu Sans;-inkscape-font-specification:DejaVu Sans"
       x="122.58006"
       y="32.115547"
       id="text6673"
       sodipodi:linespacing="125%"><tspan
         sodipodi:role="line"
         id="tspan6675"
         x="122.58006"
         y="32.115547"
         style="font-size:20px">Altura=3</tspan></text>
    <text
       xml:space="preserve"
       style="font-size:28px;font-style:normal;font-variant:normal;font-weight:normal;font-stretch:normal;text-align:center;line-height:125%;letter-spacing:0px;word-spacing:0px;text-anchor:middle;fill:#000000;fill-opacity:1;stroke:none;font-family:DejaVu Sans;-inkscape-font-specification:DejaVu Sans"
       x="309.10709"
       y="32.115547"
       id="text6673-4"
       sodipodi:linespacing="125%"><tspan
         sodipodi:role="line"
         id="tspan6675-1"
         x="309.10709"
         y="32.115547"
         style="font-size:20px">Altura=3</tspan></text>
    <text
       xml:space="preserve"
       style="font-size:28px;font-style:normal;font-variant:normal;font-weight:normal;font-stretch:normal;text-align:center;line-height:125%;letter-spacing:0px;word-spacing:0px;text-anchor:middle;fill:#000000;fill-opacity:1;stroke:none;font-family:DejaVu Sans;-inkscape-font-specification:DejaVu Sans"
       x="479.85724"
       y="32.115547"
       id="text6673-4-4"
       sodipodi:linespacing="125%"><tspan
         sodipodi:role="line"
         id="tspan6675-1-9"
         x="479.85724"
         y="32.115547"
         style="font-size:20px">Altura=4</tspan></text>
    <text
       xml:space="preserve"
       style="font-size:28px;font-style:normal;font-variant:normal;font-weight:normal;font-stretch:normal;text-align:center;line-height:125%;letter-spacing:0px;word-spacing:0px;text-anchor:middle;fill:#000000;fill-opacity:1;stroke:none;font-family:DejaVu Sans;-inkscape-font-specification:DejaVu Sans"
       x="670.51984"
       y="32.115547"
       id="text6673-4-4-3"
       sodipodi:linespacing="125%"><tspan
         sodipodi:role="line"
         id="tspan6675-1-9-4"
         x="670.51984"
         y="32.115547"
         style="font-size:20px">Altura=2</tspan></text>
    <path
       style="fill:none;stroke:#000000;stroke-width:1.0629921;stroke-linecap:butt;stroke-linejoin:miter;stroke-miterlimit:4;stroke-opacity:1;stroke-dasharray:1.06299213, 2.12598425;stroke-dashoffset:0"
       d="m -41.24441,151.44755 771.44885,0"
       id="path3853"
       inkscape:connector-curvature="0"
       sodipodi:nodetypes="cc" />
    <path
       style="fill:none;stroke:#000000;stroke-width:1.0629921;stroke-linecap:butt;stroke-linejoin:miter;stroke-miterlimit:4;stroke-opacity:1;stroke-dasharray:1.06299213, 2.12598425;stroke-dashoffset:0"
       d="m -41.24441,83.68791 774.90381,0"
       id="path3853-4"
       inkscape:connector-curvature="0"
       sodipodi:nodetypes="cc" />
    <path
       style="fill:none;stroke:#000000;stroke-width:1.0629921;stroke-linecap:butt;stroke-linejoin:miter;stroke-miterlimit:4;stroke-opacity:1;stroke-dasharray:1.06299213, 2.12598425;stroke-dashoffset:0"
       d="m -41.2444,216.33782 769.72136,0"
       id="path3853-1"
       inkscape:connector-curvature="0"
       sodipodi:nodetypes="cc" />
    <path
       style="fill:none;stroke:#000000;stroke-width:1.0629921;stroke-linecap:butt;stroke-linejoin:miter;stroke-miterlimit:4;stroke-opacity:1;stroke-dasharray:1.06299213, 2.12598425;stroke-dashoffset:0"
       d="m -41.24441,268.66277 767.99389,0"
       id="path3853-9"
       inkscape:connector-curvature="0"
       sodipodi:nodetypes="cc" />
    <text
       xml:space="preserve"
       style="font-size:9.32925606px;font-style:normal;font-variant:normal;font-weight:normal;font-stretch:normal;text-align:center;line-height:125%;letter-spacing:0px;word-spacing:0px;text-anchor:middle;fill:#000000;fill-opacity:1;stroke:none;font-family:DejaVu Sans;-inkscape-font-specification:DejaVu Sans"
       x="724.55933"
       y="81.246132"
       id="text3891"
       sodipodi:linespacing="125%"><tspan
         sodipodi:role="line"
         id="tspan3893"
         x="724.55933"
         y="81.246132">Nível 0</tspan></text>
    <text
       xml:space="preserve"
       style="font-size:9.32925606px;font-style:normal;font-variant:normal;font-weight:normal;font-stretch:normal;text-align:center;line-height:125%;letter-spacing:0px;word-spacing:0px;text-anchor:middle;fill:#000000;fill-opacity:1;stroke:none;font-family:DejaVu Sans;-inkscape-font-specification:DejaVu Sans"
       x="724.6322"
       y="147.72433"
       id="text3891-6"
       sodipodi:linespacing="125%"><tspan
         sodipodi:role="line"
         id="tspan3893-3"
         x="724.6322"
         y="147.72433">Nível 1</tspan></text>
    <text
       xml:space="preserve"
       style="font-size:9.32925606px;font-style:normal;font-variant:normal;font-weight:normal;font-stretch:normal;text-align:center;line-height:125%;letter-spacing:0px;word-spacing:0px;text-anchor:middle;fill:#000000;fill-opacity:1;stroke:none;font-family:DejaVu Sans;-inkscape-font-specification:DejaVu Sans"
       x="724.44543"
       y="213.28186"
       id="text3891-4"
       sodipodi:linespacing="125%"><tspan
         sodipodi:role="line"
         id="tspan3893-2"
         x="724.44543"
         y="213.28186">Nível 2</tspan></text>
    <text
       xml:space="preserve"
       style="font-size:9.32925606px;font-style:normal;font-variant:normal;font-weight:normal;font-stretch:normal;text-align:center;line-height:125%;letter-spacing:0px;word-spacing:0px;text-anchor:middle;fill:#000000;fill-opacity:1;stroke:none;font-family:DejaVu Sans;-inkscape-font-specification:DejaVu Sans"
       x="724.22223"
       y="263.60681"
       id="text3891-2"
       sodipodi:linespacing="125%"><tspan
         sodipodi:role="line"
         id="tspan3893-7"
         x="724.22223"
         y="263.60681">Nível 3</tspan></text>
  </g>
</svg>
