<?xml version="1.0" encoding="UTF-8" standalone="no"?>
<!-- Created with Inkscape (http://www.inkscape.org/) -->

<svg
   xmlns:dc="http://purl.org/dc/elements/1.1/"
   xmlns:cc="http://creativecommons.org/ns#"
   xmlns:rdf="http://www.w3.org/1999/02/22-rdf-syntax-ns#"
   xmlns:svg="http://www.w3.org/2000/svg"
   xmlns="http://www.w3.org/2000/svg"
   xmlns:sodipodi="http://sodipodi.sourceforge.net/DTD/sodipodi-0.dtd"
   xmlns:inkscape="http://www.inkscape.org/namespaces/inkscape"
   width="1391.5387"
   height="199.02831"
   id="svg4296"
   version="1.1"
   inkscape:version="0.48.4 r9939"
   sodipodi:docname="New document 7">
  <defs
     id="defs4298" />
  <sodipodi:namedview
     inkscape:document-units="mm"
     pagecolor="#ffffff"
     bordercolor="#666666"
     borderopacity="1.0"
     inkscape:pageopacity="0.0"
     inkscape:pageshadow="2"
     inkscape:zoom="0.86831672"
     inkscape:cx="836.74073"
     inkscape:cy="39.489044"
     inkscape:current-layer="layer1"
     id="namedview4300"
     showgrid="false"
     units="mm"
     fit-margin-top="0"
     fit-margin-left="0"
     fit-margin-right="0"
     fit-margin-bottom="0"
     inkscape:window-width="1301"
     inkscape:window-height="744"
     inkscape:window-x="339"
     inkscape:window-y="1104"
     inkscape:window-maximized="1" />
  <metadata
     id="metadata4302">
    <rdf:RDF>
      <cc:Work
         rdf:about="">
        <dc:format>image/svg+xml</dc:format>
        <dc:type
           rdf:resource="http://purl.org/dc/dcmitype/StillImage" />
        <dc:title></dc:title>
      </cc:Work>
    </rdf:RDF>
  </metadata>
  <g
     inkscape:label="Layer 1"
     inkscape:groupmode="layer"
     id="layer1"
     transform="translate(246.25254,-152.71775)">
    <path
       style="fill:#ff00ff;stroke:none"
       d="m 794.19492,303.44212 c 0.14337,-16.19489 0.65903,-26.10314 10.66635,-36.84629 5.40053,-5.74768 10.98316,-12.17442 17.71564,-16.76607 16.67652,-11.37363 33.08212,-18.95973 43.48256,-1.93919 1.0669,1.74601 1.44809,4.24587 2.27806,6.354 1.35937,3.45281 1.84148,8.19115 0.9524,13.24406 -0.65811,3.74028 -2.65325,7.62039 -2.54356,11.44886 0.029,1.01193 -9.59643,19.09083 -27.54386,27.06394 -16.28403,7.23415 -33.04907,4.4215 -33.08127,5.4083"
       id="path5357-6-0-1-8"
       inkscape:connector-curvature="0"
       sodipodi:nodetypes="ccssssssc" />
    <path
       style="fill:#ff00ff;stroke:none"
       d="m 542.75149,270.37337 c -0.15199,-1.89562 -4.89355,-16.98042 -4.86595,-18.78628 0.76599,-50.12112 68.31424,-64.88742 70.14849,-0.8323 0.0553,1.93008 -2.39215,18.79347 -2.45984,20.86787"
       id="path5357-6-0-1"
       inkscape:connector-curvature="0"
       sodipodi:nodetypes="cssc" />
    <path
       style="fill:#ff00ff;fill-opacity:1;stroke:none"
       d="m 325.08307,214.81268 57.87248,91.20031 7.95738,8.19368 -17.19016,-9.57585 -11.51941,-9.38677 -25.07328,-19.34836 -1.92065,-6.16185 -12.49105,2.79319 z"
       id="rect4830-7"
       inkscape:connector-curvature="0"
       sodipodi:nodetypes="ccccccccc" />
    <path
       style="fill:#ff00ff;fill-opacity:1;stroke:none"
       d="m -46.210613,189.12439 107.343751,53.12982 -36.220667,44.4319 -39.499602,-0.84351 -9.075371,-7.58216 -13.439679,-21.79617 -6.1799,-11.4578 z"
       id="rect4830"
       inkscape:connector-curvature="0"
       sodipodi:nodetypes="cccccccc" />
    <path
       sodipodi:type="arc"
       style="fill:#ff00ff;stroke:#000000;stroke-width:0.74655885;stroke-linecap:round;stroke-linejoin:round;stroke-miterlimit:4;stroke-opacity:1;stroke-dasharray:none;stroke-dashoffset:0"
       id="path5266-4"
       sodipodi:cx="1193.4952"
       sodipodi:cy="447.11487"
       sodipodi:rx="19.697975"
       sodipodi:ry="19.697975"
       d="m 1213.1932,447.11487 a 19.697975,19.697975 0 1 1 -15.1383,-19.16298"
       transform="matrix(-0.86779995,1.0337661,-0.86779995,-1.0337661,2544.3331,-588.31937)"
       sodipodi:start="0"
       sodipodi:end="4.9459863"
       sodipodi:open="true" />
    <path
       style="fill:none;stroke:#000000;stroke-width:1;stroke-linecap:round;stroke-linejoin:round;stroke-miterlimit:4;stroke-opacity:1;stroke-dashoffset:0"
       d="m 852.39396,228.49588 c 46.3778,44.11082 -11.8129,100.79699 -58.3528,75.78069"
       id="path5357-6-5"
       inkscape:connector-curvature="0"
       sodipodi:nodetypes="cc" />
    <path
       style="fill:none;stroke:#000000;stroke-width:1.04329002;stroke-linecap:round;stroke-linejoin:round;stroke-miterlimit:4;stroke-opacity:1;stroke-dashoffset:0"
       d="m 538.08994,256.93801 c -4.4974,-56.09326 72.343,-73.77887 69.9482,-0.37939"
       id="path5357-6-0"
       inkscape:connector-curvature="0"
       sodipodi:nodetypes="cc" />
    <path
       sodipodi:type="arc"
       style="fill:#cccccc;fill-opacity:1;stroke:#000000;stroke-width:1.77165353;stroke-linecap:round;stroke-linejoin:round;stroke-miterlimit:4;stroke-opacity:1;stroke-dasharray:none;stroke-dashoffset:0"
       id="path2985-1-6-3-8"
       sodipodi:cx="215.16249"
       sodipodi:cy="74.534515"
       sodipodi:rx="22.223356"
       sodipodi:ry="22.223356"
       d="m 237.38585,74.534515 a 22.223356,22.223356 0 1 1 -44.44672,0 22.223356,22.223356 0 1 1 44.44672,0 z"
       transform="matrix(0.76664482,0,0,0.76664482,-185.37763,228.64426)" />
    <path
       sodipodi:type="arc"
       style="fill:#cccccc;fill-opacity:1;stroke:#000000;stroke-width:1.77165353;stroke-linecap:round;stroke-linejoin:round;stroke-miterlimit:4;stroke-opacity:1;stroke-dasharray:none;stroke-dashoffset:0"
       id="path2985-7-45-9-30-0"
       sodipodi:cx="215.16249"
       sodipodi:cy="74.534515"
       sodipodi:rx="22.223356"
       sodipodi:ry="22.223356"
       d="m 237.38585,74.534515 a 22.223356,22.223356 0 1 1 -44.44672,0 22.223356,22.223356 0 1 1 44.44672,0 z"
       transform="matrix(0.76664482,0,0,0.76664482,-210.12294,133.42925)" />
    <path
       sodipodi:type="arc"
       style="fill:#cccccc;fill-opacity:1;stroke:#000000;stroke-width:1.77165353;stroke-linecap:round;stroke-linejoin:round;stroke-miterlimit:4;stroke-opacity:1;stroke-dasharray:none;stroke-dashoffset:0"
       id="path2985-7-4-3-3-5-2"
       sodipodi:cx="215.16249"
       sodipodi:cy="74.534515"
       sodipodi:rx="22.223356"
       sodipodi:ry="22.223356"
       d="m 237.38585,74.534515 a 22.223356,22.223356 0 1 1 -44.44672,0 22.223356,22.223356 0 1 1 44.44672,0 z"
       transform="matrix(0.76664482,0,0,0.76664482,-94.488633,228.64426)" />
    <path
       sodipodi:type="arc"
       style="fill:#cccccc;fill-opacity:1;stroke:#000000;stroke-width:1.77165353;stroke-linecap:round;stroke-linejoin:round;stroke-miterlimit:4;stroke-opacity:1;stroke-dasharray:none;stroke-dashoffset:0"
       id="path2985-7-4-9-5-8-3-0"
       sodipodi:cx="215.16249"
       sodipodi:cy="74.534515"
       sodipodi:rx="22.223356"
       sodipodi:ry="22.223356"
       d="m 237.38585,74.534515 a 22.223356,22.223356 0 1 1 -44.44672,0 22.223356,22.223356 0 1 1 44.44672,0 z"
       transform="matrix(0.76664482,0,0,0.76664482,-352.58984,229.02426)" />
    <path
       sodipodi:type="arc"
       style="fill:#cccccc;fill-opacity:1;stroke:#000000;stroke-width:1.77165353;stroke-linecap:round;stroke-linejoin:round;stroke-miterlimit:4;stroke-opacity:1;stroke-dasharray:none;stroke-dashoffset:0"
       id="path2985-7-4-9-3-1-6-3-4"
       sodipodi:cx="215.16249"
       sodipodi:cy="74.534515"
       sodipodi:rx="22.223356"
       sodipodi:ry="22.223356"
       d="m 237.38585,74.534515 a 22.223356,22.223356 0 1 1 -44.44672,0 22.223356,22.223356 0 1 1 44.44672,0 z"
       transform="matrix(0.76664482,0,0,0.76664482,-209.20501,185.23251)" />
    <path
       sodipodi:type="arc"
       style="fill:#cccccc;fill-opacity:1;stroke:#000000;stroke-width:1.77165353;stroke-linecap:round;stroke-linejoin:round;stroke-miterlimit:4;stroke-opacity:1;stroke-dasharray:none;stroke-dashoffset:0"
       id="path2985-7-4-9-3-2-0-6-4-6"
       sodipodi:cx="215.16249"
       sodipodi:cy="74.534515"
       sodipodi:rx="22.223356"
       sodipodi:ry="22.223356"
       d="m 237.38585,74.534515 a 22.223356,22.223356 0 1 1 -44.44672,0 22.223356,22.223356 0 1 1 44.44672,0 z"
       transform="matrix(0.76664482,0,0,0.76664482,-393.48921,229.02426)" />
    <path
       sodipodi:type="arc"
       style="fill:#cccccc;fill-opacity:1;stroke:#000000;stroke-width:1.77165353;stroke-linecap:round;stroke-linejoin:round;stroke-miterlimit:4;stroke-opacity:1;stroke-dasharray:none;stroke-dashoffset:0"
       id="path2985-7-4-9-3-2-4-1-3-5-1"
       sodipodi:cx="215.16249"
       sodipodi:cy="74.534515"
       sodipodi:rx="22.223356"
       sodipodi:ry="22.223356"
       d="m 237.38585,74.534515 a 22.223356,22.223356 0 1 1 -44.44672,0 22.223356,22.223356 0 1 1 44.44672,0 z"
       transform="matrix(0.76664482,0,0,0.76664482,-339.66183,185.23251)" />
    <path
       sodipodi:type="arc"
       style="fill:#cccccc;fill-opacity:1;stroke:#000000;stroke-width:1.77165353;stroke-linecap:round;stroke-linejoin:round;stroke-miterlimit:4;stroke-opacity:1;stroke-dasharray:none;stroke-dashoffset:0"
       id="path2985-7-4-9-3-2-4-0-4-1-88-99"
       sodipodi:cx="215.16249"
       sodipodi:cy="74.534515"
       sodipodi:rx="22.223356"
       sodipodi:ry="22.223356"
       d="m 237.38585,74.534515 a 22.223356,22.223356 0 1 1 -44.44672,0 22.223356,22.223356 0 1 1 44.44672,0 z"
       transform="matrix(0.76664482,0,0,0.76664482,-103.55023,185.23251)" />
    <path
       style="fill:#cccccc;stroke:#000000;stroke-width:1px;stroke-linecap:butt;stroke-linejoin:miter;stroke-opacity:1"
       d="m -44.867882,207.60555 0.314232,17.73366"
       id="path4403-1-2-8"
       inkscape:connector-type="polyline"
       inkscape:connector-curvature="0"
       inkscape:connection-start="#path2985-7-45-9-30-0"
       inkscape:connection-start-point="d4"
       inkscape:connection-end="#path2985-7-4-9-3-1-6-3-4"
       inkscape:connection-end-point="d4" />
    <path
       style="fill:#cccccc;stroke:#000000;stroke-width:1px;stroke-linecap:butt;stroke-linejoin:miter;stroke-opacity:1"
       d="m -182.81147,269.82124 3.27769,-11.10271"
       id="path4407-5-6-5"
       inkscape:connector-type="polyline"
       inkscape:connector-curvature="0"
       inkscape:connection-start="#path2985-7-4-9-5-8-3-0"
       inkscape:connection-start-point="d4"
       inkscape:connection-end="#path2985-7-4-9-3-2-4-1-3-5-1"
       inkscape:connection-end-point="d4" />
    <path
       style="fill:#cccccc;stroke:#000000;stroke-width:1px;stroke-linecap:butt;stroke-linejoin:miter;stroke-opacity:1"
       d="m -215.31946,275.41332 27.39429,-22.28687"
       id="path4409-1-1-2"
       inkscape:connector-type="polyline"
       inkscape:connector-curvature="0"
       inkscape:connection-start="#path2985-7-4-9-3-2-0-6-4-6"
       inkscape:connection-start-point="d4"
       inkscape:connection-end="#path2985-7-4-9-3-2-4-1-3-5-1"
       inkscape:connection-end-point="d4" />
    <path
       style="fill:#cccccc;stroke:#000000;stroke-width:1px;stroke-linecap:butt;stroke-linejoin:miter;stroke-opacity:1"
       d="m -28.623634,270.84739 -7.428954,-13.53501"
       id="path4411-3-7-9"
       inkscape:connector-type="polyline"
       inkscape:connector-curvature="0"
       inkscape:connection-start="#path2985-1-6-3-8"
       inkscape:connection-start-point="d4"
       inkscape:connection-end="#path2985-7-4-9-3-1-6-3-4"
       inkscape:connection-end-point="d4" />
    <path
       style="fill:#cccccc;stroke:#000000;stroke-width:1px;stroke-linecap:butt;stroke-linejoin:miter;stroke-opacity:1"
       d="M 66.982585,269.10445 64.88497,259.05532"
       id="path4413-3-6-0"
       inkscape:connector-type="polyline"
       inkscape:connector-curvature="0"
       inkscape:connection-start="#path2985-7-4-3-3-5-2"
       inkscape:connection-start-point="d4"
       inkscape:connection-end="#path2985-7-4-9-3-2-4-0-4-1-88-99"
       inkscape:connection-end-point="d4" />
    <path
       style="fill:#cccccc;stroke:#000000;stroke-width:1px;stroke-linecap:butt;stroke-linejoin:miter;stroke-opacity:1"
       d="M 46.076424,234.92402 -29.843175,198.02074"
       id="path4415-0-60-0"
       inkscape:connector-type="polyline"
       inkscape:connector-curvature="0"
       inkscape:connection-start="#path2985-7-4-9-3-2-4-0-4-1-88-99"
       inkscape:connection-start-point="d4"
       inkscape:connection-end="#path2985-7-45-9-30-0"
       inkscape:connection-end-point="d4" />
    <path
       sodipodi:type="arc"
       style="fill:#cccccc;fill-opacity:1;stroke:#000000;stroke-width:1.77165353;stroke-linecap:round;stroke-linejoin:round;stroke-miterlimit:4;stroke-opacity:1;stroke-dasharray:none;stroke-dashoffset:0"
       id="path2985-7-4-9-3-2-4-0-4-8-7-1-5-8"
       sodipodi:cx="215.16249"
       sodipodi:cy="74.534515"
       sodipodi:rx="22.223356"
       sodipodi:ry="22.223356"
       d="m 237.38585,74.534515 a 22.223356,22.223356 0 1 1 -44.44672,0 22.223356,22.223356 0 1 1 44.44672,0 z"
       transform="matrix(0.76664482,0,0,0.76664482,-311.69046,229.02426)" />
    <path
       sodipodi:type="arc"
       style="fill:#cccccc;fill-opacity:1;stroke:#000000;stroke-width:1.77165353;stroke-linecap:round;stroke-linejoin:round;stroke-miterlimit:4;stroke-opacity:1;stroke-dasharray:none;stroke-dashoffset:0"
       id="path2985-7-4-3-2-4-9-66"
       sodipodi:cx="215.16249"
       sodipodi:cy="74.534515"
       sodipodi:rx="22.223356"
       sodipodi:ry="22.223356"
       d="m 237.38585,74.534515 a 22.223356,22.223356 0 1 1 -44.44672,0 22.223356,22.223356 0 1 1 44.44672,0 z"
       transform="matrix(0.76664482,0,0,0.76664482,-270.79108,229.02426)" />
    <path
       style="fill:#cccccc;stroke:#000000;stroke-width:1px;stroke-linecap:butt;stroke-linejoin:miter;stroke-opacity:1"
       d="m -165.53628,256.73416 9.62668,15.07145"
       id="path5080-0-0-8"
       inkscape:connector-type="polyline"
       inkscape:connector-curvature="0"
       inkscape:connection-start="#path2985-7-4-9-3-2-4-1-3-5-1"
       inkscape:connection-start-point="d4"
       inkscape:connection-end="#path2985-7-4-9-3-2-4-0-4-8-7-1-5-8"
       inkscape:connection-end-point="d4" />
    <path
       style="fill:#cccccc;stroke:#000000;stroke-width:1px;stroke-linecap:butt;stroke-linejoin:miter;stroke-opacity:1"
       d="m -160.32968,251.51692 40.11286,25.50593"
       id="path5082-4-7-1"
       inkscape:connector-type="polyline"
       inkscape:connector-curvature="0"
       inkscape:connection-start="#path2985-7-4-9-3-2-4-1-3-5-1"
       inkscape:connection-start-point="d4"
       inkscape:connection-end="#path2985-7-4-3-2-4-9-66"
       inkscape:connection-end-point="d4" />
    <path
       sodipodi:type="arc"
       style="fill:#cccccc;fill-opacity:1;stroke:#000000;stroke-width:1.77165353;stroke-linecap:round;stroke-linejoin:round;stroke-miterlimit:4;stroke-opacity:1;stroke-dasharray:none;stroke-dashoffset:0"
       id="path2985-1-3-5-7-4"
       sodipodi:cx="215.16249"
       sodipodi:cy="74.534515"
       sodipodi:rx="22.223356"
       sodipodi:ry="22.223356"
       d="m 237.38585,74.534515 a 22.223356,22.223356 0 1 1 -44.44672,0 22.223356,22.223356 0 1 1 44.44672,0 z"
       transform="matrix(0.76664482,0,0,0.76664482,-139.20823,228.64426)" />
    <path
       sodipodi:type="arc"
       style="fill:#cccccc;fill-opacity:1;stroke:#000000;stroke-width:1.77165353;stroke-linecap:round;stroke-linejoin:round;stroke-miterlimit:4;stroke-opacity:1;stroke-dasharray:none;stroke-dashoffset:0"
       id="path2985-1-3-6-6-2-6"
       sodipodi:cx="215.16249"
       sodipodi:cy="74.534515"
       sodipodi:rx="22.223356"
       sodipodi:ry="22.223356"
       d="m 237.38585,74.534515 a 22.223356,22.223356 0 1 1 -44.44672,0 22.223356,22.223356 0 1 1 44.44672,0 z"
       transform="matrix(0.76664482,0,0,0.76664482,-371.86561,276.88803)" />
    <path
       sodipodi:type="arc"
       style="fill:#cccccc;fill-opacity:1;stroke:#000000;stroke-width:1.77165353;stroke-linecap:round;stroke-linejoin:round;stroke-miterlimit:4;stroke-opacity:1;stroke-dasharray:none;stroke-dashoffset:0"
       id="path2985-1-3-9-4-8-8"
       sodipodi:cx="215.16249"
       sodipodi:cy="74.534515"
       sodipodi:rx="22.223356"
       sodipodi:ry="22.223356"
       d="m 237.38585,74.534515 a 22.223356,22.223356 0 1 1 -44.44672,0 22.223356,22.223356 0 1 1 44.44672,0 z"
       transform="matrix(0.76664482,0,0,0.76664482,-45.769133,228.64426)" />
    <path
       style="fill:#cccccc;stroke:#000000;stroke-width:1px;stroke-linecap:butt;stroke-linejoin:miter;stroke-opacity:1"
       d="M 36.559315,272.61987 50.588643,255.5399"
       id="path4144-0-3-3"
       inkscape:connector-type="polyline"
       inkscape:connector-curvature="0"
       inkscape:connection-start="#path2985-1-3-5-7-4"
       inkscape:connection-start-point="d4"
       inkscape:connection-end="#path2985-7-4-9-3-2-4-0-4-1-88-99"
       inkscape:connection-end-point="d4" />
    <path
       style="fill:#cccccc;stroke:#000000;stroke-width:1px;stroke-linecap:butt;stroke-linejoin:miter;stroke-opacity:1"
       d="m -200.54611,318.22137 6.54319,-16.24745"
       id="path4148-6-1-7"
       inkscape:connector-type="polyline"
       inkscape:connector-curvature="0"
       inkscape:connection-start="#path2985-1-3-6-6-2-6"
       inkscape:connection-start-point="d4"
       inkscape:connection-end="#path2985-7-4-9-5-8-3-0"
       inkscape:connection-end-point="d4" />
    <path
       sodipodi:type="arc"
       style="fill:#cccccc;fill-opacity:1;stroke:#000000;stroke-width:1.77165353;stroke-linecap:round;stroke-linejoin:round;stroke-miterlimit:4;stroke-opacity:1;stroke-dasharray:none;stroke-dashoffset:0"
       id="path2985-7-4-9-3-2-4-0-4-1-88-9-2"
       sodipodi:cx="215.16249"
       sodipodi:cy="74.534515"
       sodipodi:rx="22.223356"
       sodipodi:ry="22.223356"
       d="m 237.38585,74.534515 a 22.223356,22.223356 0 1 1 -44.44672,0 22.223356,22.223356 0 1 1 44.44672,0 z"
       transform="matrix(0.76664482,0,0,0.76664482,-324.66474,274.79825)" />
    <path
       style="fill:#cccccc;stroke:#000000;stroke-width:1px;stroke-linecap:butt;stroke-linejoin:miter;stroke-opacity:1"
       d="m -158.88505,236.04608 97.891745,-39.1474"
       id="path4979-0"
       inkscape:connector-type="polyline"
       inkscape:connector-curvature="0"
       inkscape:connection-start="#path2985-7-4-9-3-2-4-1-3-5-1"
       inkscape:connection-start-point="d4"
       inkscape:connection-end="#path2985-7-45-9-30-0"
       inkscape:connection-end-point="d4" />
    <path
       style="fill:#cccccc;stroke:#000000;stroke-width:1px;stroke-linecap:butt;stroke-linejoin:miter;stroke-opacity:1"
       d="m -168.58589,317.39317 -10.17639,-16.68083"
       id="path4981-1"
       inkscape:connector-type="polyline"
       inkscape:connector-curvature="0"
       inkscape:connection-start="#path2985-7-4-9-3-2-4-0-4-1-88-9-2"
       inkscape:connection-start-point="d4"
       inkscape:connection-end="#path2985-7-4-9-5-8-3-0"
       inkscape:connection-end-point="d4" />
    <path
       sodipodi:type="arc"
       style="fill:#cccccc;fill-opacity:1;stroke:#000000;stroke-width:1.77165353;stroke-linecap:round;stroke-linejoin:round;stroke-miterlimit:4;stroke-opacity:1;stroke-dasharray:none;stroke-dashoffset:0"
       id="path2985-1-6-3-7-4"
       sodipodi:cx="215.16249"
       sodipodi:cy="74.534515"
       sodipodi:rx="22.223356"
       sodipodi:ry="22.223356"
       d="m 237.38585,74.534515 a 22.223356,22.223356 0 1 1 -44.44672,0 22.223356,22.223356 0 1 1 44.44672,0 z"
       transform="matrix(0.76664482,0,0,0.76664482,-228.0208,229.00706)" />
    <path
       style="fill:#cccccc;stroke:#000000;stroke-width:1px;stroke-linecap:butt;stroke-linejoin:miter;stroke-opacity:1"
       d="m -56.337809,270.49186 5.356226,-12.46115"
       id="path5001-5"
       inkscape:connector-type="polyline"
       inkscape:connector-curvature="0"
       inkscape:connection-start="#path2985-1-6-3-7-4"
       inkscape:connection-start-point="d4"
       inkscape:connection-end="#path2985-7-4-9-3-1-6-3-4"
       inkscape:connection-end-point="d4" />
    <path
       sodipodi:type="arc"
       style="fill:#cccccc;fill-opacity:1;stroke:#000000;stroke-width:1.77165353;stroke-linecap:round;stroke-linejoin:round;stroke-miterlimit:4;stroke-opacity:1;stroke-dasharray:none;stroke-dashoffset:0"
       id="path2985-1-6-3-1-9"
       sodipodi:cx="215.16249"
       sodipodi:cy="74.534515"
       sodipodi:rx="22.223356"
       sodipodi:ry="22.223356"
       d="m 237.38585,74.534515 a 22.223356,22.223356 0 1 1 -44.44672,0 22.223356,22.223356 0 1 1 44.44672,0 z"
       transform="matrix(0.76664482,0,0,0.76664482,183.23076,259.34983)" />
    <path
       sodipodi:type="arc"
       style="fill:#cccccc;fill-opacity:1;stroke:#000000;stroke-width:1.77165353;stroke-linecap:round;stroke-linejoin:round;stroke-miterlimit:4;stroke-opacity:1;stroke-dasharray:none;stroke-dashoffset:0"
       id="path2985-7-45-9-30-4-6"
       sodipodi:cx="215.16249"
       sodipodi:cy="74.534515"
       sodipodi:rx="22.223356"
       sodipodi:ry="22.223356"
       d="m 237.38585,74.534515 a 22.223356,22.223356 0 1 1 -44.44672,0 22.223356,22.223356 0 1 1 44.44672,0 z"
       transform="matrix(0.76664482,0,0,0.76664482,159.40338,158.13481)" />
    <path
       sodipodi:type="arc"
       style="fill:#cccccc;fill-opacity:1;stroke:#000000;stroke-width:1.77165353;stroke-linecap:round;stroke-linejoin:round;stroke-miterlimit:4;stroke-opacity:1;stroke-dasharray:none;stroke-dashoffset:0"
       id="path2985-7-4-9-3-1-6-3-9-9"
       sodipodi:cx="215.16249"
       sodipodi:cy="74.534515"
       sodipodi:rx="22.223356"
       sodipodi:ry="22.223356"
       d="m 237.38585,74.534515 a 22.223356,22.223356 0 1 1 -44.44672,0 22.223356,22.223356 0 1 1 44.44672,0 z"
       transform="matrix(0.76664482,0,0,0.76664482,159.40338,209.9381)" />
    <path
       style="fill:#cccccc;stroke:#000000;stroke-width:1px;stroke-linecap:butt;stroke-linejoin:miter;stroke-opacity:1"
       d="m 324.35659,232.31373 0,17.72845"
       id="path4403-1-2-1-1"
       inkscape:connector-type="polyline"
       inkscape:connector-curvature="0"
       inkscape:connection-start="#path2985-7-45-9-30-4-6"
       inkscape:connection-start-point="d4"
       inkscape:connection-end="#path2985-7-4-9-3-1-6-3-9-9"
       inkscape:connection-end-point="d4" />
    <path
       style="fill:#cccccc;stroke:#000000;stroke-width:1px;stroke-linecap:butt;stroke-linejoin:miter;stroke-opacity:1"
       d="M 340.78196,301.1415 331.7586,282.42943"
       id="path4411-3-7-3-0"
       inkscape:connector-type="polyline"
       inkscape:connector-curvature="0"
       inkscape:connection-start="#path2985-1-6-3-1-9"
       inkscape:connection-start-point="d4"
       inkscape:connection-end-point="d4"
       inkscape:connection-end="#path2985-7-4-9-3-1-6-3-9-9" />
    <path
       sodipodi:type="arc"
       style="fill:#cccccc;fill-opacity:1;stroke:#000000;stroke-width:1.77165353;stroke-linecap:round;stroke-linejoin:round;stroke-miterlimit:4;stroke-opacity:1;stroke-dasharray:none;stroke-dashoffset:0"
       id="path2985-7-4-3-2-4-9-6-6"
       sodipodi:cx="215.16249"
       sodipodi:cy="74.534515"
       sodipodi:rx="22.223356"
       sodipodi:ry="22.223356"
       d="m 237.38585,74.534515 a 22.223356,22.223356 0 1 1 -44.44672,0 22.223356,22.223356 0 1 1 44.44672,0 z"
       transform="matrix(0.76664482,0,0,0.76664482,97.817307,259.34983)" />
    <path
       sodipodi:type="arc"
       style="fill:#cccccc;fill-opacity:1;stroke:#000000;stroke-width:1.77165353;stroke-linecap:round;stroke-linejoin:round;stroke-miterlimit:4;stroke-opacity:1;stroke-dasharray:none;stroke-dashoffset:0"
       id="path2985-1-3-5-7-9-4"
       sodipodi:cx="215.16249"
       sodipodi:cy="74.534515"
       sodipodi:rx="22.223356"
       sodipodi:ry="22.223356"
       d="m 237.38585,74.534515 a 22.223356,22.223356 0 1 1 -44.44672,0 22.223356,22.223356 0 1 1 44.44672,0 z"
       transform="matrix(0.76664482,0,0,0.76664482,225.40015,259.34983)" />
    <path
       sodipodi:type="arc"
       style="fill:#cccccc;fill-opacity:1;stroke:#000000;stroke-width:1.77165353;stroke-linecap:round;stroke-linejoin:round;stroke-miterlimit:4;stroke-opacity:1;stroke-dasharray:none;stroke-dashoffset:0"
       id="path2985-1-6-3-7-0-25"
       sodipodi:cx="215.16249"
       sodipodi:cy="74.534515"
       sodipodi:rx="22.223356"
       sodipodi:ry="22.223356"
       d="m 237.38585,74.534515 a 22.223356,22.223356 0 1 1 -44.44672,0 22.223356,22.223356 0 1 1 44.44672,0 z"
       transform="matrix(0.76664482,0,0,0.76664482,140.58759,259.34983)" />
    <path
       style="fill:#cccccc;stroke:#000000;stroke-width:1px;stroke-linecap:butt;stroke-linejoin:miter;stroke-opacity:1"
       d="m 311.60551,300.56494 6.68637,-17.55895"
       id="path5001-7-2"
       inkscape:connector-type="polyline"
       inkscape:connector-curvature="0"
       inkscape:connection-start="#path2985-1-6-3-7-0-25"
       inkscape:connection-start-point="d4"
       inkscape:connection-end-point="d4"
       inkscape:connection-end="#path2985-7-4-9-3-1-6-3-9-9" />
    <path
       sodipodi:type="arc"
       style="fill:#cccccc;fill-opacity:1;stroke:#000000;stroke-width:1.77165353;stroke-linecap:round;stroke-linejoin:round;stroke-miterlimit:4;stroke-opacity:1;stroke-dasharray:none;stroke-dashoffset:0"
       id="path2985-7-45-9-30-4-8-9"
       sodipodi:cx="215.16249"
       sodipodi:cy="74.534515"
       sodipodi:rx="22.223356"
       sodipodi:ry="22.223356"
       d="m 237.38585,74.534515 a 22.223356,22.223356 0 1 1 -44.44672,0 22.223356,22.223356 0 1 1 44.44672,0 z"
       transform="matrix(0.76664482,0,0,0.76664482,159.40338,113.29279)" />
    <path
       style="fill:none;stroke:#000000;stroke-width:1px;stroke-linecap:butt;stroke-linejoin:miter;stroke-opacity:1"
       d="m 324.35659,187.47171 0,10.76718"
       id="path5265-9"
       inkscape:connector-type="polyline"
       inkscape:connector-curvature="0"
       inkscape:connection-start="#path2985-7-45-9-30-4-8-9"
       inkscape:connection-start-point="d4"
       inkscape:connection-end="#path2985-7-45-9-30-4-6"
       inkscape:connection-end-point="d4" />
    <path
       style="fill:none;stroke:#000000;stroke-width:1px;stroke-linecap:butt;stroke-linejoin:miter;stroke-opacity:1"
       d="m 311.06718,277.74196 -35.00725,28.08701"
       id="path5267-1"
       inkscape:connector-type="polyline"
       inkscape:connector-curvature="0"
       inkscape:connection-start="#path2985-7-4-9-3-1-6-3-9-9"
       inkscape:connection-start-point="d4"
       inkscape:connection-end="#path2985-7-4-3-2-4-9-6-6"
       inkscape:connection-end-point="d4" />
    <path
       style="fill:none;stroke:#000000;stroke-width:1px;stroke-linecap:butt;stroke-linejoin:miter;stroke-opacity:1"
       d="m 337.99584,277.2913 38.71826,28.98833"
       id="path5269-9"
       inkscape:connector-type="polyline"
       inkscape:connector-curvature="0"
       inkscape:connection-start="#path2985-7-4-9-3-1-6-3-9-9"
       inkscape:connection-start-point="d4"
       inkscape:connection-end="#path2985-1-3-5-7-9-4"
       inkscape:connection-end-point="d4" />
    <path
       style="fill:none;stroke:#000000;stroke-width:1;stroke-linecap:round;stroke-linejoin:round;stroke-miterlimit:4;stroke-opacity:1;stroke-dashoffset:0"
       d="m 793.08186,302.70017 c 0.8352,-35.17186 29.6086,-63.42717 64.9813,-63.42717 35.8985,0 65,29.10149 65,65"
       id="path5357-6"
       inkscape:connector-curvature="0"
       sodipodi:nodetypes="csc" />
    <path
       sodipodi:type="arc"
       style="fill:#cccccc;fill-opacity:1;stroke:#000000;stroke-width:1.77165353;stroke-linecap:round;stroke-linejoin:round;stroke-miterlimit:4;stroke-opacity:1;stroke-dasharray:none;stroke-dashoffset:0"
       id="path2985-7-45-9-30-4-8-0-49"
       sodipodi:cx="215.16249"
       sodipodi:cy="74.534515"
       sodipodi:rx="22.223356"
       sodipodi:ry="22.223356"
       d="m 237.38585,74.534515 a 22.223356,22.223356 0 1 1 -44.44672,0 22.223356,22.223356 0 1 1 44.44672,0 z"
       transform="matrix(0.76664482,0,0,0.76664482,693.30064,173.86422)" />
    <path
       sodipodi:type="arc"
       style="fill:#cccccc;fill-opacity:1;stroke:#000000;stroke-width:1.77165353;stroke-linecap:round;stroke-linejoin:round;stroke-miterlimit:4;stroke-opacity:1;stroke-dasharray:none;stroke-dashoffset:0"
       id="path2985-7-45-9-30-4-8-6-2"
       sodipodi:cx="215.16249"
       sodipodi:cy="74.534515"
       sodipodi:rx="22.223356"
       sodipodi:ry="22.223356"
       d="m 237.38585,74.534515 a 22.223356,22.223356 0 1 1 -44.44672,0 22.223356,22.223356 0 1 1 44.44672,0 z"
       transform="matrix(0.76664482,0,0,0.76664482,627.94344,247.61422)" />
    <path
       sodipodi:type="arc"
       style="fill:#cccccc;fill-opacity:1;stroke:#000000;stroke-width:1.77165353;stroke-linecap:round;stroke-linejoin:round;stroke-miterlimit:4;stroke-opacity:1;stroke-dasharray:none;stroke-dashoffset:0"
       id="path2985-7-45-9-30-4-8-1-42"
       sodipodi:cx="215.16249"
       sodipodi:cy="74.534515"
       sodipodi:rx="22.223356"
       sodipodi:ry="22.223356"
       d="m 237.38585,74.534515 a 22.223356,22.223356 0 1 1 -44.44672,0 22.223356,22.223356 0 1 1 44.44672,0 z"
       transform="matrix(0.76664482,0,0,0.76664482,758.65776,247.61422)" />
    <g
       transform="matrix(0,-1,1,0,749.41073,1579.7572)"
       id="g6188-9-4">
      <path
         sodipodi:nodetypes="csc"
         inkscape:connector-curvature="0"
         id="path5357-7-2"
         d="m 1071.4099,303.72719 c -0.8352,35.17186 -29.6086,63.42717 -64.9813,63.42717 -35.89852,0 -65.00001,-29.10149 -65.00001,-65"
         style="fill:none;stroke:#000000;stroke-width:1;stroke-linecap:round;stroke-linejoin:round;stroke-miterlimit:4;stroke-opacity:1;stroke-dashoffset:0"
         transform="matrix(-1,0,0,-1,2318.4179,671.06825)" />
      <path
         transform="matrix(0.76664482,0,0,0.76664482,1147.2268,238.5051)"
         d="m 237.38585,74.534515 a 22.223356,22.223356 0 1 1 -44.44672,0 22.223356,22.223356 0 1 1 44.44672,0 z"
         sodipodi:ry="22.223356"
         sodipodi:rx="22.223356"
         sodipodi:cy="74.534515"
         sodipodi:cx="215.16249"
         id="path2985-7-45-9-30-4-8-0-4-7"
         style="fill:#cccccc;fill-opacity:1;stroke:#000000;stroke-width:1.77165353;stroke-linecap:round;stroke-linejoin:round;stroke-miterlimit:4;stroke-opacity:1;stroke-dasharray:none;stroke-dashoffset:0"
         sodipodi:type="arc" />
      <path
         transform="matrix(0.76664482,0,0,0.76664482,1081.8696,312.2551)"
         d="m 237.38585,74.534515 a 22.223356,22.223356 0 1 1 -44.44672,0 22.223356,22.223356 0 1 1 44.44672,0 z"
         sodipodi:ry="22.223356"
         sodipodi:rx="22.223356"
         sodipodi:cy="74.534515"
         sodipodi:cx="215.16249"
         id="path2985-7-45-9-30-4-8-6-0-6"
         style="fill:#cccccc;fill-opacity:1;stroke:#000000;stroke-width:1.77165353;stroke-linecap:round;stroke-linejoin:round;stroke-miterlimit:4;stroke-opacity:1;stroke-dasharray:none;stroke-dashoffset:0"
         sodipodi:type="arc" />
      <path
         transform="matrix(0.76664482,0,0,0.76664482,1212.5839,312.2551)"
         d="m 237.38585,74.534515 a 22.223356,22.223356 0 1 1 -44.44672,0 22.223356,22.223356 0 1 1 44.44672,0 z"
         sodipodi:ry="22.223356"
         sodipodi:rx="22.223356"
         sodipodi:cy="74.534515"
         sodipodi:cx="215.16249"
         id="path2985-7-45-9-30-4-8-1-4-7"
         style="fill:#cccccc;fill-opacity:1;stroke:#000000;stroke-width:1.77165353;stroke-linecap:round;stroke-linejoin:round;stroke-miterlimit:4;stroke-opacity:1;stroke-dasharray:none;stroke-dashoffset:0"
         sodipodi:type="arc" />
    </g>
    <path
       style="fill:none;stroke:#000000;stroke-width:1px;stroke-linecap:butt;stroke-linejoin:miter;stroke-opacity:1"
       d="m 333.66337,229.54952 47.38321,72.6686"
       id="path3258"
       inkscape:connector-type="polyline"
       inkscape:connector-curvature="0"
       inkscape:connection-start="#path2985-7-45-9-30-4-6"
       inkscape:connection-start-point="d4"
       inkscape:connection-end="#path2985-1-3-5-7-9-4"
       inkscape:connection-end-point="d4" />
    <path
       style="fill:none;stroke:#000000;stroke-width:1px;stroke-linecap:butt;stroke-linejoin:miter;stroke-opacity:1"
       d="m 75.025108,252.60851 30.536842,22.94275"
       id="path3252"
       inkscape:connector-type="polyline"
       inkscape:connector-curvature="0"
       inkscape:connection-start="#path2985-7-4-9-3-2-4-0-4-1-88-99"
       inkscape:connection-start-point="d4"
       inkscape:connection-end="#path2985-1-3-9-4-8-8"
       inkscape:connection-end-point="d4" />
    <path
       style="fill:none;stroke:#000000;stroke-width:1px;stroke-linecap:butt;stroke-linejoin:miter;stroke-opacity:1"
       d="m -3.387,285.78576 12.0945581,0"
       id="path3254"
       inkscape:connector-type="polyline"
       inkscape:connector-curvature="0"
       inkscape:connection-start="#path2985-1-6-3-8"
       inkscape:connection-start-point="d4"
       inkscape:connection-end="#path2985-1-3-5-7-4"
       inkscape:connection-end-point="d4" />
    <path
       sodipodi:type="arc"
       style="fill:#cccccc;fill-opacity:1;stroke:#000000;stroke-width:1.77165353;stroke-linecap:round;stroke-linejoin:round;stroke-miterlimit:4;stroke-opacity:1;stroke-dasharray:none;stroke-dashoffset:0"
       id="path2985-7-4-9-3-2-4-0-4-3-7-7"
       sodipodi:cx="215.16249"
       sodipodi:cy="74.534515"
       sodipodi:rx="22.223356"
       sodipodi:ry="22.223356"
       d="m 237.38585,74.534515 a 22.223356,22.223356 0 1 1 -44.44672,0 22.223356,22.223356 0 1 1 44.44672,0 z"
       transform="matrix(0.76664482,0,0,0.76664482,369.93381,213.80504)" />
    <path
       sodipodi:type="arc"
       style="fill:#cccccc;fill-opacity:1;stroke:#000000;stroke-width:1.77135479;stroke-linecap:round;stroke-linejoin:round;stroke-miterlimit:4;stroke-opacity:1;stroke-dasharray:none;stroke-dashoffset:0"
       id="path2985-7-4-9-3-2-4-0-4-3-9-0"
       sodipodi:cx="215.16249"
       sodipodi:cy="74.534515"
       sodipodi:rx="22.223356"
       sodipodi:ry="22.223356"
       d="m 237.38585,74.534515 a 22.223356,22.223356 0 1 1 -44.44672,0 22.223356,22.223356 0 1 1 44.44672,0 z"
       transform="matrix(0.76664482,0,0,0.76664482,444.18006,213.80504)" />
    <path
       sodipodi:type="arc"
       style="fill:#cccccc;fill-opacity:1;stroke:#000000;stroke-width:1.77165353;stroke-linecap:round;stroke-linejoin:round;stroke-miterlimit:4;stroke-opacity:1;stroke-dasharray:none;stroke-dashoffset:0"
       id="path2985-7-4-9-3-2-4-0-4-3-23-8"
       sodipodi:cx="215.16249"
       sodipodi:cy="74.534515"
       sodipodi:rx="22.223356"
       sodipodi:ry="22.223356"
       d="m 237.38585,74.534515 a 22.223356,22.223356 0 1 1 -44.44672,0 22.223356,22.223356 0 1 1 44.44672,0 z"
       transform="matrix(0.76664482,0,0,0.76664482,518.42623,213.80504)" />
    <path
       style="fill:none;stroke:#000000;stroke-width:1px;stroke-linecap:butt;stroke-linejoin:miter;stroke-opacity:1"
       d="m 551.92444,270.94654 40.17141,0"
       id="path3307-0"
       inkscape:connector-type="polyline"
       inkscape:connector-curvature="0"
       inkscape:connection-start="#path2985-7-4-9-3-2-4-0-4-3-7-7"
       inkscape:connection-start-point="d4"
       inkscape:connection-end="#path2985-7-4-9-3-2-4-0-4-3-9-0"
       inkscape:connection-end-point="d4" />
    <path
       style="fill:none;stroke:#000000;stroke-width:1px;stroke-linecap:butt;stroke-linejoin:miter;stroke-opacity:1"
       d="m 626.17069,270.94654 40.17133,0"
       id="path3309-2"
       inkscape:connector-type="polyline"
       inkscape:connector-curvature="0"
       inkscape:connection-start="#path2985-7-4-9-3-2-4-0-4-3-9-0"
       inkscape:connection-start-point="d4"
       inkscape:connection-end="#path2985-7-4-9-3-2-4-0-4-3-23-8"
       inkscape:connection-end-point="d4" />
  </g>
</svg>
