<?xml version="1.0" encoding="UTF-8" standalone="no"?>
<!-- Created with Inkscape (http://www.inkscape.org/) -->

<svg
   xmlns:dc="http://purl.org/dc/elements/1.1/"
   xmlns:cc="http://creativecommons.org/ns#"
   xmlns:rdf="http://www.w3.org/1999/02/22-rdf-syntax-ns#"
   xmlns:svg="http://www.w3.org/2000/svg"
   xmlns="http://www.w3.org/2000/svg"
   xmlns:sodipodi="http://sodipodi.sourceforge.net/DTD/sodipodi-0.dtd"
   xmlns:inkscape="http://www.inkscape.org/namespaces/inkscape"
   width="332.7309"
   height="231.44008"
   id="svg2"
   version="1.1"
   inkscape:version="0.48.4 r9939"
   sodipodi:docname="grau_no.svg">
  <defs
     id="defs4">
    <marker
       inkscape:stockid="Arrow1Lend"
       orient="auto"
       refY="0"
       refX="0"
       id="Arrow1Lend"
       style="overflow:visible">
      <path
         id="path4710"
         d="M 0,0 5,-5 -12.5,0 5,5 0,0 z"
         style="fill-rule:evenodd;stroke:#000000;stroke-width:1pt"
         transform="matrix(-0.8,0,0,-0.8,-10,0)"
         inkscape:connector-curvature="0" />
    </marker>
    <marker
       inkscape:stockid="Arrow1Lend"
       orient="auto"
       refY="0"
       refX="0"
       id="Arrow1Lend-4"
       style="overflow:visible">
      <path
         inkscape:connector-curvature="0"
         id="path4710-6"
         d="M 0,0 5,-5 -12.5,0 5,5 0,0 z"
         style="fill-rule:evenodd;stroke:#000000;stroke-width:1pt"
         transform="matrix(-0.8,0,0,-0.8,-10,0)" />
    </marker>
    <marker
       inkscape:stockid="Arrow1Lend"
       orient="auto"
       refY="0"
       refX="0"
       id="Arrow1Lend-9"
       style="overflow:visible">
      <path
         inkscape:connector-curvature="0"
         id="path4710-4"
         d="M 0,0 5,-5 -12.5,0 5,5 0,0 z"
         style="fill-rule:evenodd;stroke:#000000;stroke-width:1pt"
         transform="matrix(-0.8,0,0,-0.8,-10,0)" />
    </marker>
    <marker
       inkscape:stockid="Arrow1Lend"
       orient="auto"
       refY="0"
       refX="0"
       id="Arrow1Lend-42"
       style="overflow:visible">
      <path
         inkscape:connector-curvature="0"
         id="path4710-5"
         d="M 0,0 5,-5 -12.5,0 5,5 0,0 z"
         style="fill-rule:evenodd;stroke:#000000;stroke-width:1pt"
         transform="matrix(-0.8,0,0,-0.8,-10,0)" />
    </marker>
    <marker
       inkscape:stockid="Arrow1Lend"
       orient="auto"
       refY="0"
       refX="0"
       id="Arrow1Lend-1"
       style="overflow:visible">
      <path
         inkscape:connector-curvature="0"
         id="path4710-0"
         d="M 0,0 5,-5 -12.5,0 5,5 0,0 z"
         style="fill-rule:evenodd;stroke:#000000;stroke-width:1pt"
         transform="matrix(-0.8,0,0,-0.8,-10,0)" />
    </marker>
    <marker
       inkscape:stockid="Arrow1Lend"
       orient="auto"
       refY="0"
       refX="0"
       id="Arrow1Lend-5"
       style="overflow:visible">
      <path
         inkscape:connector-curvature="0"
         id="path4710-8"
         d="M 0,0 5,-5 -12.5,0 5,5 0,0 z"
         style="fill-rule:evenodd;stroke:#000000;stroke-width:1pt"
         transform="matrix(-0.8,0,0,-0.8,-10,0)" />
    </marker>
    <marker
       inkscape:stockid="Arrow1Lend"
       orient="auto"
       refY="0"
       refX="0"
       id="Arrow1Lend-40"
       style="overflow:visible">
      <path
         inkscape:connector-curvature="0"
         id="path4710-7"
         d="M 0,0 5,-5 -12.5,0 5,5 0,0 z"
         style="fill-rule:evenodd;stroke:#000000;stroke-width:1pt"
         transform="matrix(-0.8,0,0,-0.8,-10,0)" />
    </marker>
    <marker
       inkscape:stockid="Arrow1Lend"
       orient="auto"
       refY="0"
       refX="0"
       id="Arrow1Lend-3"
       style="overflow:visible">
      <path
         inkscape:connector-curvature="0"
         id="path4710-2"
         d="M 0,0 5,-5 -12.5,0 5,5 0,0 z"
         style="fill-rule:evenodd;stroke:#000000;stroke-width:1pt"
         transform="matrix(-0.8,0,0,-0.8,-10,0)" />
    </marker>
    <marker
       inkscape:stockid="Arrow1Lend"
       orient="auto"
       refY="0"
       refX="0"
       id="Arrow1Lend-15"
       style="overflow:visible">
      <path
         inkscape:connector-curvature="0"
         id="path4710-9"
         d="M 0,0 5,-5 -12.5,0 5,5 0,0 z"
         style="fill-rule:evenodd;stroke:#000000;stroke-width:1pt"
         transform="matrix(-0.8,0,0,-0.8,-10,0)" />
    </marker>
    <marker
       inkscape:stockid="Arrow1Lend"
       orient="auto"
       refY="0"
       refX="0"
       id="Arrow1Lend-8"
       style="overflow:visible">
      <path
         id="path4710-61"
         d="M 0,0 5,-5 -12.5,0 5,5 0,0 z"
         style="fill-rule:evenodd;stroke:#000000;stroke-width:1pt"
         transform="matrix(-0.8,0,0,-0.8,-10,0)"
         inkscape:connector-curvature="0" />
    </marker>
  </defs>
  <sodipodi:namedview
     id="base"
     pagecolor="#ffffff"
     bordercolor="#666666"
     borderopacity="1.0"
     inkscape:pageopacity="0.0"
     inkscape:pageshadow="2"
     inkscape:zoom="1.979899"
     inkscape:cx="260.50498"
     inkscape:cy="137.29754"
     inkscape:document-units="px"
     inkscape:current-layer="layer1"
     showgrid="false"
     inkscape:window-width="1301"
     inkscape:window-height="744"
     inkscape:window-x="65"
     inkscape:window-y="24"
     inkscape:window-maximized="1"
     fit-margin-top="5"
     fit-margin-bottom="5"
     fit-margin-left="2"
     fit-margin-right="2" />
  <metadata
     id="metadata7">
    <rdf:RDF>
      <cc:Work
         rdf:about="">
        <dc:format>image/svg+xml</dc:format>
        <dc:type
           rdf:resource="http://purl.org/dc/dcmitype/StillImage" />
        <dc:title></dc:title>
      </cc:Work>
    </rdf:RDF>
  </metadata>
  <g
     inkscape:label="Layer 1"
     inkscape:groupmode="layer"
     id="layer1"
     transform="translate(-297.0014,-54.206517)">
    <path
       sodipodi:type="arc"
       style="fill:#ffffff;fill-opacity:1;stroke:#000000;stroke-width:1.77165353;stroke-linecap:round;stroke-linejoin:round;stroke-miterlimit:4;stroke-opacity:1;stroke-dasharray:none;stroke-dashoffset:0"
       id="path2985-1"
       sodipodi:cx="215.16249"
       sodipodi:cy="74.534515"
       sodipodi:rx="22.223356"
       sodipodi:ry="22.223356"
       d="m 237.38585,74.534515 c 0,12.273621 -9.94974,22.223357 -22.22336,22.223357 -12.27362,0 -22.22336,-9.949736 -22.22336,-22.223357 0,-12.27362 9.94974,-22.223356 22.22336,-22.223356 12.27362,0 22.22336,9.949736 22.22336,22.223356 z"
       transform="matrix(0.76664482,0,0,0.76664482,290.25935,102.99656)" />
    <path
       sodipodi:type="arc"
       style="fill:#ffffff;fill-opacity:1;stroke:#000000;stroke-width:1.77165353;stroke-linecap:round;stroke-linejoin:round;stroke-miterlimit:4;stroke-opacity:1;stroke-dasharray:none;stroke-dashoffset:0"
       id="path2985-7-45"
       sodipodi:cx="215.16249"
       sodipodi:cy="74.534515"
       sodipodi:rx="22.223356"
       sodipodi:ry="22.223356"
       d="m 237.38585,74.534515 c 0,12.273621 -9.94974,22.223357 -22.22336,22.223357 -12.27362,0 -22.22336,-9.949736 -22.22336,-22.223357 0,-12.27362 9.94974,-22.223356 22.22336,-22.223356 12.27362,0 22.22336,9.949736 22.22336,22.223356 z"
       transform="matrix(0.76664482,0,0,0.76664482,313.51407,19.781552)" />
    <path
       sodipodi:type="arc"
       style="fill:#ffffff;fill-opacity:1;stroke:#000000;stroke-width:1.77165353;stroke-linecap:round;stroke-linejoin:round;stroke-miterlimit:4;stroke-opacity:1;stroke-dasharray:none;stroke-dashoffset:0"
       id="path2985-7-4-3"
       sodipodi:cx="215.16249"
       sodipodi:cy="74.534515"
       sodipodi:rx="22.223356"
       sodipodi:ry="22.223356"
       d="m 237.38585,74.534515 c 0,12.273621 -9.94974,22.223357 -22.22336,22.223357 -12.27362,0 -22.22336,-9.949736 -22.22336,-22.223357 0,-12.27362 9.94974,-22.223356 22.22336,-22.223356 12.27362,0 22.22336,9.949736 22.22336,22.223356 z"
       transform="matrix(0.76664482,0,0,0.76664482,381.14835,102.99656)" />
    <path
       sodipodi:type="arc"
       style="fill:#ffffff;fill-opacity:1;stroke:#000000;stroke-width:1.77165353;stroke-linecap:round;stroke-linejoin:round;stroke-miterlimit:4;stroke-opacity:1;stroke-dasharray:none;stroke-dashoffset:0"
       id="path2985-7-4-9-5"
       sodipodi:cx="215.16249"
       sodipodi:cy="74.534515"
       sodipodi:rx="22.223356"
       sodipodi:ry="22.223356"
       d="m 237.38585,74.534515 c 0,12.273621 -9.94974,22.223357 -22.22336,22.223357 -12.27362,0 -22.22336,-9.949736 -22.22336,-22.223357 0,-12.27362 9.94974,-22.223356 22.22336,-22.223356 12.27362,0 22.22336,9.949736 22.22336,22.223356 z"
       transform="matrix(0.76664482,0,0,0.76664482,217.67659,158.93496)" />
    <path
       sodipodi:type="arc"
       style="fill:#ffffff;fill-opacity:1;stroke:#000000;stroke-width:1.77165353;stroke-linecap:round;stroke-linejoin:round;stroke-miterlimit:4;stroke-opacity:1;stroke-dasharray:none;stroke-dashoffset:0"
       id="path2985-7-4-9-3-1"
       sodipodi:cx="215.16249"
       sodipodi:cy="74.534515"
       sodipodi:rx="22.223356"
       sodipodi:ry="22.223356"
       d="m 237.38585,74.534515 c 0,12.273621 -9.94974,22.223357 -22.22336,22.223357 -12.27362,0 -22.22336,-9.949736 -22.22336,-22.223357 0,-12.27362 9.94974,-22.223356 22.22336,-22.223356 12.27362,0 22.22336,9.949736 22.22336,22.223356 z"
       transform="matrix(0.76664482,0,0,0.76664482,266.43197,59.584815)" />
    <path
       sodipodi:type="arc"
       style="fill:#ffffff;fill-opacity:1;stroke:#000000;stroke-width:1.77165353;stroke-linecap:round;stroke-linejoin:round;stroke-miterlimit:4;stroke-opacity:1;stroke-dasharray:none;stroke-dashoffset:0"
       id="path2985-7-4-9-3-2-0"
       sodipodi:cx="215.16249"
       sodipodi:cy="74.534515"
       sodipodi:rx="22.223356"
       sodipodi:ry="22.223356"
       d="m 237.38585,74.534515 c 0,12.273621 -9.94974,22.223357 -22.22336,22.223357 -12.27362,0 -22.22336,-9.949736 -22.22336,-22.223357 0,-12.27362 9.94974,-22.223356 22.22336,-22.223356 12.27362,0 22.22336,9.949736 22.22336,22.223356 z"
       transform="matrix(0.76664482,0,0,0.76664482,176.77722,158.93496)" />
    <path
       sodipodi:type="arc"
       style="fill:#ffffff;fill-opacity:1;stroke:#000000;stroke-width:1.77165353;stroke-linecap:round;stroke-linejoin:round;stroke-miterlimit:4;stroke-opacity:1;stroke-dasharray:none;stroke-dashoffset:0"
       id="path2985-7-4-9-3-2-4-1"
       sodipodi:cx="215.16249"
       sodipodi:cy="74.534515"
       sodipodi:rx="22.223356"
       sodipodi:ry="22.223356"
       d="m 237.38585,74.534515 c 0,12.273621 -9.94974,22.223357 -22.22336,22.223357 -12.27362,0 -22.22336,-9.949736 -22.22336,-22.223357 0,-12.27362 9.94974,-22.223356 22.22336,-22.223356 12.27362,0 22.22336,9.949736 22.22336,22.223356 z"
       transform="matrix(0.76664482,0,0,0.76664482,230.60461,102.99656)" />
    <text
       xml:space="preserve"
       style="font-size:20px;font-style:normal;font-variant:normal;font-weight:normal;font-stretch:normal;text-align:center;line-height:125%;letter-spacing:0px;word-spacing:0px;text-anchor:middle;fill:#000000;fill-opacity:1;stroke:none;font-family:DejaVu Sans;-inkscape-font-specification:DejaVu Sans"
       x="395.12808"
       y="167.41835"
       id="text3019-5-7-3-9-4-8-2"
       sodipodi:linespacing="125%"><tspan
         sodipodi:role="line"
         id="tspan3021-1-4-9-8-0-4-0"
         x="395.12808"
         y="167.41835">A</tspan></text>
    <path
       sodipodi:type="arc"
       style="fill:#ffffff;fill-opacity:1;stroke:#000000;stroke-width:1.77165353;stroke-linecap:round;stroke-linejoin:round;stroke-miterlimit:4;stroke-opacity:1;stroke-dasharray:none;stroke-dashoffset:0"
       id="path2985-7-4-9-3-2-4-0-4"
       sodipodi:cx="215.16249"
       sodipodi:cy="74.534515"
       sodipodi:rx="22.223356"
       sodipodi:ry="22.223356"
       d="m 237.38585,74.534515 c 0,12.273621 -9.94974,22.223357 -22.22336,22.223357 -12.27362,0 -22.22336,-9.949736 -22.22336,-22.223357 0,-12.27362 9.94974,-22.223356 22.22336,-22.223356 12.27362,0 22.22336,9.949736 22.22336,22.223356 z"
       transform="matrix(0.76664482,0,0,0.76664482,366.08675,59.584815)" />
    <text
       xml:space="preserve"
       style="font-size:20px;font-style:normal;font-variant:normal;font-weight:normal;font-stretch:normal;text-align:center;line-height:125%;letter-spacing:0px;word-spacing:0px;text-anchor:middle;fill:#000000;fill-opacity:1;stroke:none;font-family:DejaVu Sans;-inkscape-font-specification:DejaVu Sans"
       x="530.61023"
       y="124.00659"
       id="text3019-5-7-3-9-4-8-0-5"
       sodipodi:linespacing="125%"><tspan
         sodipodi:role="line"
         id="tspan3021-1-4-9-8-0-4-7-1"
         x="530.61023"
         y="124.00659">B</tspan></text>
    <path
       style="fill:none;stroke:#000000;stroke-width:1px;stroke-linecap:butt;stroke-linejoin:miter;stroke-opacity:1"
       d="M 465.45604,87.922768 444.39642,105.7266"
       id="path4403"
       inkscape:connector-type="polyline"
       inkscape:connector-curvature="0"
       inkscape:connection-start="#path2985-7-45"
       inkscape:connection-start-point="d4"
       inkscape:connection-end="#path2985-7-4-9-3-1"
       inkscape:connection-end-point="d4" />
    <path
       style="fill:none;stroke:#000000;stroke-width:1px;stroke-linecap:butt;stroke-linejoin:miter;stroke-opacity:1"
       d="m 420.54027,129.86701 -14.13755,17.13036"
       id="path4405"
       inkscape:connector-type="polyline"
       inkscape:connector-curvature="0"
       inkscape:connection-start="#path2985-7-4-9-3-1"
       inkscape:connection-start-point="d4"
       inkscape:connection-end="#path2985-7-4-9-3-2-4-1"
       inkscape:connection-end-point="d4" />
    <path
       style="fill:none;stroke:#000000;stroke-width:1px;stroke-linecap:butt;stroke-linejoin:miter;stroke-opacity:1"
       d="m 386.46707,199.47292 5.25348,-22.73132"
       id="path4407"
       inkscape:connector-type="polyline"
       inkscape:connector-curvature="0"
       inkscape:connection-start="#path2985-7-4-9-5"
       inkscape:connection-start-point="d4"
       inkscape:connection-end="#path2985-7-4-9-3-2-4-1"
       inkscape:connection-end-point="d4" />
    <path
       style="fill:none;stroke:#000000;stroke-width:1px;stroke-linecap:butt;stroke-linejoin:miter;stroke-opacity:1"
       d="m 353.54384,203.79975 30.20057,-31.38498"
       id="path4409"
       inkscape:connector-type="polyline"
       inkscape:connector-curvature="0"
       inkscape:connection-start="#path2985-7-4-9-3-2-0"
       inkscape:connection-start-point="d4"
       inkscape:connection-end="#path2985-7-4-9-3-2-4-1"
       inkscape:connection-end-point="d4" />
    <path
       style="fill:none;stroke:#000000;stroke-width:1px;stroke-linecap:butt;stroke-linejoin:miter;stroke-opacity:1"
       d="m 447.01335,145.19969 -7.42896,-13.53501"
       id="path4411"
       inkscape:connector-type="polyline"
       inkscape:connector-curvature="0"
       inkscape:connection-start="#path2985-1"
       inkscape:connection-start-point="d4"
       inkscape:connection-end="#path2985-7-4-9-3-1"
       inkscape:connection-end-point="d4" />
    <path
       style="fill:none;stroke:#000000;stroke-width:1px;stroke-linecap:butt;stroke-linejoin:miter;stroke-opacity:1"
       d="m 540.51551,144.0375 -3.8895,-11.21063"
       id="path4413"
       inkscape:connector-type="polyline"
       inkscape:connector-curvature="0"
       inkscape:connection-start="#path2985-7-4-3"
       inkscape:connection-start-point="d4"
       inkscape:connection-end="#path2985-7-4-9-3-2-4-0-4"
       inkscape:connection-end-point="d4" />
    <path
       style="fill:none;stroke:#000000;stroke-width:1px;stroke-linecap:butt;stroke-linejoin:miter;stroke-opacity:1"
       d="M 517.45577,106.4416 492.05147,87.20777"
       id="path4415"
       inkscape:connector-type="polyline"
       inkscape:connector-curvature="0"
       inkscape:connection-start="#path2985-7-4-9-3-2-4-0-4"
       inkscape:connection-start-point="d4"
       inkscape:connection-end="#path2985-7-45"
       inkscape:connection-end-point="d4" />
    <path
       sodipodi:type="arc"
       style="fill:#ffffff;fill-opacity:1;stroke:#000000;stroke-width:1.77165353;stroke-linecap:round;stroke-linejoin:round;stroke-miterlimit:4;stroke-opacity:1;stroke-dasharray:none;stroke-dashoffset:0"
       id="path2985-7-4-9-3-2-4-0-4-8-7"
       sodipodi:cx="215.16249"
       sodipodi:cy="74.534515"
       sodipodi:rx="22.223356"
       sodipodi:ry="22.223356"
       d="m 237.38585,74.534515 c 0,12.273621 -9.94974,22.223357 -22.22336,22.223357 -12.27362,0 -22.22336,-9.949736 -22.22336,-22.223357 0,-12.27362 9.94974,-22.223356 22.22336,-22.223356 12.27362,0 22.22336,9.949736 22.22336,22.223356 z"
       transform="matrix(0.76664482,0,0,0.76664482,258.57598,158.93496)" />
    <path
       sodipodi:type="arc"
       style="fill:#ffffff;fill-opacity:1;stroke:#000000;stroke-width:1.77165353;stroke-linecap:round;stroke-linejoin:round;stroke-miterlimit:4;stroke-opacity:1;stroke-dasharray:none;stroke-dashoffset:0"
       id="path2985-7-4-3-2"
       sodipodi:cx="215.16249"
       sodipodi:cy="74.534515"
       sodipodi:rx="22.223356"
       sodipodi:ry="22.223356"
       d="m 237.38585,74.534515 c 0,12.273621 -9.94974,22.223357 -22.22336,22.223357 -12.27362,0 -22.22336,-9.949736 -22.22336,-22.223357 0,-12.27362 9.94974,-22.223356 22.22336,-22.223356 12.27362,0 22.22336,9.949736 22.22336,22.223356 z"
       transform="matrix(0.76664482,0,0,0.76664482,299.47536,158.93496)" />
    <path
       style="fill:none;stroke:#000000;stroke-width:1px;stroke-linecap:butt;stroke-linejoin:miter;stroke-opacity:1"
       d="m 403.17932,175.37989 12.72836,25.45474"
       id="path5080"
       inkscape:connector-type="polyline"
       inkscape:connector-curvature="0"
       inkscape:connection-start="#path2985-7-4-9-3-2-4-1"
       inkscape:connection-start-point="d4"
       inkscape:connection-end="#path2985-7-4-9-3-2-4-0-4-8-7"
       inkscape:connection-end-point="d4" />
    <path
       style="fill:none;stroke:#000000;stroke-width:1px;stroke-linecap:butt;stroke-linejoin:miter;stroke-opacity:1"
       d="m 408.78302,170.87987 42.42035,34.45478"
       id="path5082"
       inkscape:connector-type="polyline"
       inkscape:connector-curvature="0"
       inkscape:connection-start="#path2985-7-4-9-3-2-4-1"
       inkscape:connection-start-point="d4"
       inkscape:connection-end="#path2985-7-4-3-2"
       inkscape:connection-end-point="d4" />
    <path
       sodipodi:type="arc"
       style="fill:#ffffff;fill-opacity:1;stroke:#000000;stroke-width:1.77165353;stroke-linecap:round;stroke-linejoin:round;stroke-miterlimit:4;stroke-opacity:1;stroke-dasharray:none;stroke-dashoffset:0"
       id="path2985-1-3"
       sodipodi:cx="215.16249"
       sodipodi:cy="74.534515"
       sodipodi:rx="22.223356"
       sodipodi:ry="22.223356"
       d="m 237.38585,74.534515 c 0,12.273621 -9.94974,22.223357 -22.22336,22.223357 -12.27362,0 -22.22336,-9.949736 -22.22336,-22.223357 0,-12.27362 9.94974,-22.223356 22.22336,-22.223356 12.27362,0 22.22336,9.949736 22.22336,22.223356 z"
       transform="matrix(0.76664482,0,0,0.76664482,332.42878,102.99656)" />
    <path
       sodipodi:type="arc"
       style="fill:#ffffff;fill-opacity:1;stroke:#000000;stroke-width:1.77165353;stroke-linecap:round;stroke-linejoin:round;stroke-miterlimit:4;stroke-opacity:1;stroke-dasharray:none;stroke-dashoffset:0"
       id="path2985-1-3-6"
       sodipodi:cx="215.16249"
       sodipodi:cy="74.534515"
       sodipodi:rx="22.223356"
       sodipodi:ry="22.223356"
       d="m 237.38585,74.534515 c 0,12.273621 -9.94974,22.223357 -22.22336,22.223357 -12.27362,0 -22.22336,-9.949736 -22.22336,-22.223357 0,-12.27362 9.94974,-22.223356 22.22336,-22.223356 12.27362,0 22.22336,9.949736 22.22336,22.223356 z"
       transform="matrix(0.76664482,0,0,0.76664482,204.96681,205.78856)" />
    <path
       sodipodi:type="arc"
       style="fill:#ffffff;fill-opacity:1;stroke:#000000;stroke-width:1.77165353;stroke-linecap:round;stroke-linejoin:round;stroke-miterlimit:4;stroke-opacity:1;stroke-dasharray:none;stroke-dashoffset:0"
       id="path2985-1-3-9"
       sodipodi:cx="215.16249"
       sodipodi:cy="74.534515"
       sodipodi:rx="22.223356"
       sodipodi:ry="22.223356"
       d="m 237.38585,74.534515 c 0,12.273621 -9.94974,22.223357 -22.22336,22.223357 -12.27362,0 -22.22336,-9.949736 -22.22336,-22.223357 0,-12.27362 9.94974,-22.223356 22.22336,-22.223356 12.27362,0 22.22336,9.949736 22.22336,22.223356 z"
       transform="matrix(0.76664482,0,0,0.76664482,429.86789,102.99656)" />
    <path
       style="fill:none;stroke:#000000;stroke-width:1px;stroke-linecap:butt;stroke-linejoin:miter;stroke-opacity:1"
       d="m 509.13284,131.64662 12.77834,-16.48138"
       id="path4144"
       inkscape:connector-type="polyline"
       inkscape:connector-curvature="0"
       inkscape:connection-start="#path2985-1-3"
       inkscape:connection-start-point="d4"
       inkscape:connection-end="#path2985-7-4-9-3-2-4-0-4"
       inkscape:connection-end-point="d4"
       transform="translate(-1.3110386,15.02626)" />
    <path
       style="fill:none;stroke:#000000;stroke-width:1px;stroke-linecap:butt;stroke-linejoin:miter;stroke-opacity:1"
       d="M 582.04624,135.52443 546.43689,111.28742"
       id="path4146"
       inkscape:connector-type="polyline"
       inkscape:connector-curvature="0"
       inkscape:connection-start="#path2985-1-3-9"
       inkscape:connection-start-point="d4"
       inkscape:connection-end="#path2985-7-4-9-3-2-4-0-4"
       inkscape:connection-end-point="d4"
       transform="translate(-1.3110386,15.02626)" />
    <path
       style="fill:none;stroke:#000000;stroke-width:1px;stroke-linecap:butt;stroke-linejoin:miter;stroke-opacity:1"
       d="m 375.69264,231.45652 3.78661,-13.95904"
       id="path4148"
       inkscape:connector-type="polyline"
       inkscape:connector-curvature="0"
       inkscape:connection-start="#path2985-1-3-6"
       inkscape:connection-start-point="d4"
       inkscape:connection-end="#path2985-7-4-9-5"
       inkscape:connection-end-point="d4"
       transform="translate(-1.3110386,15.02626)" />
    <text
       xml:space="preserve"
       style="font-size:20px;font-style:normal;font-variant:normal;font-weight:normal;font-stretch:normal;text-align:center;line-height:125%;letter-spacing:0px;word-spacing:0px;text-anchor:middle;fill:#000000;fill-opacity:1;stroke:none;font-family:DejaVu Sans;-inkscape-font-specification:DejaVu Sans"
       x="478.43021"
       y="84.099495"
       id="text3019-5-7-3-9-4-8-2-1"
       sodipodi:linespacing="125%"><tspan
         sodipodi:role="line"
         id="tspan3021-1-4-9-8-0-4-0-8"
         x="478.43021"
         y="84.099495">R</tspan></text>
    <text
       xml:space="preserve"
       style="font-size:28px;font-style:normal;font-variant:normal;font-weight:normal;font-stretch:normal;text-align:center;line-height:125%;letter-spacing:0px;word-spacing:0px;text-anchor:middle;fill:#000000;fill-opacity:1;stroke:none;font-family:DejaVu Sans;-inkscape-font-specification:DejaVu Sans"
       x="337.59515"
       y="166.46048"
       id="text4190"
       sodipodi:linespacing="125%"><tspan
         sodipodi:role="line"
         id="tspan4192"
         x="337.59515"
         y="166.46048"
         style="font-size:20px">(grau 4)</tspan></text>
    <text
       xml:space="preserve"
       style="font-size:28px;font-style:normal;font-variant:normal;font-weight:normal;font-stretch:normal;text-align:center;line-height:125%;letter-spacing:0px;word-spacing:0px;text-anchor:middle;fill:#000000;fill-opacity:1;stroke:none;font-family:DejaVu Sans;-inkscape-font-specification:DejaVu Sans"
       x="589.14832"
       y="119.88453"
       id="text4190-4"
       sodipodi:linespacing="125%"><tspan
         sodipodi:role="line"
         id="tspan4192-4"
         x="589.14832"
         y="119.88453"
         style="font-size:20px">(grau 3)</tspan></text>
    <text
       xml:space="preserve"
       style="font-size:28px;font-style:normal;font-variant:normal;font-weight:normal;font-stretch:normal;text-align:center;line-height:125%;letter-spacing:0px;word-spacing:0px;text-anchor:middle;fill:#000000;fill-opacity:1;stroke:none;font-family:DejaVu Sans;-inkscape-font-specification:DejaVu Sans"
       x="539.02393"
       y="83.034271"
       id="text4190-4-4"
       sodipodi:linespacing="125%"><tspan
         sodipodi:role="line"
         id="tspan4192-4-8"
         x="539.02393"
         y="83.034271"
         style="font-size:20px">(grau 2)</tspan></text>
    <text
       xml:space="preserve"
       style="font-size:28px;font-style:normal;font-variant:normal;font-weight:normal;font-stretch:normal;text-align:center;line-height:125%;letter-spacing:0px;word-spacing:0px;text-anchor:middle;fill:#000000;fill-opacity:1;stroke:none;font-family:DejaVu Sans;-inkscape-font-specification:DejaVu Sans"
       x="370.93506"
       y="120.9556"
       id="text4190-4-4-1"
       sodipodi:linespacing="125%"><tspan
         sodipodi:role="line"
         id="tspan4192-4-8-5"
         x="370.93506"
         y="120.9556"
         style="font-size:20px">(grau 2)</tspan></text>
  </g>
</svg>
