<?xml version="1.0" encoding="UTF-8" standalone="no"?>
<!-- Created with Inkscape (http://www.inkscape.org/) -->

<svg
   xmlns:dc="http://purl.org/dc/elements/1.1/"
   xmlns:cc="http://creativecommons.org/ns#"
   xmlns:rdf="http://www.w3.org/1999/02/22-rdf-syntax-ns#"
   xmlns:svg="http://www.w3.org/2000/svg"
   xmlns="http://www.w3.org/2000/svg"
   xmlns:sodipodi="http://sodipodi.sourceforge.net/DTD/sodipodi-0.dtd"
   xmlns:inkscape="http://www.inkscape.org/namespaces/inkscape"
   width="1394.9041"
   height="195.67409"
   id="svg5533"
   version="1.1"
   inkscape:version="0.48.4 r9939"
   sodipodi:docname="nao-conexo.svg">
  <defs
     id="defs5535" />
  <sodipodi:namedview
     inkscape:document-units="mm"
     pagecolor="#ffffff"
     bordercolor="#666666"
     borderopacity="1.0"
     inkscape:pageopacity="0.0"
     inkscape:pageshadow="2"
     inkscape:zoom="0.61399264"
     inkscape:cx="968.16838"
     inkscape:cy="26.094185"
     inkscape:current-layer="layer1"
     id="namedview5537"
     showgrid="false"
     units="px"
     fit-margin-top="2"
     fit-margin-left="5"
     fit-margin-right="5"
     fit-margin-bottom="2"
     inkscape:window-width="1301"
     inkscape:window-height="744"
     inkscape:window-x="65"
     inkscape:window-y="24"
     inkscape:window-maximized="1" />
  <metadata
     id="metadata5539">
    <rdf:RDF>
      <cc:Work
         rdf:about="">
        <dc:format>image/svg+xml</dc:format>
        <dc:type
           rdf:resource="http://purl.org/dc/dcmitype/StillImage" />
        <dc:title></dc:title>
      </cc:Work>
    </rdf:RDF>
  </metadata>
  <g
     inkscape:label="Layer 1"
     inkscape:groupmode="layer"
     id="layer1"
     transform="translate(380.1569,-169.57309)">
    <path
       sodipodi:type="arc"
       style="fill:#cccccc;fill-opacity:1;stroke:#000000;stroke-width:1.77165353;stroke-linecap:round;stroke-linejoin:round;stroke-miterlimit:4;stroke-opacity:1;stroke-dasharray:none;stroke-dashoffset:0"
       id="path2985-7-45-3"
       sodipodi:cx="215.16249"
       sodipodi:cy="74.534515"
       sodipodi:rx="22.223356"
       sodipodi:ry="22.223356"
       d="m 237.38585,74.534515 c 0,12.273621 -9.94974,22.223357 -22.22336,22.223357 -12.27362,0 -22.22336,-9.949736 -22.22336,-22.223357 0,-12.27362 9.94974,-22.223356 22.22336,-22.223356 12.27362,0 22.22336,9.949736 22.22336,22.223356 z"
       transform="matrix(0.76664482,0,0,0.76664482,-372.133,132.40235)" />
    <path
       sodipodi:type="arc"
       style="fill:#cccccc;fill-opacity:1;stroke:#000000;stroke-width:1.77165353;stroke-linecap:round;stroke-linejoin:round;stroke-miterlimit:4;stroke-opacity:1;stroke-dasharray:none;stroke-dashoffset:0"
       id="path2985-7-4-3-8"
       sodipodi:cx="215.16249"
       sodipodi:cy="74.534515"
       sodipodi:rx="22.223356"
       sodipodi:ry="22.223356"
       d="m 237.38585,74.534515 c 0,12.273621 -9.94974,22.223357 -22.22336,22.223357 -12.27362,0 -22.22336,-9.949736 -22.22336,-22.223357 0,-12.27362 9.94974,-22.223356 22.22336,-22.223356 12.27362,0 22.22336,9.949736 22.22336,22.223356 z"
       transform="matrix(0.76664482,0,0,0.76664482,-290.49872,215.61736)" />
    <path
       sodipodi:type="arc"
       style="fill:#ff00ff;fill-opacity:1;stroke:#000000;stroke-width:1.77165353;stroke-linecap:round;stroke-linejoin:round;stroke-miterlimit:4;stroke-opacity:1;stroke-dasharray:none;stroke-dashoffset:0"
       id="path2985-7-4-9-5-1"
       sodipodi:cx="215.16249"
       sodipodi:cy="74.534515"
       sodipodi:rx="22.223356"
       sodipodi:ry="22.223356"
       d="m 237.38585,74.534515 c 0,12.273621 -9.94974,22.223357 -22.22336,22.223357 -12.27362,0 -22.22336,-9.949736 -22.22336,-22.223357 0,-12.27362 9.94974,-22.223356 22.22336,-22.223356 12.27362,0 22.22336,9.949736 22.22336,22.223356 z"
       transform="matrix(0.76664482,0,0,0.76664482,-466.0923,219.02784)" />
    <path
       sodipodi:type="arc"
       style="fill:#ff00ff;fill-opacity:1;stroke:#000000;stroke-width:1.77165353;stroke-linecap:round;stroke-linejoin:round;stroke-miterlimit:4;stroke-opacity:1;stroke-dasharray:none;stroke-dashoffset:0"
       id="path2985-7-4-9-3-2-0-4"
       sodipodi:cx="215.16249"
       sodipodi:cy="74.534515"
       sodipodi:rx="22.223356"
       sodipodi:ry="22.223356"
       d="m 237.38585,74.534515 c 0,12.273621 -9.94974,22.223357 -22.22336,22.223357 -12.27362,0 -22.22336,-9.949736 -22.22336,-22.223357 0,-12.27362 9.94974,-22.223356 22.22336,-22.223356 12.27362,0 22.22336,9.949736 22.22336,22.223356 z"
       transform="matrix(0.76664482,0,0,0.76664482,-506.99167,219.02784)" />
    <path
       sodipodi:type="arc"
       style="fill:#ff00ff;fill-opacity:1;stroke:#000000;stroke-width:1.77165353;stroke-linecap:round;stroke-linejoin:round;stroke-miterlimit:4;stroke-opacity:1;stroke-dasharray:none;stroke-dashoffset:0"
       id="path2985-7-4-9-3-2-4-1-7"
       sodipodi:cx="215.16249"
       sodipodi:cy="74.534515"
       sodipodi:rx="22.223356"
       sodipodi:ry="22.223356"
       d="m 237.38585,74.534515 c 0,12.273621 -9.94974,22.223357 -22.22336,22.223357 -12.27362,0 -22.22336,-9.949736 -22.22336,-22.223357 0,-12.27362 9.94974,-22.223356 22.22336,-22.223356 12.27362,0 22.22336,9.949736 22.22336,22.223356 z"
       transform="matrix(0.76664482,0,0,0.76664482,-453.16428,172.20561)" />
    <path
       sodipodi:type="arc"
       style="fill:#cccccc;fill-opacity:1;stroke:#000000;stroke-width:1.77165353;stroke-linecap:round;stroke-linejoin:round;stroke-miterlimit:4;stroke-opacity:1;stroke-dasharray:none;stroke-dashoffset:0"
       id="path2985-7-4-9-3-2-4-0-4-2"
       sodipodi:cx="215.16249"
       sodipodi:cy="74.534515"
       sodipodi:rx="22.223356"
       sodipodi:ry="22.223356"
       d="m 237.38585,74.534515 c 0,12.273621 -9.94974,22.223357 -22.22336,22.223357 -12.27362,0 -22.22336,-9.949736 -22.22336,-22.223357 0,-12.27362 9.94974,-22.223356 22.22336,-22.223356 12.27362,0 22.22336,9.949736 22.22336,22.223356 z"
       transform="matrix(0.76664482,0,0,0.76664482,-305.56032,172.20561)" />
    <path
       style="fill:#ffffff;stroke:#000000;stroke-width:1px;stroke-linecap:butt;stroke-linejoin:miter;stroke-opacity:1"
       d="m -296.60344,259.74228 3.85672,-13.96811"
       id="path4407-8"
       inkscape:connector-type="polyline"
       inkscape:connector-curvature="0"
       inkscape:connection-start="#path2985-7-4-9-5-1"
       inkscape:connection-start-point="d4"
       inkscape:connection-end="#path2985-7-4-9-3-2-4-1-7"
       inkscape:connection-end-point="d4" />
    <path
       style="fill:#ffffff;stroke:#000000;stroke-width:1px;stroke-linecap:butt;stroke-linejoin:miter;stroke-opacity:1"
       d="m -329.18361,264.98743 28.11769,-24.45841"
       id="path4409-1"
       inkscape:connector-type="polyline"
       inkscape:connector-curvature="0"
       inkscape:connection-start="#path2985-7-4-9-3-2-0-4"
       inkscape:connection-start-point="d4"
       inkscape:connection-end="#path2985-7-4-9-3-2-4-1-7"
       inkscape:connection-end-point="d4" />
    <path
       style="fill:#cccccc;stroke:#000000;stroke-width:1px;stroke-linecap:butt;stroke-linejoin:miter;stroke-opacity:1"
       d="m -131.13156,256.6583 -3.8895,-11.21063"
       id="path4413-8"
       inkscape:connector-type="polyline"
       inkscape:connector-curvature="0"
       inkscape:connection-start="#path2985-7-4-3-8"
       inkscape:connection-start-point="d4"
       inkscape:connection-end="#path2985-7-4-9-3-2-4-0-4-2"
       inkscape:connection-end-point="d4" />
    <path
       style="fill:#cccccc;stroke:#000000;stroke-width:1px;stroke-linecap:butt;stroke-linejoin:miter;stroke-opacity:1"
       d="m -155.23239,220.60278 -37.32213,-22.3146"
       id="path4415-8"
       inkscape:connector-type="polyline"
       inkscape:connector-curvature="0"
       inkscape:connection-start="#path2985-7-4-9-3-2-4-0-4-2"
       inkscape:connection-start-point="d4"
       inkscape:connection-end="#path2985-7-45-3"
       inkscape:connection-end-point="d4" />
    <path
       sodipodi:type="arc"
       style="fill:#ff00ff;fill-opacity:1;stroke:#000000;stroke-width:1.77165353;stroke-linecap:round;stroke-linejoin:round;stroke-miterlimit:4;stroke-opacity:1;stroke-dasharray:none;stroke-dashoffset:0"
       id="path2985-7-4-9-3-2-4-0-4-8-7-7"
       sodipodi:cx="215.16249"
       sodipodi:cy="74.534515"
       sodipodi:rx="22.223356"
       sodipodi:ry="22.223356"
       d="m 237.38585,74.534515 c 0,12.273621 -9.94974,22.223357 -22.22336,22.223357 -12.27362,0 -22.22336,-9.949736 -22.22336,-22.223357 0,-12.27362 9.94974,-22.223356 22.22336,-22.223356 12.27362,0 22.22336,9.949736 22.22336,22.223356 z"
       transform="matrix(0.76664482,0,0,0.76664482,-425.19291,219.02784)" />
    <path
       sodipodi:type="arc"
       style="fill:#ff00ff;fill-opacity:1;stroke:#000000;stroke-width:1.77165353;stroke-linecap:round;stroke-linejoin:round;stroke-miterlimit:4;stroke-opacity:1;stroke-dasharray:none;stroke-dashoffset:0"
       id="path2985-7-4-3-2-9"
       sodipodi:cx="215.16249"
       sodipodi:cy="74.534515"
       sodipodi:rx="22.223356"
       sodipodi:ry="22.223356"
       d="m 237.38585,74.534515 c 0,12.273621 -9.94974,22.223357 -22.22336,22.223357 -12.27362,0 -22.22336,-9.949736 -22.22336,-22.223357 0,-12.27362 9.94974,-22.223356 22.22336,-22.223356 12.27362,0 22.22336,9.949736 22.22336,22.223356 z"
       transform="matrix(0.76664482,0,0,0.76664482,-384.29353,219.02784)" />
    <path
       style="fill:#ffffff;stroke:#000000;stroke-width:1px;stroke-linecap:butt;stroke-linejoin:miter;stroke-opacity:1"
       d="m -279.47209,243.97559 10.49341,17.56527"
       id="path5080-8"
       inkscape:connector-type="polyline"
       inkscape:connector-curvature="0"
       inkscape:connection-start="#path2985-7-4-9-3-2-4-1-7"
       inkscape:connection-start-point="d4"
       inkscape:connection-end="#path2985-7-4-9-3-2-4-0-4-8-7-7"
       inkscape:connection-end-point="d4" />
    <path
       style="fill:#ff00ff;stroke:#000000;stroke-width:1px;stroke-linecap:butt;stroke-linejoin:miter;stroke-opacity:1"
       d="m -274.12006,238.92698 40.68873,27.6625"
       id="path5082-0"
       inkscape:connector-type="polyline"
       inkscape:connector-curvature="0"
       inkscape:connection-start="#path2985-7-4-9-3-2-4-1-7"
       inkscape:connection-start-point="d4"
       inkscape:connection-end="#path2985-7-4-3-2-9"
       inkscape:connection-end-point="d4" />
    <path
       sodipodi:type="arc"
       style="fill:#cccccc;fill-opacity:1;stroke:#000000;stroke-width:1.77165353;stroke-linecap:round;stroke-linejoin:round;stroke-miterlimit:4;stroke-opacity:1;stroke-dasharray:none;stroke-dashoffset:0"
       id="path2985-1-3-1"
       sodipodi:cx="215.16249"
       sodipodi:cy="74.534515"
       sodipodi:rx="22.223356"
       sodipodi:ry="22.223356"
       d="m 237.38585,74.534515 c 0,12.273621 -9.94974,22.223357 -22.22336,22.223357 -12.27362,0 -22.22336,-9.949736 -22.22336,-22.223357 0,-12.27362 9.94974,-22.223356 22.22336,-22.223356 12.27362,0 22.22336,9.949736 22.22336,22.223356 z"
       transform="matrix(0.76664482,0,0,0.76664482,-339.21829,215.61736)" />
    <path
       sodipodi:type="arc"
       style="fill:#cccccc;fill-opacity:1;stroke:#000000;stroke-width:1.77165353;stroke-linecap:round;stroke-linejoin:round;stroke-miterlimit:4;stroke-opacity:1;stroke-dasharray:none;stroke-dashoffset:0"
       id="path2985-1-3-9-1"
       sodipodi:cx="215.16249"
       sodipodi:cy="74.534515"
       sodipodi:rx="22.223356"
       sodipodi:ry="22.223356"
       d="m 237.38585,74.534515 c 0,12.273621 -9.94974,22.223357 -22.22336,22.223357 -12.27362,0 -22.22336,-9.949736 -22.22336,-22.223357 0,-12.27362 9.94974,-22.223356 22.22336,-22.223356 12.27362,0 22.22336,9.949736 22.22336,22.223356 z"
       transform="matrix(0.76664482,0,0,0.76664482,-241.77918,215.61736)" />
    <path
       style="fill:#cccccc;stroke:#000000;stroke-width:1px;stroke-linecap:butt;stroke-linejoin:miter;stroke-opacity:1"
       d="m -163.82526,259.29368 12.77833,-16.48139"
       id="path4144-1"
       inkscape:connector-type="polyline"
       inkscape:connector-curvature="0"
       inkscape:connection-start="#path2985-1-3-1"
       inkscape:connection-start-point="d4"
       inkscape:connection-end="#path2985-7-4-9-3-2-4-0-4-2"
       inkscape:connection-end-point="d4" />
    <path
       style="fill:#cccccc;stroke:#000000;stroke-width:1px;stroke-linecap:butt;stroke-linejoin:miter;stroke-opacity:1"
       d="M -90.911866,263.17149 -126.52122,238.93448"
       id="path4146-0"
       inkscape:connector-type="polyline"
       inkscape:connector-curvature="0"
       inkscape:connection-start="#path2985-1-3-9-1"
       inkscape:connection-start-point="d4"
       inkscape:connection-end="#path2985-7-4-9-3-2-4-0-4-2"
       inkscape:connection-end-point="d4" />
    <path
       sodipodi:type="arc"
       style="fill:#cccccc;fill-opacity:1;stroke:#000000;stroke-width:1.77165353;stroke-linecap:round;stroke-linejoin:round;stroke-miterlimit:4;stroke-opacity:1;stroke-dasharray:none;stroke-dashoffset:0"
       id="path2985-7-45-4-0"
       sodipodi:cx="215.16249"
       sodipodi:cy="74.534515"
       sodipodi:rx="22.223356"
       sodipodi:ry="22.223356"
       d="m 237.38585,74.534515 c 0,12.273621 -9.94974,22.223357 -22.22336,22.223357 -12.27362,0 -22.22336,-9.949736 -22.22336,-22.223357 0,-12.27362 9.94974,-22.223356 22.22336,-22.223356 12.27362,0 22.22336,9.949736 22.22336,22.223356 z"
       transform="matrix(0.76664482,0,0,0.76664482,2.577534,132.14813)" />
    <path
       sodipodi:type="arc"
       style="fill:#cccccc;fill-opacity:1;stroke:#000000;stroke-width:1.77165353;stroke-linecap:round;stroke-linejoin:round;stroke-miterlimit:4;stroke-opacity:1;stroke-dasharray:none;stroke-dashoffset:0"
       id="path2985-7-4-9-5-7-4"
       sodipodi:cx="215.16249"
       sodipodi:cy="74.534515"
       sodipodi:rx="22.223356"
       sodipodi:ry="22.223356"
       d="m 237.38585,74.534515 c 0,12.273621 -9.94974,22.223357 -22.22336,22.223357 -12.27362,0 -22.22336,-9.949736 -22.22336,-22.223357 0,-12.27362 9.94974,-22.223356 22.22336,-22.223356 12.27362,0 22.22336,9.949736 22.22336,22.223356 z"
       transform="matrix(0.76664482,0,0,0.76664482,-10.569566,224.83454)" />
    <path
       sodipodi:type="arc"
       style="fill:#cccccc;fill-opacity:1;stroke:#000000;stroke-width:1.77165353;stroke-linecap:round;stroke-linejoin:round;stroke-miterlimit:4;stroke-opacity:1;stroke-dasharray:none;stroke-dashoffset:0"
       id="path2985-7-4-9-3-2-0-0-8"
       sodipodi:cx="215.16249"
       sodipodi:cy="74.534515"
       sodipodi:rx="22.223356"
       sodipodi:ry="22.223356"
       d="m 237.38585,74.534515 c 0,12.273621 -9.94974,22.223357 -22.22336,22.223357 -12.27362,0 -22.22336,-9.949736 -22.22336,-22.223357 0,-12.27362 9.94974,-22.223356 22.22336,-22.223356 12.27362,0 22.22336,9.949736 22.22336,22.223356 z"
       transform="matrix(0.76664482,0,0,0.76664482,-82.783666,224.83454)" />
    <path
       sodipodi:type="arc"
       style="fill:#cccccc;fill-opacity:1;stroke:#000000;stroke-width:1.77165353;stroke-linecap:round;stroke-linejoin:round;stroke-miterlimit:4;stroke-opacity:1;stroke-dasharray:none;stroke-dashoffset:0"
       id="path2985-7-4-9-3-2-4-1-6-8"
       sodipodi:cx="215.16249"
       sodipodi:cy="74.534515"
       sodipodi:rx="22.223356"
       sodipodi:ry="22.223356"
       d="m 237.38585,74.534515 c 0,12.273621 -9.94974,22.223357 -22.22336,22.223357 -12.27362,0 -22.22336,-9.949736 -22.22336,-22.223357 0,-12.27362 9.94974,-22.223356 22.22336,-22.223356 12.27362,0 22.22336,9.949736 22.22336,22.223356 z"
       transform="matrix(0.76664482,0,0,0.76664482,-49.159326,178.01232)" />
    <path
       sodipodi:type="arc"
       style="fill:#ff00ff;fill-opacity:1;stroke:#000000;stroke-width:1.77165353;stroke-linecap:round;stroke-linejoin:round;stroke-miterlimit:4;stroke-opacity:1;stroke-dasharray:none;stroke-dashoffset:0"
       id="path2985-7-4-9-3-2-4-0-4-3-2"
       sodipodi:cx="215.16249"
       sodipodi:cy="74.534515"
       sodipodi:rx="22.223356"
       sodipodi:ry="22.223356"
       d="m 237.38585,74.534515 c 0,12.273621 -9.94974,22.223357 -22.22336,22.223357 -12.27362,0 -22.22336,-9.949736 -22.22336,-22.223357 0,-12.27362 9.94974,-22.223356 22.22336,-22.223356 12.27362,0 22.22336,9.949736 22.22336,22.223356 z"
       transform="matrix(0.76664482,0,0,0.76664482,59.048684,174.98186)" />
    <path
       inkscape:connection-start="#path2985-7-4-9-5-7-4"
       inkscape:connection-start-point="d4"
       inkscape:connection-end="#path2985-7-4-9-3-2-4-1-6-8"
       inkscape:connection-end-point="d4"
       style="fill:#cccccc;stroke:#000000;stroke-width:1px;stroke-linecap:butt;stroke-linejoin:miter;stroke-opacity:1"
       d="m 143.54746,268.82815 -16.9174,-20.52644"
       id="path4407-9-2"
       inkscape:connector-type="polyline"
       inkscape:connector-curvature="0" />
    <path
       inkscape:connection-start="#path2985-7-4-9-3-2-0-0-8"
       inkscape:connection-start-point="d4"
       inkscape:connection-end="#path2985-7-4-9-3-2-4-1-6-8"
       inkscape:connection-end-point="d4"
       style="fill:#cccccc;stroke:#000000;stroke-width:1px;stroke-linecap:butt;stroke-linejoin:miter;stroke-opacity:1"
       d="M 92.108265,268.13627 105.85516,248.99359"
       id="path4409-9-2"
       inkscape:connector-type="polyline"
       inkscape:connector-curvature="0" />
    <path
       inkscape:connection-end="#path2985-7-45-4-0"
       inkscape:connection-end-point="d4"
       inkscape:connection-start="#path2985-7-4-9-3-2-4-1-6-8"
       inkscape:connection-start-point="d4"
       style="fill:#cccccc;stroke:#000000;stroke-width:1px;stroke-linecap:butt;stroke-linejoin:miter;stroke-opacity:1"
       d="M 128.54313,223.85175 154.7815,200.5917"
       id="path4513-3-5"
       inkscape:connector-type="polyline"
       inkscape:connector-curvature="0" />
    <path
       sodipodi:type="arc"
       style="fill:#cccccc;fill-opacity:1;stroke:#000000;stroke-width:1.77165353;stroke-linecap:round;stroke-linejoin:round;stroke-miterlimit:4;stroke-opacity:1;stroke-dasharray:none;stroke-dashoffset:0"
       id="path2985-1-6-5-3"
       sodipodi:cx="215.16249"
       sodipodi:cy="74.534515"
       sodipodi:rx="22.223356"
       sodipodi:ry="22.223356"
       d="m 237.38585,74.534515 c 0,12.273621 -9.94974,22.223357 -22.22336,22.223357 -12.27362,0 -22.22336,-9.949736 -22.22336,-22.223357 0,-12.27362 9.94974,-22.223356 22.22336,-22.223356 12.27362,0 22.22336,9.949736 22.22336,22.223356 z"
       transform="matrix(0.0216785,0.76633825,-0.76633825,0.0216785,454.11449,48.576319)" />
    <path
       sodipodi:type="arc"
       style="fill:#cccccc;fill-opacity:1;stroke:#000000;stroke-width:1.77165353;stroke-linecap:round;stroke-linejoin:round;stroke-miterlimit:4;stroke-opacity:1;stroke-dasharray:none;stroke-dashoffset:0"
       id="path2985-7-45-9-8-8"
       sodipodi:cx="215.16249"
       sodipodi:cy="74.534515"
       sodipodi:rx="22.223356"
       sodipodi:ry="22.223356"
       d="m 237.38585,74.534515 c 0,12.273621 -9.94974,22.223357 -22.22336,22.223357 -12.27362,0 -22.22336,-9.949736 -22.22336,-22.223357 0,-12.27362 9.94974,-22.223356 22.22336,-22.223356 12.27362,0 22.22336,9.949736 22.22336,22.223356 z"
       transform="matrix(0.0216785,0.76633825,-0.76633825,0.0216785,561.85089,98.383784)" />
    <path
       sodipodi:type="arc"
       style="fill:#cccccc;fill-opacity:1;stroke:#000000;stroke-width:1.77165353;stroke-linecap:round;stroke-linejoin:round;stroke-miterlimit:4;stroke-opacity:1;stroke-dasharray:none;stroke-dashoffset:0"
       id="path2985-7-4-9-3-1-6-9-9"
       sodipodi:cx="215.16249"
       sodipodi:cy="74.534515"
       sodipodi:rx="22.223356"
       sodipodi:ry="22.223356"
       d="m 237.38585,74.534515 c 0,12.273621 -9.94974,22.223357 -22.22336,22.223357 -12.27362,0 -22.22336,-9.949736 -22.22336,-22.223357 0,-12.27362 9.94974,-22.223356 22.22336,-22.223356 12.27362,0 22.22336,9.949736 22.22336,22.223356 z"
       transform="matrix(0.0216785,0.76633825,-0.76633825,0.0216785,523.55009,48.576319)" />
    <path
       sodipodi:type="arc"
       style="fill:#cccccc;fill-opacity:1;stroke:#000000;stroke-width:1.77165353;stroke-linecap:round;stroke-linejoin:round;stroke-miterlimit:4;stroke-opacity:1;stroke-dasharray:none;stroke-dashoffset:0"
       id="path2985-7-4-9-3-2-4-0-4-1-4-6"
       sodipodi:cx="215.16249"
       sodipodi:cy="74.534515"
       sodipodi:rx="22.223356"
       sodipodi:ry="22.223356"
       d="m 237.38585,74.534515 c 0,12.273621 -9.94974,22.223357 -22.22336,22.223357 -12.27362,0 -22.22336,-9.949736 -22.22336,-22.223357 0,-12.27362 9.94974,-22.223356 22.22336,-22.223356 12.27362,0 22.22336,9.949736 22.22336,22.223356 z"
       transform="matrix(0.0216785,0.76633825,-0.76633825,0.0216785,523.55009,148.19125)" />
    <path
       style="fill:#cccccc;stroke:#000000;stroke-width:1px;stroke-linecap:butt;stroke-linejoin:miter;stroke-opacity:1"
       d="M 499.01015,251.37994 481.48233,228.58625"
       id="path4403-1-8-6"
       inkscape:connector-type="polyline"
       inkscape:connector-curvature="0"
       inkscape:connection-start="#path2985-7-45-9-8-8"
       inkscape:connection-start-point="d4"
       inkscape:connection-end="#path2985-7-4-9-3-1-6-9-9"
       inkscape:connection-end-point="d4" />
    <path
       style="fill:#cccccc;stroke:#000000;stroke-width:1px;stroke-linecap:butt;stroke-linejoin:miter;stroke-opacity:1"
       d="m 418.69779,215.07936 35.3605,0"
       id="path4411-3-0-8"
       inkscape:connector-type="polyline"
       inkscape:connector-curvature="0"
       inkscape:connection-start="#path2985-1-6-5-3"
       inkscape:connection-start-point="d4"
       inkscape:connection-end="#path2985-7-4-9-3-1-6-9-9"
       inkscape:connection-end-point="d4" />
    <path
       style="fill:#cccccc;stroke:#000000;stroke-width:1px;stroke-linecap:butt;stroke-linejoin:miter;stroke-opacity:1"
       d="m 481.48191,301.18795 17.52866,-22.79478"
       id="path4415-0-7-3"
       inkscape:connector-type="polyline"
       inkscape:connector-curvature="0"
       inkscape:connection-start="#path2985-7-4-9-3-2-4-0-4-1-4-6"
       inkscape:connection-start-point="d4"
       inkscape:connection-end="#path2985-7-45-9-8-8"
       inkscape:connection-end-point="d4" />
    <path
       sodipodi:type="arc"
       style="fill:#ff00ff;fill-opacity:1;stroke:#000000;stroke-width:1.77165353;stroke-linecap:round;stroke-linejoin:round;stroke-miterlimit:4;stroke-opacity:1;stroke-dasharray:none;stroke-dashoffset:0"
       id="path2985-1-3-5-3-5"
       sodipodi:cx="215.16249"
       sodipodi:cy="74.534515"
       sodipodi:rx="22.223356"
       sodipodi:ry="22.223356"
       d="m 237.38585,74.534515 c 0,12.273621 -9.94974,22.223357 -22.22336,22.223357 -12.27362,0 -22.22336,-9.949736 -22.22336,-22.223357 0,-12.27362 9.94974,-22.223356 22.22336,-22.223356 12.27362,0 22.22336,9.949736 22.22336,22.223356 z"
       transform="matrix(0.0216785,0.76633825,-0.76633825,0.0216785,454.11449,148.19125)" />
    <path
       sodipodi:type="arc"
       style="fill:#ff00ff;fill-opacity:1;stroke:#000000;stroke-width:1.77165353;stroke-linecap:round;stroke-linejoin:round;stroke-miterlimit:4;stroke-opacity:1;stroke-dasharray:none;stroke-dashoffset:0"
       id="path2985-1-6-5-8-5"
       sodipodi:cx="215.16249"
       sodipodi:cy="74.534515"
       sodipodi:rx="22.223356"
       sodipodi:ry="22.223356"
       d="m 237.38585,74.534515 c 0,12.273621 -9.94974,22.223357 -22.22336,22.223357 -12.27362,0 -22.22336,-9.949736 -22.22336,-22.223357 0,-12.27362 9.94974,-22.223356 22.22336,-22.223356 12.27362,0 22.22336,9.949736 22.22336,22.223356 z"
       transform="matrix(-0.76633825,0.0216785,-0.0216785,-0.76633825,1144.2541,261.493)" />
    <path
       sodipodi:type="arc"
       style="fill:#cccccc;fill-opacity:1;stroke:#000000;stroke-width:1.77165353;stroke-linecap:round;stroke-linejoin:round;stroke-miterlimit:4;stroke-opacity:1;stroke-dasharray:none;stroke-dashoffset:0"
       id="path2985-7-45-9-8-2-7"
       sodipodi:cx="215.16249"
       sodipodi:cy="74.534515"
       sodipodi:rx="22.223356"
       sodipodi:ry="22.223356"
       d="m 237.38585,74.534515 c 0,12.273621 -9.94974,22.223357 -22.22336,22.223357 -12.27362,0 -22.22336,-9.949736 -22.22336,-22.223357 0,-12.27362 9.94974,-22.223356 22.22336,-22.223356 12.27362,0 22.22336,9.949736 22.22336,22.223356 z"
       transform="matrix(-0.76633825,0.0216785,-0.0216785,-0.76633825,1094.4466,369.22941)" />
    <path
       sodipodi:type="arc"
       style="fill:#ff00ff;fill-opacity:1;stroke:#000000;stroke-width:1.77165353;stroke-linecap:round;stroke-linejoin:round;stroke-miterlimit:4;stroke-opacity:1;stroke-dasharray:none;stroke-dashoffset:0"
       id="path2985-7-4-9-3-1-6-9-0-9"
       sodipodi:cx="215.16249"
       sodipodi:cy="74.534515"
       sodipodi:rx="22.223356"
       sodipodi:ry="22.223356"
       d="m 237.38585,74.534515 c 0,12.273621 -9.94974,22.223357 -22.22336,22.223357 -12.27362,0 -22.22336,-9.949736 -22.22336,-22.223357 0,-12.27362 9.94974,-22.223356 22.22336,-22.223356 12.27362,0 22.22336,9.949736 22.22336,22.223356 z"
       transform="matrix(-0.76633825,0.0216785,-0.0216785,-0.76633825,1144.2541,330.92862)" />
    <path
       sodipodi:type="arc"
       style="fill:#cccccc;fill-opacity:1;stroke:#000000;stroke-width:1.77165353;stroke-linecap:round;stroke-linejoin:round;stroke-miterlimit:4;stroke-opacity:1;stroke-dasharray:none;stroke-dashoffset:0"
       id="path2985-7-4-9-3-2-4-0-4-1-4-3-8"
       sodipodi:cx="215.16249"
       sodipodi:cy="74.534515"
       sodipodi:rx="22.223356"
       sodipodi:ry="22.223356"
       d="m 237.38585,74.534515 c 0,12.273621 -9.94974,22.223357 -22.22336,22.223357 -12.27362,0 -22.22336,-9.949736 -22.22336,-22.223357 0,-12.27362 9.94974,-22.223356 22.22336,-22.223356 12.27362,0 22.22336,9.949736 22.22336,22.223356 z"
       transform="matrix(-0.76633825,0.0216785,-0.0216785,-0.76633825,1044.6391,330.92862)" />
    <path
       style="fill:#cccccc;stroke:#000000;stroke-width:1px;stroke-linecap:butt;stroke-linejoin:miter;stroke-opacity:1"
       d="m 977.75106,226.0763 0,35.36052"
       id="path4411-3-0-3-2"
       inkscape:connector-type="polyline"
       inkscape:connector-curvature="0"
       inkscape:connection-start="#path2985-1-6-5-8-5"
       inkscape:connection-start-point="d4"
       inkscape:connection-end="#path2985-7-4-9-3-1-6-9-0-9"
       inkscape:connection-end-point="d4" />
    <path
       style="fill:#cccccc;stroke:#000000;stroke-width:1px;stroke-linecap:butt;stroke-linejoin:miter;stroke-opacity:1"
       d="m 891.64241,288.86043 22.7948,17.52867"
       id="path4415-0-7-4-4"
       inkscape:connector-type="polyline"
       inkscape:connector-curvature="0"
       inkscape:connection-start="#path2985-7-4-9-3-2-4-0-4-1-4-3-8"
       inkscape:connection-start-point="d4"
       inkscape:connection-end="#path2985-7-45-9-8-2-7"
       inkscape:connection-end-point="d4" />
    <path
       sodipodi:type="arc"
       style="fill:#cccccc;fill-opacity:1;stroke:#000000;stroke-width:1.77165353;stroke-linecap:round;stroke-linejoin:round;stroke-miterlimit:4;stroke-opacity:1;stroke-dasharray:none;stroke-dashoffset:0"
       id="path2985-1-3-5-3-9-1"
       sodipodi:cx="215.16249"
       sodipodi:cy="74.534515"
       sodipodi:rx="22.223356"
       sodipodi:ry="22.223356"
       d="m 237.38585,74.534515 c 0,12.273621 -9.94974,22.223357 -22.22336,22.223357 -12.27362,0 -22.22336,-9.949736 -22.22336,-22.223357 0,-12.27362 9.94974,-22.223356 22.22336,-22.223356 12.27362,0 22.22336,9.949736 22.22336,22.223356 z"
       transform="matrix(-0.76633825,0.0216785,-0.0216785,-0.76633825,1044.6391,261.493)" />
    <path
       style="fill:#cccccc;stroke:#000000;stroke-width:1px;stroke-linecap:butt;stroke-linejoin:miter;stroke-opacity:1"
       d="m 878.13606,226.0763 0,35.36052"
       id="path4144-0-9-9-2"
       inkscape:connector-type="polyline"
       inkscape:connector-curvature="0"
       inkscape:connection-start="#path2985-1-3-5-3-9-1"
       inkscape:connection-start-point="d4"
       inkscape:connection-end="#path2985-7-4-9-3-2-4-0-4-1-4-3-8"
       inkscape:connection-end-point="d4" />
    <path
       sodipodi:type="arc"
       style="fill:#cccccc;fill-opacity:1;stroke:#000000;stroke-width:1.77165353;stroke-linecap:round;stroke-linejoin:round;stroke-miterlimit:4;stroke-opacity:1;stroke-dasharray:none;stroke-dashoffset:0"
       id="path2985-1-6-3-1-8-9"
       sodipodi:cx="215.16249"
       sodipodi:cy="74.534515"
       sodipodi:rx="22.223356"
       sodipodi:ry="22.223356"
       d="m 237.38585,74.534515 c 0,12.273621 -9.94974,22.223357 -22.22336,22.223357 -12.27362,0 -22.22336,-9.949736 -22.22336,-22.223357 0,-12.27362 9.94974,-22.223356 22.22336,-22.223356 12.27362,0 22.22336,9.949736 22.22336,22.223356 z"
       transform="matrix(0,-0.76664482,0.76664482,0,720.3484,411.05019)" />
    <path
       sodipodi:type="arc"
       style="fill:#cccccc;fill-opacity:1;stroke:#000000;stroke-width:1.77165353;stroke-linecap:round;stroke-linejoin:round;stroke-miterlimit:4;stroke-opacity:1;stroke-dasharray:none;stroke-dashoffset:0"
       id="path2985-7-45-9-30-4-0-9"
       sodipodi:cx="215.16249"
       sodipodi:cy="74.534515"
       sodipodi:rx="22.223356"
       sodipodi:ry="22.223356"
       d="m 237.38585,74.534515 c 0,12.273621 -9.94974,22.223357 -22.22336,22.223357 -12.27362,0 -22.22336,-9.949736 -22.22336,-22.223357 0,-12.27362 9.94974,-22.223356 22.22336,-22.223356 12.27362,0 22.22336,9.949736 22.22336,22.223356 z"
       transform="matrix(0,-0.76664482,0.76664482,0,622.61408,434.87759)" />
    <path
       sodipodi:type="arc"
       style="fill:#cccccc;fill-opacity:1;stroke:#000000;stroke-width:1.77165353;stroke-linecap:round;stroke-linejoin:round;stroke-miterlimit:4;stroke-opacity:1;stroke-dasharray:none;stroke-dashoffset:0"
       id="path2985-7-4-9-3-1-6-3-9-2-3"
       sodipodi:cx="215.16249"
       sodipodi:cy="74.534515"
       sodipodi:rx="22.223356"
       sodipodi:ry="22.223356"
       d="m 237.38585,74.534515 c 0,12.273621 -9.94974,22.223357 -22.22336,22.223357 -12.27362,0 -22.22336,-9.949736 -22.22336,-22.223357 0,-12.27362 9.94974,-22.223356 22.22336,-22.223356 12.27362,0 22.22336,9.949736 22.22336,22.223356 z"
       transform="matrix(0,-0.76664482,0.76664482,0,670.9367,434.87759)" />
    <path
       style="fill:#cccccc;stroke:#000000;stroke-width:1px;stroke-linecap:butt;stroke-linejoin:miter;stroke-opacity:1"
       d="m 696.793,269.92438 14.24778,0"
       id="path4403-1-2-1-0-9"
       inkscape:connector-type="polyline"
       inkscape:connector-curvature="0"
       inkscape:connection-start="#path2985-7-45-9-30-4-0-9"
       inkscape:connection-start-point="d4"
       inkscape:connection-end="#path2985-7-4-9-3-1-6-3-9-2-3"
       inkscape:connection-end-point="d4" />
    <path
       style="fill:#cccccc;stroke:#000000;stroke-width:1px;stroke-linecap:butt;stroke-linejoin:miter;stroke-opacity:1"
       d="m 762.14008,253.499 -18.71206,9.02336"
       id="path4411-3-7-3-4-9"
       inkscape:connector-type="polyline"
       inkscape:connector-curvature="0"
       inkscape:connection-start="#path2985-1-6-3-1-8-9"
       inkscape:connection-start-point="d4"
       inkscape:connection-end-point="d4"
       inkscape:connection-end="#path2985-7-4-9-3-1-6-3-9-2-3" />
    <path
       sodipodi:type="arc"
       style="fill:#ff00ff;fill-opacity:1;stroke:#000000;stroke-width:1.77165353;stroke-linecap:round;stroke-linejoin:round;stroke-miterlimit:4;stroke-opacity:1;stroke-dasharray:none;stroke-dashoffset:0"
       id="path2985-7-4-3-2-4-9-6-4-3"
       sodipodi:cx="215.16249"
       sodipodi:cy="74.534515"
       sodipodi:rx="22.223356"
       sodipodi:ry="22.223356"
       d="m 237.38585,74.534515 c 0,12.273621 -9.94974,22.223357 -22.22336,22.223357 -12.27362,0 -22.22336,-9.949736 -22.22336,-22.223357 0,-12.27362 9.94974,-22.223356 22.22336,-22.223356 12.27362,0 22.22336,9.949736 22.22336,22.223356 z"
       transform="matrix(0,-0.76664482,0.76664482,0,720.3484,496.46359)" />
    <path
       sodipodi:type="arc"
       style="fill:#cccccc;fill-opacity:1;stroke:#000000;stroke-width:1.77165353;stroke-linecap:round;stroke-linejoin:round;stroke-miterlimit:4;stroke-opacity:1;stroke-dasharray:none;stroke-dashoffset:0"
       id="path2985-1-3-5-7-9-6-4"
       sodipodi:cx="215.16249"
       sodipodi:cy="74.534515"
       sodipodi:rx="22.223356"
       sodipodi:ry="22.223356"
       d="m 237.38585,74.534515 c 0,12.273621 -9.94974,22.223357 -22.22336,22.223357 -12.27362,0 -22.22336,-9.949736 -22.22336,-22.223357 0,-12.27362 9.94974,-22.223356 22.22336,-22.223356 12.27362,0 22.22336,9.949736 22.22336,22.223356 z"
       transform="matrix(0,-0.76664482,0.76664482,0,720.3484,368.88079)" />
    <path
       sodipodi:type="arc"
       style="fill:#cccccc;fill-opacity:1;stroke:#000000;stroke-width:1.77165353;stroke-linecap:round;stroke-linejoin:round;stroke-miterlimit:4;stroke-opacity:1;stroke-dasharray:none;stroke-dashoffset:0"
       id="path2985-1-6-3-7-0-2-2"
       sodipodi:cx="215.16249"
       sodipodi:cy="74.534515"
       sodipodi:rx="22.223356"
       sodipodi:ry="22.223356"
       d="m 237.38585,74.534515 c 0,12.273621 -9.94974,22.223357 -22.22336,22.223357 -12.27362,0 -22.22336,-9.949736 -22.22336,-22.223357 0,-12.27362 9.94974,-22.223356 22.22336,-22.223356 12.27362,0 22.22336,9.949736 22.22336,22.223356 z"
       transform="matrix(0,-0.76664482,0.76664482,0,720.3484,453.69339)" />
    <path
       style="fill:#cccccc;stroke:#000000;stroke-width:1px;stroke-linecap:butt;stroke-linejoin:miter;stroke-opacity:1"
       d="m 761.56351,282.67547 -17.55892,-6.68638"
       id="path5001-7-0-0"
       inkscape:connector-type="polyline"
       inkscape:connector-curvature="0"
       inkscape:connection-start="#path2985-1-6-3-7-0-2-2"
       inkscape:connection-start-point="d4"
       inkscape:connection-end-point="d4"
       inkscape:connection-end="#path2985-7-4-9-3-1-6-3-9-2-3" />
    <path
       sodipodi:type="arc"
       style="fill:#cccccc;fill-opacity:1;stroke:#000000;stroke-width:1.77165353;stroke-linecap:round;stroke-linejoin:round;stroke-miterlimit:4;stroke-opacity:1;stroke-dasharray:none;stroke-dashoffset:0"
       id="path2985-7-45-9-30-4-8-7-6"
       sodipodi:cx="215.16249"
       sodipodi:cy="74.534515"
       sodipodi:rx="22.223356"
       sodipodi:ry="22.223356"
       d="m 237.38585,74.534515 c 0,12.273621 -9.94974,22.223357 -22.22336,22.223357 -12.27362,0 -22.22336,-9.949736 -22.22336,-22.223357 0,-12.27362 9.94974,-22.223356 22.22336,-22.223356 12.27362,0 22.22336,9.949736 22.22336,22.223356 z"
       transform="matrix(0,-0.76664482,0.76664482,0,574.29139,434.87759)" />
    <path
       style="fill:none;stroke:#000000;stroke-width:1px;stroke-linecap:butt;stroke-linejoin:miter;stroke-opacity:1"
       d="m 648.47031,269.92438 14.24785,0"
       id="path5265-1-4"
       inkscape:connector-type="polyline"
       inkscape:connector-curvature="0"
       inkscape:connection-start="#path2985-7-45-9-30-4-8-7-6"
       inkscape:connection-start-point="d4"
       inkscape:connection-end="#path2985-7-45-9-30-4-0-9"
       inkscape:connection-end-point="d4" />
    <path
       style="fill:none;stroke:#000000;stroke-width:1px;stroke-linecap:butt;stroke-linejoin:miter;stroke-opacity:1"
       d="m 738.28989,256.28512 28.98832,-38.71828"
       id="path5269-2-0"
       inkscape:connector-type="polyline"
       inkscape:connector-curvature="0"
       inkscape:connection-start="#path2985-7-4-9-3-1-6-3-9-2-3"
       inkscape:connection-start-point="d4"
       inkscape:connection-end="#path2985-1-3-5-7-9-6-4"
       inkscape:connection-end-point="d4" />
    <path
       style="fill:none;stroke:#000000;stroke-width:1;stroke-miterlimit:4;stroke-dasharray:1, 6;stroke-dashoffset:0"
       d="m -194.13836,270.78068 c 0,42.27637 -14.82386,58.69751 -76.43943,58.69751 -61.61557,0 -104.07911,-15.84531 -104.07911,-58.12168 0,-42.27638 11.94472,-67.33493 73.56029,-67.33493 61.61557,0 106.95825,24.48272 106.95825,66.7591 z"
       id="path6426"
       inkscape:connector-curvature="0"
       sodipodi:nodetypes="sssss" />
    <path
       style="fill:none;stroke:#000000;stroke-width:1;stroke-miterlimit:4;stroke-dasharray:1, 6;stroke-dashoffset:0"
       d="m 265.87725,235.80714 c 0,21.48931 -7.20452,29.83626 -37.15021,29.83626 -29.94571,0 -50.58336,-8.05426 -50.58336,-29.54356 0,-21.48932 5.80524,-34.22673 35.75093,-34.22673 29.94571,0 51.98264,12.44471 51.98264,33.93403 z"
       id="path6426-5"
       inkscape:connector-curvature="0"
       sodipodi:nodetypes="sssss" />
    <path
       style="fill:none;stroke:#000000;stroke-width:1;stroke-miterlimit:4;stroke-dasharray:1, 6;stroke-dashoffset:0"
       d="m 812.67293,332.91092 c 0,21.48931 -1.20452,29.83626 -31.15021,29.83626 -29.94571,0 -40.58336,-8.05426 -40.58336,-29.54356 0,-21.48932 -4.19476,-24.22673 25.75093,-24.22673 29.94571,0 45.98264,2.44471 45.98264,23.93403 z"
       id="path6426-5-8-1"
       inkscape:connector-curvature="0"
       sodipodi:nodetypes="sssss" />
    <path
       style="fill:none;stroke:#000000;stroke-width:1;stroke-miterlimit:4;stroke-dasharray:1, 6;stroke-dashoffset:0"
       d="m 975.45699,314.91867 c -21.39822,0 -29.70981,-11.67461 -29.70981,-60.19977 0,-48.52513 8.02013,-81.96712 29.41835,-81.96712 21.39831,0 34.08167,9.40703 34.08167,57.93214 0,48.52515 -12.39196,84.23475 -33.79021,84.23475 z"
       id="path6426-5-8-1-9"
       inkscape:connector-curvature="0"
       sodipodi:nodetypes="sssss" />
    <path
       sodipodi:type="arc"
       style="fill:none;stroke:#000000;stroke-width:0.77218181;stroke-linecap:round;stroke-linejoin:round;stroke-miterlimit:4;stroke-opacity:1;stroke-dasharray:0.77218181, 4.63309086;stroke-dashoffset:0"
       id="path6512"
       sodipodi:cx="880.15118"
       sodipodi:cy="-45.674294"
       sodipodi:rx="23.896811"
       sodipodi:ry="23.896811"
       d="m 904.04799,-45.674294 c 0,13.197845 -10.69896,23.896811 -23.89681,23.896811 -13.19784,0 -23.89681,-10.698966 -23.89681,-23.896811 0,-13.197844 10.69897,-23.89681 23.89681,-23.89681 13.19785,0 23.89681,10.698966 23.89681,23.89681 z"
       transform="matrix(1.2950318,0,0,1.2950318,-738.58376,373.93502)" />
  </g>
</svg>
