<?xml version="1.0" encoding="UTF-8" standalone="no"?>
<!-- Created with Inkscape (http://www.inkscape.org/) -->

<svg
   xmlns:dc="http://purl.org/dc/elements/1.1/"
   xmlns:cc="http://creativecommons.org/ns#"
   xmlns:rdf="http://www.w3.org/1999/02/22-rdf-syntax-ns#"
   xmlns:svg="http://www.w3.org/2000/svg"
   xmlns="http://www.w3.org/2000/svg"
   xmlns:sodipodi="http://sodipodi.sourceforge.net/DTD/sodipodi-0.dtd"
   xmlns:inkscape="http://www.inkscape.org/namespaces/inkscape"
   width="1113.0273"
   height="847.17847"
   id="svg3958"
   version="1.1"
   inkscape:version="0.48.4 r9939"
   sodipodi:docname="niveis_nos.svg">
  <defs
     id="defs3960">
    <marker
       inkscape:stockid="Arrow1Lend"
       orient="auto"
       refY="0"
       refX="0"
       id="Arrow1Lend"
       style="overflow:visible">
      <path
         id="path4710"
         d="M 0,0 5,-5 -12.5,0 5,5 0,0 z"
         style="fill-rule:evenodd;stroke:#000000;stroke-width:1pt"
         transform="matrix(-0.8,0,0,-0.8,-10,0)"
         inkscape:connector-curvature="0" />
    </marker>
    <marker
       inkscape:stockid="Arrow1Lend"
       orient="auto"
       refY="0"
       refX="0"
       id="marker4064"
       style="overflow:visible">
      <path
         id="path4066"
         d="M 0,0 5,-5 -12.5,0 5,5 0,0 z"
         style="fill-rule:evenodd;stroke:#000000;stroke-width:1pt"
         transform="matrix(-0.8,0,0,-0.8,-10,0)"
         inkscape:connector-curvature="0" />
    </marker>
    <marker
       inkscape:stockid="Arrow1Lend"
       orient="auto"
       refY="0"
       refX="0"
       id="marker4068"
       style="overflow:visible">
      <path
         id="path4070"
         d="M 0,0 5,-5 -12.5,0 5,5 0,0 z"
         style="fill-rule:evenodd;stroke:#000000;stroke-width:1pt"
         transform="matrix(-0.8,0,0,-0.8,-10,0)"
         inkscape:connector-curvature="0" />
    </marker>
    <marker
       inkscape:stockid="Arrow1Lend"
       orient="auto"
       refY="0"
       refX="0"
       id="marker4072"
       style="overflow:visible">
      <path
         id="path4074"
         d="M 0,0 5,-5 -12.5,0 5,5 0,0 z"
         style="fill-rule:evenodd;stroke:#000000;stroke-width:1pt"
         transform="matrix(-0.8,0,0,-0.8,-10,0)"
         inkscape:connector-curvature="0" />
    </marker>
    <marker
       inkscape:stockid="Arrow1Lend"
       orient="auto"
       refY="0"
       refX="0"
       id="marker4076"
       style="overflow:visible">
      <path
         id="path4078"
         d="M 0,0 5,-5 -12.5,0 5,5 0,0 z"
         style="fill-rule:evenodd;stroke:#000000;stroke-width:1pt"
         transform="matrix(-0.8,0,0,-0.8,-10,0)"
         inkscape:connector-curvature="0" />
    </marker>
  </defs>
  <sodipodi:namedview
     inkscape:document-units="mm"
     pagecolor="#ffffff"
     bordercolor="#666666"
     borderopacity="1.0"
     inkscape:pageopacity="0.0"
     inkscape:pageshadow="2"
     inkscape:zoom="1.2279853"
     inkscape:cx="950.97691"
     inkscape:cy="225.70406"
     inkscape:current-layer="layer1"
     id="namedview3962"
     showgrid="false"
     units="mm"
     fit-margin-top="5"
     fit-margin-left="2"
     fit-margin-right="2"
     fit-margin-bottom="5"
     inkscape:window-width="1301"
     inkscape:window-height="744"
     inkscape:window-x="65"
     inkscape:window-y="24"
     inkscape:window-maximized="1" />
  <metadata
     id="metadata3964">
    <rdf:RDF>
      <cc:Work
         rdf:about="">
        <dc:format>image/svg+xml</dc:format>
        <dc:type
           rdf:resource="http://purl.org/dc/dcmitype/StillImage" />
        <dc:title />
      </cc:Work>
    </rdf:RDF>
  </metadata>
  <g
     inkscape:label="Layer 1"
     inkscape:groupmode="layer"
     id="layer1"
     transform="translate(-175.96404,-5.9770322)">
    <path
       sodipodi:type="arc"
       style="fill:#ffffff;fill-opacity:1;stroke:#000000;stroke-width:1.77165353;stroke-linecap:round;stroke-linejoin:round;stroke-miterlimit:4;stroke-opacity:1;stroke-dasharray:none;stroke-dashoffset:0"
       id="path2985"
       sodipodi:cx="215.16249"
       sodipodi:cy="74.534515"
       sodipodi:rx="22.223356"
       sodipodi:ry="22.223356"
       d="m 237.38585,74.534515 c 0,12.273621 -9.94974,22.223357 -22.22336,22.223357 -12.27362,0 -22.22336,-9.949736 -22.22336,-22.223357 0,-12.27362 9.94974,-22.223356 22.22336,-22.223356 12.27362,0 22.22336,9.949736 22.22336,22.223356 z"
       transform="matrix(2.6093336,0,0,2.6093336,-114.77776,237.33132)" />
    <path
       sodipodi:type="arc"
       style="fill:#ffffff;fill-opacity:1;stroke:#000000;stroke-width:1.77165353;stroke-linecap:round;stroke-linejoin:round;stroke-miterlimit:4;stroke-opacity:1;stroke-dasharray:none;stroke-dashoffset:0"
       id="path2985-7"
       sodipodi:cx="215.16249"
       sodipodi:cy="74.534515"
       sodipodi:rx="22.223356"
       sodipodi:ry="22.223356"
       d="m 237.38585,74.534515 c 0,12.273621 -9.94974,22.223357 -22.22336,22.223357 -12.27362,0 -22.22336,-9.949736 -22.22336,-22.223357 0,-12.27362 9.94974,-22.223356 22.22336,-22.223356 12.27362,0 22.22336,9.949736 22.22336,22.223356 z"
       transform="matrix(2.6093336,0,0,2.6093336,266.32191,234.58532)" />
    <path
       sodipodi:type="arc"
       style="fill:#ffffff;fill-opacity:1;stroke:#000000;stroke-width:1.77165353;stroke-linecap:round;stroke-linejoin:round;stroke-miterlimit:4;stroke-opacity:1;stroke-dasharray:none;stroke-dashoffset:0"
       id="path2985-7-4"
       sodipodi:cx="215.16249"
       sodipodi:cy="74.534515"
       sodipodi:rx="22.223356"
       sodipodi:ry="22.223356"
       d="m 237.38585,74.534515 c 0,12.273621 -9.94974,22.223357 -22.22336,22.223357 -12.27362,0 -22.22336,-9.949736 -22.22336,-22.223357 0,-12.27362 9.94974,-22.223356 22.22336,-22.223356 12.27362,0 22.22336,9.949736 22.22336,22.223356 z"
       transform="matrix(2.6093336,0,0,2.6093336,171.04701,75.52473)" />
    <path
       sodipodi:type="arc"
       style="fill:#ffffff;fill-opacity:1;stroke:#000000;stroke-width:1.77165353;stroke-linecap:round;stroke-linejoin:round;stroke-miterlimit:4;stroke-opacity:1;stroke-dasharray:none;stroke-dashoffset:0"
       id="path2985-7-4-9"
       sodipodi:cx="215.16249"
       sodipodi:cy="74.534515"
       sodipodi:rx="22.223356"
       sodipodi:ry="22.223356"
       d="m 237.38585,74.534515 c 0,12.273621 -9.94974,22.223357 -22.22336,22.223357 -12.27362,0 -22.22336,-9.949736 -22.22336,-22.223357 0,-12.27362 9.94974,-22.223356 22.22336,-22.223356 12.27362,0 22.22336,9.949736 22.22336,22.223356 z"
       transform="matrix(2.6093336,0,0,2.6093336,-19.50283,75.52473)" />
    <path
       sodipodi:type="arc"
       style="fill:#ffffff;fill-opacity:1;stroke:#000000;stroke-width:1.77165353;stroke-linecap:round;stroke-linejoin:round;stroke-miterlimit:4;stroke-opacity:1;stroke-dasharray:none;stroke-dashoffset:0"
       id="path2985-7-4-9-3"
       sodipodi:cx="215.16249"
       sodipodi:cy="74.534515"
       sodipodi:rx="22.223356"
       sodipodi:ry="22.223356"
       d="m 237.38585,74.534515 c 0,12.273621 -9.94974,22.223357 -22.22336,22.223357 -12.27362,0 -22.22336,-9.949736 -22.22336,-22.223357 0,-12.27362 9.94974,-22.223356 22.22336,-22.223356 12.27362,0 22.22336,9.949736 22.22336,22.223356 z"
       transform="matrix(2.6093336,0,0,2.6093336,456.87181,236.85057)" />
    <path
       sodipodi:type="arc"
       style="fill:#ffffff;fill-opacity:1;stroke:#000000;stroke-width:1.77165353;stroke-linecap:round;stroke-linejoin:round;stroke-miterlimit:4;stroke-opacity:1;stroke-dasharray:none;stroke-dashoffset:0"
       id="path2985-7-4-9-3-2"
       sodipodi:cx="215.16249"
       sodipodi:cy="74.534515"
       sodipodi:rx="22.223356"
       sodipodi:ry="22.223356"
       d="m 237.38585,74.534515 c 0,12.273621 -9.94974,22.223357 -22.22336,22.223357 -12.27362,0 -22.22336,-9.949736 -22.22336,-22.223357 0,-12.27362 9.94974,-22.223356 22.22336,-22.223356 12.27362,0 22.22336,9.949736 22.22336,22.223356 z"
       transform="matrix(2.6093336,0,0,2.6093336,361.59691,75.52473)" />
    <path
       sodipodi:type="arc"
       style="fill:#ffffff;fill-opacity:1;stroke:#000000;stroke-width:1.77165353;stroke-linecap:round;stroke-linejoin:round;stroke-miterlimit:4;stroke-opacity:1;stroke-dasharray:none;stroke-dashoffset:0"
       id="path2985-7-4-9-3-2-4"
       sodipodi:cx="215.16249"
       sodipodi:cy="74.534515"
       sodipodi:rx="22.223356"
       sodipodi:ry="22.223356"
       d="m 237.38585,74.534515 c 0,12.273621 -9.94974,22.223357 -22.22336,22.223357 -12.27362,0 -22.22336,-9.949736 -22.22336,-22.223357 0,-12.27362 9.94974,-22.223356 22.22336,-22.223356 12.27362,0 22.22336,9.949736 22.22336,22.223356 z"
       transform="matrix(2.6093336,0,0,2.6093336,171.04701,-110.49228)" />
    <path
       sodipodi:type="arc"
       style="fill:#ffffff;fill-opacity:1;stroke:#000000;stroke-width:1.77165353;stroke-linecap:round;stroke-linejoin:round;stroke-miterlimit:4;stroke-opacity:1;stroke-dasharray:none;stroke-dashoffset:0"
       id="path2985-7-4-9-3-2-4-0"
       sodipodi:cx="215.16249"
       sodipodi:cy="74.534515"
       sodipodi:rx="22.223356"
       sodipodi:ry="22.223356"
       d="m 237.38585,74.534515 c 0,12.273621 -9.94974,22.223357 -22.22336,22.223357 -12.27362,0 -22.22336,-9.949736 -22.22336,-22.223357 0,-12.27362 9.94974,-22.223356 22.22336,-22.223356 12.27362,0 22.22336,9.949736 22.22336,22.223356 z"
       transform="matrix(2.6093336,0,0,2.6093336,75.7721,237.33136)" />
    <path
       style="fill:none;stroke:#000000;stroke-width:3.40357566px;stroke-linecap:butt;stroke-linejoin:miter;stroke-opacity:1"
       d="M 583.42229,229.50282 690.98333,124.50046"
       id="path4485"
       inkscape:connector-type="polyline"
       inkscape:connector-curvature="0"
       inkscape:connection-start="#path2985-7-4-9"
       inkscape:connection-start-point="d4"
       inkscape:connection-end="#path2985-7-4-9-3-2-4"
       inkscape:connection-end-point="d4" />
    <path
       style="fill:none;stroke:#000000;stroke-width:3.40357566px;stroke-linecap:butt;stroke-linejoin:miter;stroke-opacity:1"
       d="m 732.47773,212.022 0,-70.04071"
       id="path4487"
       inkscape:connector-type="polyline"
       inkscape:connector-curvature="0"
       inkscape:connection-start="#path2985-7-4"
       inkscape:connection-start-point="d4"
       inkscape:connection-end="#path2985-7-4-9-3-2-4"
       inkscape:connection-end-point="d4" />
    <path
       style="fill:none;stroke:#000000;stroke-width:3.40511823;stroke-linecap:butt;stroke-linejoin:miter;stroke-miterlimit:4;stroke-opacity:1;stroke-dasharray:none"
       d="M 881.53322,229.50283 773.97213,124.50045"
       id="path4489"
       inkscape:connector-type="polyline"
       inkscape:connector-curvature="0"
       inkscape:connection-start="#path2985-7-4-9-3-2"
       inkscape:connection-start-point="d4"
       inkscape:connection-end="#path2985-7-4-9-3-2-4"
       inkscape:connection-end-point="d4" />
    <path
       style="fill:none;stroke:#000000;stroke-width:3.40357566px;stroke-linecap:butt;stroke-linejoin:miter;stroke-opacity:1"
       d="M 988.81001,381.39728 952.52015,319.94885"
       id="path4491"
       inkscape:connector-type="polyline"
       inkscape:connector-curvature="0"
       inkscape:connection-start="#path2985-7-4-9-3"
       inkscape:connection-start-point="d4"
       inkscape:connection-end="#path2985-7-4-9-3-2"
       inkscape:connection-end-point="d4" />
    <path
       style="fill:none;stroke:#000000;stroke-width:3.40357566px;stroke-linecap:butt;stroke-linejoin:miter;stroke-opacity:1"
       d="m 703.05022,319.98727 -36.41989,61.85238"
       id="path4493"
       inkscape:connector-type="polyline"
       inkscape:connector-curvature="0"
       inkscape:connection-start="#path2985-7-4"
       inkscape:connection-start-point="d4"
       inkscape:connection-end="#path2985-7-4-9-3-2-4-0"
       inkscape:connection-end-point="d4" />
    <path
       style="fill:none;stroke:#000000;stroke-width:3.40357566px;stroke-linecap:butt;stroke-linejoin:miter;stroke-opacity:1"
       d="m 762.27976,319.76437 35.67084,59.55214"
       id="path4495"
       inkscape:connector-type="polyline"
       inkscape:connector-curvature="0"
       inkscape:connection-start="#path2985-7-4"
       inkscape:connection-start-point="d4"
       inkscape:connection-end="#path2985-7"
       inkscape:connection-end-point="d4" />
    <path
       style="fill:none;stroke:#000000;stroke-width:3.40357566px;stroke-linecap:butt;stroke-linejoin:miter;stroke-opacity:1"
       d="m 512.50037,319.98727 -36.41989,61.85234"
       id="path4497"
       inkscape:connector-type="polyline"
       inkscape:connector-curvature="0"
       inkscape:connection-start="#path2985-7-4-9"
       inkscape:connection-start-point="d4"
       inkscape:connection-end="#path2985"
       inkscape:connection-end-point="d4" />
    <path
       sodipodi:type="arc"
       style="fill:#ffffff;fill-opacity:1;stroke:#000000;stroke-width:1.77165353;stroke-linecap:round;stroke-linejoin:round;stroke-miterlimit:4;stroke-opacity:1;stroke-dasharray:none;stroke-dashoffset:0"
       id="path2985-7-4-9-3-2-4-0-2"
       sodipodi:cx="215.16249"
       sodipodi:cy="74.534515"
       sodipodi:rx="22.223356"
       sodipodi:ry="22.223356"
       d="m 237.38585,74.534515 c 0,12.273621 -9.94974,22.223357 -22.22336,22.223357 -12.27362,0 -22.22336,-9.949736 -22.22336,-22.223357 0,-12.27362 9.94974,-22.223356 22.22336,-22.223356 12.27362,0 22.22336,9.949736 22.22336,22.223356 z"
       transform="matrix(2.6093336,0,0,2.6093336,-248.09994,410.04722)" />
    <path
       sodipodi:type="arc"
       style="fill:#ffffff;fill-opacity:1;stroke:#000000;stroke-width:1.77165353;stroke-linecap:round;stroke-linejoin:round;stroke-miterlimit:4;stroke-opacity:1;stroke-dasharray:none;stroke-dashoffset:0"
       id="path2985-7-4-9-3-2-4-0-5"
       sodipodi:cx="215.16249"
       sodipodi:cy="74.534515"
       sodipodi:rx="22.223356"
       sodipodi:ry="22.223356"
       d="m 237.38585,74.534515 c 0,12.273621 -9.94974,22.223357 -22.22336,22.223357 -12.27362,0 -22.22336,-9.949736 -22.22336,-22.223357 0,-12.27362 9.94974,-22.223356 22.22336,-22.223356 12.27362,0 22.22336,9.949736 22.22336,22.223356 z"
       transform="matrix(2.6093336,0,0,2.6093336,-42.081671,410.04722)" />
    <path
       sodipodi:type="arc"
       style="fill:#808080;fill-opacity:1;stroke:#000000;stroke-width:1.77165353;stroke-linecap:round;stroke-linejoin:round;stroke-miterlimit:4;stroke-opacity:1;stroke-dasharray:none;stroke-dashoffset:0"
       id="path2985-7-4-9-3-2-4-0-9"
       sodipodi:cx="215.16249"
       sodipodi:cy="74.534515"
       sodipodi:rx="22.223356"
       sodipodi:ry="22.223356"
       d="m 237.38585,74.534515 c 0,12.273621 -9.94974,22.223357 -22.22336,22.223357 -12.27362,0 -22.22336,-9.949736 -22.22336,-22.223357 0,-12.27362 9.94974,-22.223356 22.22336,-22.223356 12.27362,0 22.22336,9.949736 22.22336,22.223356 z"
       transform="matrix(2.6093336,0,0,2.6093336,185.96399,410.04722)" />
    <path
       style="fill:#ffffff;stroke:#000000;stroke-width:3.54330707;stroke-linecap:butt;stroke-linejoin:miter;stroke-miterlimit:4;stroke-opacity:1;stroke-dasharray:none"
       d="m 482.89337,538.22123 27.69289,65.79448"
       id="path5194"
       inkscape:connector-type="polyline"
       inkscape:connector-curvature="0"
       inkscape:connection-start="#path2985"
       inkscape:connection-start-point="d4"
       inkscape:connection-end="#path2985-7-4-9-3-2-4-0-5"
       inkscape:connection-end-point="d4"
       transform="translate(-13.738815,-52.943785)" />
    <path
       style="fill:#ffffff;stroke:#000000;stroke-width:3.54330707;stroke-linecap:butt;stroke-linejoin:miter;stroke-miterlimit:4;stroke-opacity:1;stroke-dasharray:none"
       d="m 424.95667,530.6659 -62.45198,80.90514"
       id="path5196"
       inkscape:connector-type="polyline"
       inkscape:connector-curvature="0"
       inkscape:connection-start="#path2985"
       inkscape:connection-start-point="d4"
       inkscape:connection-end="#path2985-7-4-9-3-2-4-0-2"
       inkscape:connection-end-point="d4"
       transform="translate(-13.738815,-52.943785)" />
    <path
       style="fill:#ffffff;stroke:#000000;stroke-width:3.54330707;stroke-linecap:butt;stroke-linejoin:miter;stroke-miterlimit:4;stroke-opacity:1;stroke-dasharray:none"
       d="m 785.28499,604.74156 32.05498,-69.99218"
       id="path5198"
       inkscape:connector-type="polyline"
       inkscape:connector-curvature="0"
       inkscape:connection-start="#path2985-7-4-9-3-2-4-0-9"
       inkscape:connection-start-point="d4"
       inkscape:connection-end="#path2985-7"
       inkscape:connection-end-point="d4"
       transform="translate(-13.738815,-52.943785)" />
    <path
       sodipodi:type="arc"
       style="fill:#ffffff;fill-opacity:1;stroke:#000000;stroke-width:1.77165353;stroke-linecap:round;stroke-linejoin:round;stroke-miterlimit:4;stroke-opacity:1;stroke-dasharray:none;stroke-dashoffset:0"
       id="path2985-7-3"
       sodipodi:cx="215.16249"
       sodipodi:cy="74.534515"
       sodipodi:rx="22.223356"
       sodipodi:ry="22.223356"
       d="m 237.38585,74.534515 c 0,12.273621 -9.94974,22.223357 -22.22336,22.223357 -12.27362,0 -22.22336,-9.949736 -22.22336,-22.223357 0,-12.27362 9.94974,-22.223356 22.22336,-22.223356 12.27362,0 22.22336,9.949736 22.22336,22.223356 z"
       transform="matrix(2.6093336,0,0,2.6093336,561.41699,405.19207)" />
    <path
       sodipodi:type="arc"
       style="fill:#ffffff;fill-opacity:1;stroke:#000000;stroke-width:1.77165353;stroke-linecap:round;stroke-linejoin:round;stroke-miterlimit:4;stroke-opacity:1;stroke-dasharray:none;stroke-dashoffset:0"
       id="path2985-7-4-9-3-2-4-0-3"
       sodipodi:cx="215.16249"
       sodipodi:cy="74.534515"
       sodipodi:rx="22.223356"
       sodipodi:ry="22.223356"
       d="m 237.38585,74.534515 c 0,12.273621 -9.94974,22.223357 -22.22336,22.223357 -12.27362,0 -22.22336,-9.949736 -22.22336,-22.223357 0,-12.27362 9.94974,-22.223356 22.22336,-22.223356 12.27362,0 22.22336,9.949736 22.22336,22.223356 z"
       transform="matrix(2.6093336,0,0,2.6093336,370.86719,407.9381)" />
    <path
       sodipodi:type="arc"
       style="fill:#ffffff;fill-opacity:1;stroke:#000000;stroke-width:1.77165353;stroke-linecap:round;stroke-linejoin:round;stroke-miterlimit:4;stroke-opacity:1;stroke-dasharray:none;stroke-dashoffset:0"
       id="path2985-7-4-9-3-2-4-0-9-1"
       sodipodi:cx="215.16249"
       sodipodi:cy="74.534515"
       sodipodi:rx="22.223356"
       sodipodi:ry="22.223356"
       d="m 237.38585,74.534515 c 0,12.273621 -9.94974,22.223357 -22.22336,22.223357 -12.27362,0 -22.22336,-9.949736 -22.22336,-22.223357 0,-12.27362 9.94974,-22.223356 22.22336,-22.223356 12.27362,0 22.22336,9.949736 22.22336,22.223356 z"
       transform="matrix(2.6093336,0,0,2.6093336,491.05909,580.65397)" />
    <path
       style="fill:#ffffff;stroke:#000000;stroke-width:3.54330707;stroke-linecap:butt;stroke-linejoin:miter;stroke-miterlimit:4;stroke-opacity:1;stroke-dasharray:none"
       d="m 1074.0776,721.30277 27.1823,-67.78867"
       id="path5198-1"
       inkscape:connector-type="polyline"
       inkscape:connector-curvature="0"
       inkscape:connection-start="#path2985-7-4-9-3-2-4-0-9-1"
       inkscape:connection-start-point="d4"
       inkscape:connection-end="#path2985-7-3"
       inkscape:connection-end-point="d4" />
    <path
       style="fill:none;stroke:#000000;stroke-width:3.54330707;stroke-linecap:butt;stroke-linejoin:miter;stroke-miterlimit:4;stroke-opacity:1;stroke-dasharray:none"
       d="m 833.42743,536.10125 -33.90396,67.44457"
       id="path3051"
       inkscape:connector-type="polyline"
       inkscape:connector-curvature="0"
       inkscape:connection-start="#path2985-7-4-9-3"
       inkscape:connection-start-point="d4"
       inkscape:connection-end="#path2985-7-4-9-3-2-4-0-3"
       inkscape:connection-end-point="d4"
       transform="translate(158.82477,-52.943785)" />
    <path
       style="fill:none;stroke:#000000;stroke-width:3.54330707;stroke-linecap:butt;stroke-linejoin:miter;stroke-miterlimit:4;stroke-opacity:1;stroke-dasharray:none"
       d="m 890.07483,533.54802 43.35103,69.805"
       id="path3053"
       inkscape:connector-type="polyline"
       inkscape:connector-curvature="0"
       inkscape:connection-start="#path2985-7-4-9-3"
       inkscape:connection-start-point="d4"
       inkscape:connection-end="#path2985-7-3"
       inkscape:connection-end-point="d4"
       transform="translate(158.82477,-52.943785)" />
    <path
       style="fill:none;stroke:#000000;stroke-width:7.08661413;stroke-linecap:butt;stroke-linejoin:miter;stroke-miterlimit:4;stroke-opacity:1;stroke-dasharray:7.08661417, 14.17322835;stroke-dashoffset:0"
       d="m 186.59397,353.12561 1091.76753,0"
       id="path3853"
       inkscape:connector-curvature="0" />
    <path
       style="fill:none;stroke:#000000;stroke-width:7.08661413;stroke-linecap:butt;stroke-linejoin:miter;stroke-miterlimit:4;stroke-opacity:1;stroke-dasharray:7.08661417, 14.17322835;stroke-dashoffset:0"
       d="m 186.59397,179.77097 1091.76753,0"
       id="path3853-4"
       inkscape:connector-curvature="0" />
    <path
       style="fill:none;stroke:#000000;stroke-width:7.08661413;stroke-linecap:butt;stroke-linejoin:miter;stroke-miterlimit:4;stroke-opacity:1;stroke-dasharray:7.08661417, 14.17322835;stroke-dashoffset:0"
       d="m 186.59398,529.87364 1091.76752,0"
       id="path3853-1"
       inkscape:connector-curvature="0" />
    <path
       style="fill:none;stroke:#000000;stroke-width:7.08661413;stroke-linecap:butt;stroke-linejoin:miter;stroke-miterlimit:4;stroke-opacity:1;stroke-dasharray:7.08661417, 14.17322835;stroke-dashoffset:0"
       d="m 186.59396,704.92497 1091.76754,0"
       id="path3853-9"
       inkscape:connector-curvature="0" />
    <text
       xml:space="preserve"
       style="font-size:28px;font-style:normal;font-variant:normal;font-weight:normal;font-stretch:normal;text-align:center;line-height:125%;letter-spacing:0px;word-spacing:0px;text-anchor:middle;fill:#000000;fill-opacity:1;stroke:none;font-family:DejaVu Sans;-inkscape-font-specification:DejaVu Sans"
       x="1235.9946"
       y="154.43457"
       id="text3891"
       sodipodi:linespacing="125%"><tspan
         sodipodi:role="line"
         id="tspan3893"
         x="1235.9946"
         y="154.43457">Nível 0</tspan></text>
    <text
       xml:space="preserve"
       style="font-size:28px;font-style:normal;font-variant:normal;font-weight:normal;font-stretch:normal;text-align:center;line-height:125%;letter-spacing:0px;word-spacing:0px;text-anchor:middle;fill:#000000;fill-opacity:1;stroke:none;font-family:DejaVu Sans;-inkscape-font-specification:DejaVu Sans"
       x="1236.2134"
       y="305.93533"
       id="text3891-6"
       sodipodi:linespacing="125%"><tspan
         sodipodi:role="line"
         id="tspan3893-3"
         x="1236.2134"
         y="305.93533">Nível 1</tspan></text>
    <text
       xml:space="preserve"
       style="font-size:28px;font-style:normal;font-variant:normal;font-weight:normal;font-stretch:normal;text-align:center;line-height:125%;letter-spacing:0px;word-spacing:0px;text-anchor:middle;fill:#000000;fill-opacity:1;stroke:none;font-family:DejaVu Sans;-inkscape-font-specification:DejaVu Sans"
       x="1235.6528"
       y="478.68338"
       id="text3891-4"
       sodipodi:linespacing="125%"><tspan
         sodipodi:role="line"
         id="tspan3893-2"
         x="1235.6528"
         y="478.68338">Nível 2</tspan></text>
    <text
       xml:space="preserve"
       style="font-size:28px;font-style:normal;font-variant:normal;font-weight:normal;font-stretch:normal;text-align:center;line-height:125%;letter-spacing:0px;word-spacing:0px;text-anchor:middle;fill:#000000;fill-opacity:1;stroke:none;font-family:DejaVu Sans;-inkscape-font-specification:DejaVu Sans"
       x="1234.9829"
       y="653.73468"
       id="text3891-2"
       sodipodi:linespacing="125%"><tspan
         sodipodi:role="line"
         id="tspan3893-7"
         x="1234.9829"
         y="653.73468">Nível 3</tspan></text>
    <text
       xml:space="preserve"
       style="font-size:28px;font-style:normal;font-variant:normal;font-weight:normal;font-stretch:normal;text-align:center;line-height:125%;letter-spacing:0px;word-spacing:0px;text-anchor:middle;fill:#000000;fill-opacity:1;stroke:none;font-family:DejaVu Sans;-inkscape-font-specification:DejaVu Sans"
       x="1235.8579"
       y="787.32654"
       id="text3891-9"
       sodipodi:linespacing="125%"><tspan
         sodipodi:role="line"
         id="tspan3893-75"
         x="1235.8579"
         y="787.32654">Nível 4</tspan></text>
  </g>
</svg>
