<?xml version="1.0" encoding="UTF-8" standalone="no"?>
<!-- Created with Inkscape (http://www.inkscape.org/) -->

<svg
   xmlns:dc="http://purl.org/dc/elements/1.1/"
   xmlns:cc="http://creativecommons.org/ns#"
   xmlns:rdf="http://www.w3.org/1999/02/22-rdf-syntax-ns#"
   xmlns:svg="http://www.w3.org/2000/svg"
   xmlns="http://www.w3.org/2000/svg"
   xmlns:sodipodi="http://sodipodi.sourceforge.net/DTD/sodipodi-0.dtd"
   xmlns:inkscape="http://www.inkscape.org/namespaces/inkscape"
   width="575.31628"
   height="306.90717"
   id="svg6919"
   version="1.1"
   inkscape:version="0.48.4 r9939"
   sodipodi:docname="fila.svg">
  <defs
     id="defs6921" />
  <sodipodi:namedview
     inkscape:document-units="mm"
     pagecolor="#ffffff"
     bordercolor="#666666"
     borderopacity="1.0"
     inkscape:pageopacity="0.0"
     inkscape:pageshadow="2"
     inkscape:zoom="1.2279853"
     inkscape:cx="313.60713"
     inkscape:cy="165.86846"
     inkscape:current-layer="layer1"
     id="namedview6923"
     showgrid="false"
     inkscape:window-width="1301"
     inkscape:window-height="744"
     inkscape:window-x="339"
     inkscape:window-y="1104"
     inkscape:window-maximized="1"
     units="px"
     fit-margin-top="5"
     fit-margin-left="5"
     fit-margin-bottom="5"
     fit-margin-right="5" />
  <metadata
     id="metadata6925">
    <rdf:RDF>
      <cc:Work
         rdf:about="">
        <dc:format>image/svg+xml</dc:format>
        <dc:type
           rdf:resource="http://purl.org/dc/dcmitype/StillImage" />
        <dc:title></dc:title>
      </cc:Work>
    </rdf:RDF>
  </metadata>
  <g
     inkscape:label="Layer 1"
     inkscape:groupmode="layer"
     id="layer1"
     transform="translate(-210.49493,-212.07014)">
    <path
       style="fill:#000000"
       d="m 732.28847,406.84448 c -7.91751,-11.03756 -8.02475,-11.26574 -5.67918,-12.08333 3.05454,-1.06473 3.00547,-1.7247 -0.35929,-4.83236 -15.86152,-14.64953 -43.09215,-22.40026 -83.75,-23.83799 l -22,-0.77796 22,0.26866 c 16.92696,0.20671 24.65182,0.74508 33.5,2.33471 21.31618,3.82958 37.68397,10.44888 49.52134,20.02694 5.92577,4.79477 6.03247,4.83396 9.70184,3.56359 l 3.71016,-1.28449 0.49578,3.18612 c 0.74036,4.75795 1.82717,24.68611 1.34629,24.68611 -0.22938,0 -4.0485,-5.0625 -8.48694,-11.25 z"
       id="path7017"
       inkscape:connector-curvature="0" />
    <path
       style="fill:#000000"
       d="m 329,369.81276 c 0,-4.39816 -0.0808,-4.51086 -3.72608,-5.19471 -15.42,-2.89281 -34.47407,-11.93867 -43.1586,-20.48941 -8.43595,-8.30599 -11.57566,-15.25473 -11.76323,-26.03416 l -0.14791,-8.5 0.66057,8.51654 c 0.86474,11.14907 4.23725,17.97867 12.86214,26.04682 7.40826,6.93006 20.13588,13.51047 33.63498,17.38989 11.33535,3.25759 11.63813,3.24276 11.63813,-0.56988 0,-2.48416 0.35514,-3.01936 1.75,-2.63729 17.25919,4.72741 25.14742,7.24694 24.52078,7.83203 -0.42393,0.39582 -5.94578,2.17278 -12.27078,3.94882 -6.325,1.77603 -12.0625,3.44468 -12.75,3.7081 -0.88566,0.33935 -1.25,-0.83142 -1.25,-4.01675 z"
       id="path6995"
       inkscape:connector-curvature="0" />
    <text
       xml:space="preserve"
       style="font-size:20px;font-style:normal;font-variant:normal;font-weight:normal;font-stretch:normal;text-align:center;line-height:125%;letter-spacing:0px;word-spacing:0px;text-anchor:middle;fill:#000000;fill-opacity:1;stroke:none;font-family:DejaVu Sans;-inkscape-font-specification:DejaVu Sans"
       x="282.79181"
       y="399.08755"
       id="text7551"
       sodipodi:linespacing="125%"><tspan
         sodipodi:role="line"
         id="tspan7553"
         x="282.79181"
         y="399.08755"
         style="font-size:32px">Enqueue</tspan></text>
    <text
       xml:space="preserve"
       style="font-size:20px;font-style:normal;font-variant:normal;font-weight:normal;font-stretch:normal;text-align:center;line-height:125%;letter-spacing:0px;word-spacing:0px;text-anchor:middle;fill:#000000;fill-opacity:1;stroke:none;font-family:DejaVu Sans;-inkscape-font-specification:DejaVu Sans"
       x="710.20184"
       y="355.8714"
       id="text7551-4"
       sodipodi:linespacing="125%"><tspan
         sodipodi:role="line"
         id="tspan7553-5"
         x="710.20184"
         y="355.8714"
         style="font-size:32px">Dequeue</tspan></text>
    <text
       xml:space="preserve"
       style="font-size:20px;font-style:normal;font-variant:normal;font-weight:normal;font-stretch:normal;text-align:center;line-height:125%;letter-spacing:0px;word-spacing:0px;text-anchor:middle;fill:#000000;fill-opacity:1;stroke:none;font-family:DejaVu Sans;-inkscape-font-specification:DejaVu Sans"
       x="559.15582"
       y="432.33539"
       id="text7551-2"
       sodipodi:linespacing="125%"><tspan
         sodipodi:role="line"
         x="559.15582"
         y="432.33539"
         style="font-size:24px"
         id="tspan7945">Começo</tspan></text>
    <text
       xml:space="preserve"
       style="font-size:20px;font-style:normal;font-variant:normal;font-weight:normal;font-stretch:normal;text-align:center;line-height:125%;letter-spacing:0px;word-spacing:0px;text-anchor:middle;fill:#000000;fill-opacity:1;stroke:none;font-family:DejaVu Sans;-inkscape-font-specification:DejaVu Sans"
       x="391.42572"
       y="435.26666"
       id="text7551-2-2"
       sodipodi:linespacing="125%"><tspan
         sodipodi:role="line"
         id="tspan7553-4-9"
         x="391.42572"
         y="435.26666"
         style="font-size:24px">Final</tspan></text>
    <text
       xml:space="preserve"
       style="font-size:20px;font-style:normal;font-variant:normal;font-weight:normal;font-stretch:normal;text-align:center;line-height:125%;letter-spacing:0px;word-spacing:0px;text-anchor:middle;fill:#000000;fill-opacity:1;stroke:none;font-family:DejaVu Sans;-inkscape-font-specification:DejaVu Sans"
       x="284.20535"
       y="427.31543"
       id="text7618"
       sodipodi:linespacing="125%"><tspan
         sodipodi:role="line"
         x="284.20535"
         y="427.31543"
         id="tspan7622">Insere no</tspan><tspan
         sodipodi:role="line"
         x="284.20535"
         y="452.31543"
         id="tspan7630">final da fila</tspan></text>
    <text
       xml:space="preserve"
       style="font-size:20px;font-style:normal;font-variant:normal;font-weight:normal;font-stretch:normal;text-align:center;line-height:125%;letter-spacing:0px;word-spacing:0px;text-anchor:middle;fill:#000000;fill-opacity:1;stroke:none;font-family:DejaVu Sans;-inkscape-font-specification:DejaVu Sans"
       x="637.45026"
       y="467.50247"
       id="text7618-9"
       sodipodi:linespacing="125%"><tspan
         sodipodi:role="line"
         x="637.45026"
         y="467.50247"
         id="tspan7622-8">Remove do</tspan><tspan
         sodipodi:role="line"
         x="637.45026"
         y="492.50247"
         id="tspan7630-6">começo da fila</tspan></text>
    <path
       style="fill:#000000"
       d="m 580.9064,408.98253 c -0.48134,-0.38989 -1.08142,-1.1122 -1.33349,-1.60512 -0.32513,-0.63574 -0.45833,-9.54957 -0.45833,-30.67033 0,-29.50059 -0.007,-29.77413 -0.82061,-29.77413 -0.80102,0 -0.82061,0.27354 -0.82061,11.45878 l 0,11.45877 -1.0811,0.85039 c -1.46328,1.15102 -3.23082,1.08914 -4.47668,-0.15673 l -1.00711,-1.00711 0.004,-13.45616 c 0.004,-13.25476 0.0184,-13.48711 0.96713,-15.52445 1.0299,-2.21167 2.92726,-4.07212 5.06769,-4.96907 0.99107,-0.41531 3.93601,-0.55329 11.80991,-0.55329 10.35918,0 10.51464,0.0127 12.50205,1.01979 1.10685,0.56088 2.48188,1.63523 3.05561,2.38743 2.16357,2.8366 2.29017,3.83153 2.29017,17.99891 l 0,13.09684 -1.00711,1.00711 c -1.33259,1.33259 -3.44331,1.3586 -4.66564,0.0575 -0.87163,-0.92781 -0.89214,-1.21078 -0.89214,-12.30917 0,-11.086 -0.0197,-11.35953 -0.82061,-11.35953 -0.81317,0 -0.82061,0.27353 -0.82061,30.18901 l 0,30.18903 -1.19935,1.19935 c -1.70176,1.70175 -4.37872,1.70277 -6.28225,0.002 l -1.33997,-1.19705 -0.11498,-18.08739 c -0.098,-15.41316 -0.20231,-18.0874 -0.70563,-18.0874 -0.50331,0 -0.60764,2.67424 -0.70563,18.0874 l -0.11498,18.08739 -1.33996,1.19697 c -1.58794,1.41848 -4.24753,1.63808 -5.68978,0.46981 z m 5.43972,-76.17389 c -0.87451,-0.32192 -2.20967,-1.18589 -2.96699,-1.91992 -4.75842,-4.61205 -1.33328,-12.79439 5.35575,-12.79439 5.75068,0 9.32281,5.76221 6.80124,10.97108 -1.57027,3.24375 -5.83169,4.97949 -9.19,3.74323 z"
       id="path7853"
       inkscape:connector-curvature="0" />
    <path
       style="fill:#000000"
       d="m 535.71046,408.98253 c -0.48134,-0.38989 -1.08142,-1.1122 -1.33349,-1.60512 -0.32513,-0.63574 -0.45833,-9.54957 -0.45833,-30.67033 0,-29.50059 -0.007,-29.77413 -0.82061,-29.77413 -0.80102,0 -0.82061,0.27354 -0.82061,11.45878 l 0,11.45877 -1.0811,0.85039 c -1.46328,1.15102 -3.23082,1.08914 -4.47668,-0.15673 l -1.00711,-1.00711 0.004,-13.45616 c 0.004,-13.25476 0.0184,-13.48711 0.96713,-15.52445 1.0299,-2.21167 2.92726,-4.07212 5.06769,-4.96907 0.99107,-0.41531 3.93601,-0.55329 11.80991,-0.55329 10.35918,0 10.51464,0.0127 12.50205,1.01979 1.10685,0.56088 2.48188,1.63523 3.05561,2.38743 2.16357,2.8366 2.29017,3.83153 2.29017,17.99891 l 0,13.09684 -1.00711,1.00711 c -1.33259,1.33259 -3.44331,1.3586 -4.66564,0.0575 -0.87163,-0.92781 -0.89214,-1.21078 -0.89214,-12.30917 0,-11.086 -0.0197,-11.35953 -0.82061,-11.35953 -0.81317,0 -0.82061,0.27353 -0.82061,30.18901 l 0,30.18903 -1.19935,1.19935 c -1.70176,1.70175 -4.37872,1.70277 -6.28225,0.002 l -1.33997,-1.19705 -0.11498,-18.08739 c -0.098,-15.41316 -0.20231,-18.0874 -0.70563,-18.0874 -0.50331,0 -0.60764,2.67424 -0.70563,18.0874 l -0.11498,18.08739 -1.33996,1.19697 c -1.58794,1.41848 -4.24753,1.63808 -5.68978,0.46981 z m 5.43972,-76.17389 c -0.87451,-0.32192 -2.20967,-1.18589 -2.96699,-1.91992 -4.75842,-4.61205 -1.33328,-12.79439 5.35575,-12.79439 5.75068,0 9.32281,5.76221 6.80124,10.97108 -1.57027,3.24375 -5.83169,4.97949 -9.19,3.74323 z"
       id="path7853-7"
       inkscape:connector-curvature="0" />
    <path
       style="fill:#000000"
       d="m 480.3352,408.98253 c -0.48134,-0.38989 -1.08142,-1.1122 -1.33349,-1.60512 -0.32513,-0.63574 -0.45833,-9.54957 -0.45833,-30.67033 0,-29.50059 -0.007,-29.77413 -0.82061,-29.77413 -0.80102,0 -0.82061,0.27354 -0.82061,11.45878 l 0,11.45877 -1.0811,0.85039 c -1.46328,1.15102 -3.23082,1.08914 -4.47668,-0.15673 l -1.00711,-1.00711 0.004,-13.45616 c 0.004,-13.25476 0.0184,-13.48711 0.96713,-15.52445 1.0299,-2.21167 2.92726,-4.07212 5.06769,-4.96907 0.99107,-0.41531 3.93601,-0.55329 11.80991,-0.55329 10.35918,0 10.51464,0.0127 12.50205,1.01979 1.10685,0.56088 2.48188,1.63523 3.05561,2.38743 2.16357,2.8366 2.29017,3.83153 2.29017,17.99891 l 0,13.09684 -1.00711,1.00711 c -1.33259,1.33259 -3.44331,1.3586 -4.66564,0.0575 -0.87163,-0.92781 -0.89214,-1.21078 -0.89214,-12.30917 0,-11.086 -0.0197,-11.35953 -0.82061,-11.35953 -0.81317,0 -0.82061,0.27353 -0.82061,30.18901 l 0,30.18903 -1.19935,1.19935 c -1.70176,1.70175 -4.37872,1.70277 -6.28225,0.002 l -1.33997,-1.19705 -0.11498,-18.08739 c -0.098,-15.41316 -0.20231,-18.0874 -0.70563,-18.0874 -0.50331,0 -0.60764,2.67424 -0.70563,18.0874 l -0.11498,18.08739 -1.33996,1.19697 c -1.58794,1.41848 -4.24753,1.63808 -5.68978,0.46981 z m 5.43972,-76.17389 c -0.87451,-0.32192 -2.20967,-1.18589 -2.96699,-1.91992 -4.75842,-4.61205 -1.33328,-12.79439 5.35575,-12.79439 5.75068,0 9.32281,5.76221 6.80124,10.97108 -1.57027,3.24375 -5.83169,4.97949 -9.19,3.74323 z"
       id="path7853-9"
       inkscape:connector-curvature="0" />
    <path
       style="fill:#000000"
       d="m 423.33126,408.98253 c -0.48134,-0.38989 -1.08142,-1.1122 -1.33349,-1.60512 -0.32513,-0.63574 -0.45833,-9.54957 -0.45833,-30.67033 0,-29.50059 -0.007,-29.77413 -0.82061,-29.77413 -0.80102,0 -0.82061,0.27354 -0.82061,11.45878 l 0,11.45877 -1.0811,0.85039 c -1.46328,1.15102 -3.23082,1.08914 -4.47668,-0.15673 l -1.00711,-1.00711 0.004,-13.45616 c 0.004,-13.25476 0.0184,-13.48711 0.96713,-15.52445 1.0299,-2.21167 2.92726,-4.07212 5.06769,-4.96907 0.99107,-0.41531 3.93601,-0.55329 11.80991,-0.55329 10.35918,0 10.51464,0.0127 12.50205,1.01979 1.10685,0.56088 2.48188,1.63523 3.05561,2.38743 2.16357,2.8366 2.29017,3.83153 2.29017,17.99891 l 0,13.09684 -1.00711,1.00711 c -1.33259,1.33259 -3.44331,1.3586 -4.66564,0.0575 -0.87163,-0.92781 -0.89214,-1.21078 -0.89214,-12.30917 0,-11.086 -0.0197,-11.35953 -0.82061,-11.35953 -0.81317,0 -0.82061,0.27353 -0.82061,30.18901 l 0,30.18903 -1.19935,1.19935 c -1.70176,1.70175 -4.37872,1.70277 -6.28225,0.002 l -1.33997,-1.19705 -0.11498,-18.08739 c -0.098,-15.41316 -0.20231,-18.0874 -0.70563,-18.0874 -0.50331,0 -0.60764,2.67424 -0.70563,18.0874 l -0.11498,18.08739 -1.33996,1.19697 c -1.58794,1.41848 -4.24753,1.63808 -5.68978,0.46981 z m 5.43972,-76.17389 c -0.87451,-0.32192 -2.20967,-1.18589 -2.96699,-1.91992 -4.75842,-4.61205 -1.33328,-12.79439 5.35575,-12.79439 5.75068,0 9.32281,5.76221 6.80124,10.97108 -1.57027,3.24375 -5.83169,4.97949 -9.19,3.74323 z"
       id="path7853-0"
       inkscape:connector-curvature="0" />
    <path
       style="fill:#000000"
       d="m 376.09943,408.98253 c -0.48134,-0.38989 -1.08142,-1.1122 -1.33349,-1.60512 -0.32513,-0.63574 -0.45833,-9.54957 -0.45833,-30.67033 0,-29.50059 -0.007,-29.77413 -0.82061,-29.77413 -0.80102,0 -0.82061,0.27354 -0.82061,11.45878 l 0,11.45877 -1.0811,0.85039 c -1.46328,1.15102 -3.23082,1.08914 -4.47668,-0.15673 l -1.00711,-1.00711 0.004,-13.45616 c 0.004,-13.25476 0.0184,-13.48711 0.96713,-15.52445 1.0299,-2.21167 2.92726,-4.07212 5.06769,-4.96907 0.99107,-0.41531 3.93601,-0.55329 11.80991,-0.55329 10.35918,0 10.51464,0.0127 12.50205,1.01979 1.10685,0.56088 2.48188,1.63523 3.05561,2.38743 2.16357,2.8366 2.29017,3.83153 2.29017,17.99891 l 0,13.09684 -1.00711,1.00711 c -1.33259,1.33259 -3.44331,1.3586 -4.66564,0.0575 -0.87163,-0.92781 -0.89214,-1.21078 -0.89214,-12.30917 0,-11.086 -0.0197,-11.35953 -0.82061,-11.35953 -0.81317,0 -0.82061,0.27353 -0.82061,30.18901 l 0,30.18903 -1.19935,1.19935 c -1.70176,1.70175 -4.37872,1.70277 -6.28225,0.002 l -1.33997,-1.19705 -0.11498,-18.08739 c -0.098,-15.41316 -0.20231,-18.0874 -0.70563,-18.0874 -0.50331,0 -0.60764,2.67424 -0.70563,18.0874 l -0.11498,18.08739 -1.33996,1.19697 c -1.58794,1.41848 -4.24753,1.63808 -5.68978,0.46981 z m 5.43972,-76.17389 c -0.87451,-0.32192 -2.20967,-1.18589 -2.96699,-1.91992 -4.75842,-4.61205 -1.33328,-12.79439 5.35575,-12.79439 5.75068,0 9.32281,5.76221 6.80124,10.97108 -1.57027,3.24375 -5.83169,4.97949 -9.19,3.74323 z"
       id="path7853-4"
       inkscape:connector-curvature="0" />
    <path
       style="fill:#000000"
       d="m 263.72023,307.95834 c -0.48134,-0.38989 -1.08142,-1.1122 -1.33349,-1.60512 -0.32513,-0.63574 -0.45833,-9.54957 -0.45833,-30.67033 0,-29.50059 -0.007,-29.77413 -0.82061,-29.77413 -0.80102,0 -0.82061,0.27354 -0.82061,11.45878 l 0,11.45877 -1.0811,0.85039 c -1.46328,1.15102 -3.23082,1.08914 -4.47668,-0.15673 l -1.00711,-1.00711 0.004,-13.45616 c 0.004,-13.25476 0.0184,-13.48711 0.96713,-15.52445 1.0299,-2.21167 2.92726,-4.07212 5.06769,-4.96907 0.99107,-0.41531 3.93601,-0.55329 11.80991,-0.55329 10.35918,0 10.51464,0.0127 12.50205,1.01979 1.10685,0.56088 2.48188,1.63523 3.05561,2.38743 2.16357,2.8366 2.29017,3.83153 2.29017,17.99891 l 0,13.09684 -1.00711,1.00711 c -1.33259,1.33259 -3.44331,1.3586 -4.66564,0.0575 -0.87163,-0.92781 -0.89214,-1.21078 -0.89214,-12.30917 0,-11.086 -0.0197,-11.35953 -0.82061,-11.35953 -0.81317,0 -0.82061,0.27353 -0.82061,30.18901 l 0,30.18903 -1.19935,1.19935 c -1.70176,1.70175 -4.37872,1.70277 -6.28225,0.002 l -1.33997,-1.19705 -0.11498,-18.08739 c -0.098,-15.41316 -0.20231,-18.0874 -0.70563,-18.0874 -0.50331,0 -0.60764,2.67424 -0.70563,18.0874 l -0.11498,18.08739 -1.33996,1.19697 c -1.58794,1.41848 -4.24753,1.63808 -5.68978,0.46981 z m 5.43972,-76.17389 c -0.87451,-0.32192 -2.20967,-1.18589 -2.96699,-1.91992 -4.75842,-4.61205 -1.33328,-12.79439 5.35575,-12.79439 5.75068,0 9.32281,5.76221 6.80124,10.97108 -1.57027,3.24375 -5.83169,4.97949 -9.19,3.74323 z"
       id="path7853-94"
       inkscape:connector-curvature="0" />
    <path
       style="fill:#000000"
       d="m 735.22425,513.17253 c -0.48134,-0.38989 -1.08142,-1.1122 -1.33349,-1.60512 -0.32513,-0.63574 -0.45833,-9.54957 -0.45833,-30.67033 0,-29.50059 -0.007,-29.77413 -0.82061,-29.77413 -0.80102,0 -0.82061,0.27354 -0.82061,11.45878 l 0,11.45877 -1.0811,0.85039 c -1.46328,1.15102 -3.23082,1.08914 -4.47668,-0.15673 l -1.00711,-1.00711 0.004,-13.45616 c 0.004,-13.25476 0.0184,-13.48711 0.96713,-15.52445 1.0299,-2.21167 2.92726,-4.07212 5.06769,-4.96907 0.99107,-0.41531 3.93601,-0.55329 11.80991,-0.55329 10.35918,0 10.51464,0.0127 12.50205,1.01979 1.10685,0.56088 2.48188,1.63523 3.05561,2.38743 2.16357,2.8366 2.29017,3.83153 2.29017,17.99891 l 0,13.09684 -1.00711,1.00711 c -1.33259,1.33259 -3.44331,1.3586 -4.66564,0.0575 -0.87163,-0.92781 -0.89214,-1.21078 -0.89214,-12.30917 0,-11.086 -0.0197,-11.35953 -0.82061,-11.35953 -0.81317,0 -0.82061,0.27353 -0.82061,30.18901 l 0,30.18903 -1.19935,1.19935 c -1.70176,1.70175 -4.37872,1.70277 -6.28225,0.002 l -1.33997,-1.19705 -0.11498,-18.08739 c -0.098,-15.41316 -0.20231,-18.0874 -0.70563,-18.0874 -0.50331,0 -0.60764,2.67424 -0.70563,18.0874 l -0.11498,18.08739 -1.33996,1.19697 c -1.58794,1.41848 -4.24753,1.63808 -5.68978,0.46981 z m 5.43972,-76.17389 c -0.87451,-0.32192 -2.20967,-1.18589 -2.96699,-1.91992 -4.75842,-4.61205 -1.33328,-12.79439 5.35575,-12.79439 5.75068,0 9.32281,5.76221 6.80124,10.97108 -1.57027,3.24375 -5.83169,4.97949 -9.19,3.74323 z"
       id="path7853-3"
       inkscape:connector-curvature="0" />
    <path
       style="fill:none;stroke:#000000;stroke-width:1px;stroke-linecap:butt;stroke-linejoin:miter;stroke-opacity:1"
       d="m 579.61527,414.36527 21.59351,-0.28791 0,-23.32098"
       id="path7991"
       inkscape:connector-curvature="0" />
    <path
       style="fill:none;stroke:#000000;stroke-width:1px;stroke-linecap:butt;stroke-linejoin:miter;stroke-opacity:1"
       d="m 370.28686,391.76407 0.28791,21.59351 23.32098,0"
       id="path7991-5"
       inkscape:connector-curvature="0" />
  </g>
</svg>
